{
	"asset":{
		"generator":"Khronos glTF Blender I/O v4.5.51",
		"version":"2.0"
	},
	"extensionsUsed":[
		"KHR_materials_emissive_strength"
	],
	"scene":0,
	"scenes":[
		{
			"extras":{
				"gloom_authoring_stage":"H03-face-visible-anatomy-not-final-sculpt",
				"gloom_approved_reference":"art/characters/hound/v02/hound-blockout-v02.blend @ 67cda2e; approval d7fc1f8",
				"gloom_forward":"-Y Blender / +Z glTF",
				"gloom_limitations":"Neutral closed human face; no facial rig, jaw motion, production topology or global H05 approval",
				"gloom_rigid_parts":"{\"Abdominal_plate_1\": \"Bip001 Spine1\", \"Abdominal_plate_2\": \"Bip001 Spine\", \"Abdominal_plate_3\": \"Bip001 Spine\", \"Ankle_guard_L\": \"Bip001 L Foot\", \"Ankle_guard_R\": \"Bip001 R Foot\", \"Back_spine_0\": \"Bip001 Spine1\", \"Back_spine_1\": \"Bip001 Spine\", \"Back_spine_2\": \"Bip001 Spine\", \"Boot_L\": \"Bip001 L Foot\", \"Boot_R\": \"Bip001 R Foot\", \"Boot_toe_L\": \"Bip001 L Foot\", \"Boot_toe_R\": \"Bip001 R Foot\", \"Bracer_blade_lower_L\": \"Bip001 L Forearm\", \"Bracer_blade_lower_R\": \"Bip001 R Forearm\", \"Bracer_blade_upper_L\": \"Bip001 L Forearm\", \"Bracer_blade_upper_R\": \"Bip001 R Forearm\", \"Bracer_face_L\": \"Bip001 L Forearm\", \"Bracer_face_R\": \"Bip001 R Forearm\", \"Bracer_mass_L\": \"Bip001 L Forearm\", \"Bracer_mass_R\": \"Bip001 R Forearm\", \"Breastplate_L\": \"Bip001 Spine2\", \"Breastplate_R\": \"Bip001 Spine2\", \"Collar_blade_inner_L\": \"Bip001 Spine2\", \"Collar_blade_inner_R\": \"Bip001 Spine2\", \"Collar_blade_middle_L\": \"Bip001 Spine2\", \"Collar_blade_middle_R\": \"Bip001 Spine2\", \"Collar_blade_outer_L\": \"Bip001 Spine2\", \"Collar_blade_outer_R\": \"Bip001 Spine2\", \"Collar_plate_L\": \"Bip001 Spine2\", \"Collar_plate_R\": \"Bip001 Spine2\", \"Elbow_cuff_L\": \"Bip001 L Forearm\", \"Elbow_cuff_R\": \"Bip001 R Forearm\", \"Eye_L\": \"Bip001 Head\", \"Eye_R\": \"Bip001 Head\", \"Finger_L_0A\": \"Bip001 L Finger1\", \"Finger_L_0B\": \"Bip001 L Finger11\", \"Finger_L_0C\": \"Bip001 L Finger12\", \"Finger_L_1A\": \"Bip001 L Finger2\", \"Finger_L_1B\": \"Bip001 L Finger21\", \"Finger_L_1C\": \"Bip001 L Finger22\", \"Finger_L_2A\": \"Bip001 L Finger3\", \"Finger_L_2B\": \"Bip001 L Finger31\", \"Finger_L_2C\": \"Bip001 L Finger32\", \"Finger_L_3A\": \"Bip001 L Finger4\", \"Finger_L_3B\": \"Bip001 L Finger41\", \"Finger_L_3C\": \"Bip001 L Finger42\", \"Finger_R_0A\": \"Bip001 R Finger1\", \"Finger_R_0B\": \"Bip001 R Finger11\", \"Finger_R_0C\": \"Bip001 R Finger12\", \"Finger_R_1A\": \"Bip001 R Finger2\", \"Finger_R_1B\": \"Bip001 R Finger21\", \"Finger_R_1C\": \"Bip001 R Finger22\", \"Finger_R_2A\": \"Bip001 R Finger3\", \"Finger_R_2B\": \"Bip001 R Finger31\", \"Finger_R_2C\": \"Bip001 R Finger32\", \"Finger_R_3A\": \"Bip001 R Finger4\", \"Finger_R_3B\": \"Bip001 R Finger41\", \"Finger_R_3C\": \"Bip001 R Finger42\", \"Greave_front_L\": \"Bip001 L Calf\", \"Greave_front_R\": \"Bip001 R Calf\", \"Greave_mass_L\": \"Bip001 L Calf\", \"Greave_mass_R\": \"Bip001 R Calf\", \"Hand_back_full_point_L\": \"Bip001 L Hand\", \"Hand_back_full_point_R\": \"Bip001 R Hand\", \"Head_surface\": \"Bip001 Head\", \"Hip_guard_L\": \"Hound L HipGuard\", \"Hip_guard_R\": \"Hound R HipGuard\", \"Knee_shield_L\": \"Bip001 L Calf\", \"Knee_shield_R\": \"Bip001 R Calf\", \"Mouth_shadow\": \"Bip001 Head\", \"Rib_flank_L\": \"Bip001 Spine2\", \"Rib_flank_R\": \"Bip001 Spine2\", \"Sash_tail_L\": \"Bip001 Pelvis\", \"Sash_tail_R\": \"Bip001 Pelvis\", \"Scapula_L\": \"Bip001 Spine2\", \"Scapula_R\": \"Bip001 Spine2\", \"Shin_lower_L\": \"Bip001 L Calf\", \"Shin_lower_R\": \"Bip001 R Calf\", \"Sternum\": \"Bip001 Spine2\", \"Thigh_outer_plate_L\": \"Bip001 L Thigh\", \"Thigh_outer_plate_R\": \"Bip001 R Thigh\", \"Thumb_LA\": \"Bip001 L Finger0\", \"Thumb_LB\": \"Bip001 L Finger01\", \"Thumb_RA\": \"Bip001 R Finger0\", \"Thumb_RB\": \"Bip001 R Finger01\", \"Wrist_transition_L\": \"Bip001 L Hand\", \"Wrist_transition_R\": \"Bip001 R Hand\"}",
				"gloom_soft_parts":"[\"Torso_underlayer\", \"Arm_surface_L\", \"Arm_surface_R\", \"Hand_glove_L\", \"Hand_glove_R\", \"Trousers_continuous\", \"Waist_wrap\", \"Hood_continuous\", \"Neck_surface\"]",
				"gloom_joint_loops":23,
				"gloom_legacy_bone_names":43,
				"gloom_total_bones":53,
				"gloom_arm_surface_rings":37,
				"gloom_arm_surface_sides":32,
				"gloom_arm_projection_max_error_m":"{\"L\": 0.0027626033406704664, \"R\": 0.0027626254595816135}",
				"gloom_revision":"H03: integrated human orbital/cheek/nasal/lip/jaw forms, fitted eyes, deltoid/biceps/triceps/forearm relief",
				"gloom_v06_replaced_parts":"[\"Brow_L\", \"Brow_R\", \"Cheek_L\", \"Cheek_R\", \"Head_planes\", \"Jaw_plane\", \"Leg_continuous_L\", \"Leg_continuous_R\", \"Nose_plane\", \"Pelvis_cloth\", \"Waist_sash\"]",
				"gloom_v08_rebuilt_parts":"[\"Abdominal_plate_1\", \"Abdominal_plate_2\", \"Abdominal_plate_3\", \"Ankle_guard_L\", \"Ankle_guard_R\", \"Back_spine_0\", \"Back_spine_1\", \"Back_spine_2\", \"Boot_toe_L\", \"Boot_toe_R\", \"Bracer_face_L\", \"Bracer_face_R\", \"Breastplate_L\", \"Breastplate_R\", \"Elbow_cuff_L\", \"Elbow_cuff_R\", \"Eye_L\", \"Eye_R\", \"Greave_front_L\", \"Greave_front_R\", \"Hand_back_full_point_L\", \"Hand_back_full_point_R\", \"Hip_guard_L\", \"Hip_guard_R\", \"Knee_shield_L\", \"Knee_shield_R\", \"Mouth_shadow\", \"Rib_flank_L\", \"Rib_flank_R\", \"Sash_tail_L\", \"Sash_tail_R\", \"Scapula_L\", \"Scapula_R\", \"Shin_lower_L\", \"Shin_lower_R\", \"Sternum\", \"Thigh_outer_plate_L\", \"Thigh_outer_plate_R\"]",
				"gloom_v08_morphed_parts":"[\"Arm_surface_L\", \"Arm_surface_R\", \"Head_surface\", \"Trousers_continuous\", \"Waist_wrap\"]",
				"gloom_v09_rebuilt_parts":"[\"Bracer_mass_L\", \"Bracer_mass_R\", \"Finger_L_0A\", \"Finger_L_0B\", \"Finger_L_0C\", \"Finger_L_1A\", \"Finger_L_1B\", \"Finger_L_1C\", \"Finger_L_2A\", \"Finger_L_2B\", \"Finger_L_2C\", \"Finger_L_3A\", \"Finger_L_3B\", \"Finger_L_3C\", \"Finger_R_0A\", \"Finger_R_0B\", \"Finger_R_0C\", \"Finger_R_1A\", \"Finger_R_1B\", \"Finger_R_1C\", \"Finger_R_2A\", \"Finger_R_2B\", \"Finger_R_2C\", \"Finger_R_3A\", \"Finger_R_3B\", \"Finger_R_3C\", \"Thumb_LA\", \"Thumb_LB\", \"Thumb_RA\", \"Thumb_RB\", \"Wrist_transition_L\", \"Wrist_transition_R\"]",
				"gloom_v09_morphed_parts":"[\"Hand_glove_L\", \"Hand_glove_R\", \"Bracer_face_L\", \"Bracer_face_R\"]",
				"gloom_v10_rebuilt_parts":"[\"Ankle_guard_L\", \"Ankle_guard_R\", \"Boot_L\", \"Boot_R\", \"Boot_toe_L\", \"Boot_toe_R\", \"Greave_front_L\", \"Greave_front_R\", \"Greave_mass_L\", \"Greave_mass_R\", \"Knee_shield_L\", \"Knee_shield_R\", \"Shin_lower_L\", \"Shin_lower_R\"]",
				"gloom_v10_morphed_parts":"[\"Trousers_continuous\"]",
				"gloom_v11_rebuilt_parts":"[\"Eye_L\", \"Eye_R\", \"Head_surface\", \"Mouth_shadow\"]",
				"gloom_v11_morphed_parts":"[\"Arm_surface_L\", \"Arm_surface_R\"]"
			},
			"name":"Hound_Mesh_v11",
			"nodes":[
				54
			]
		}
	],
	"nodes":[
		{
			"name":"Bip001 Head",
			"rotation":[
				-0.0443134680390358,
				-8.962869202377988e-08,
				-3.97566513044012e-09,
				0.9990177154541016
			],
			"scale":[
				1,
				0.9999999403953552,
				1
			],
			"translation":[
				-3.5537788756712324e-16,
				0.09035469591617584,
				1.257285475730896e-08
			]
		},
		{
			"children":[
				0
			],
			"name":"Bip001 Neck",
			"rotation":[
				0.06427298486232758,
				7.466098850272829e-08,
				6.724111933920085e-09,
				0.9979323744773865
			],
			"scale":[
				1,
				0.9999999403953552,
				1
			],
			"translation":[
				5.444595436052634e-18,
				0.1501198261976242,
				-9.313225746154785e-10
			]
		},
		{
			"name":"Bip001 L Finger12",
			"rotation":[
				-0.003903341246768832,
				-0.004124769009649754,
				-0.07213282585144043,
				0.9973788857460022
			],
			"scale":[
				1,
				0.9999998807907104,
				1
			],
			"translation":[
				-7.566513637868866e-09,
				0.034781672060489655,
				-3.725290298461914e-09
			]
		},
		{
			"children":[
				2
			],
			"name":"Bip001 L Finger11",
			"rotation":[
				-0.006395216565579176,
				-0.011210494674742222,
				-0.16578304767608643,
				0.9860777854919434
			],
			"scale":[
				1,
				1.0000001192092896,
				1
			],
			"translation":[
				1.1458123339025406e-08,
				0.03195297345519066,
				-1.30385160446167e-08
			]
		},
		{
			"children":[
				3
			],
			"name":"Bip001 L Finger1",
			"rotation":[
				-0.0023762842174619436,
				-0.013384154997766018,
				-0.17480316758155823,
				0.9845095872879028
			],
			"scale":[
				0.9999998807907104,
				1,
				1
			],
			"translation":[
				0.0010000111069530249,
				0.10300008207559586,
				0.03400000184774399
			]
		},
		{
			"name":"Bip001 L Finger22",
			"rotation":[
				-0.004907794296741486,
				-0.006380921695381403,
				-0.10252230614423752,
				0.994698166847229
			],
			"scale":[
				0.9999998807907104,
				1,
				0.9999999403953552
			],
			"translation":[
				-4.627464988971042e-08,
				0.0419343039393425,
				-5.587935447692871e-09
			]
		},
		{
			"children":[
				5
			],
			"name":"Bip001 L Finger21",
			"rotation":[
				-0.0034382850863039494,
				-0.007079976610839367,
				-0.10018982738256454,
				0.9949371814727783
			],
			"scale":[
				1.0000001192092896,
				0.9999999403953552,
				1
			],
			"translation":[
				-2.514253694130275e-09,
				0.031953033059835434,
				8.847564458847046e-09
			]
		},
		{
			"children":[
				6
			],
			"name":"Bip001 L Finger2",
			"rotation":[
				-0.002376339863985777,
				-0.013384144753217697,
				-0.17480316758155823,
				0.9845095872879028
			],
			"scale":[
				0.9999998807907104,
				1,
				1
			],
			"translation":[
				0.0009999979520216584,
				0.10300007462501526,
				0.010999998077750206
			]
		},
		{
			"name":"Bip001 L Finger32",
			"rotation":[
				-0.004563592839986086,
				-0.00538504496216774,
				-0.08978781849145889,
				0.9959359169006348
			],
			"scale":[
				0.9999999403953552,
				1,
				0.9999998807907104
			],
			"translation":[
				1.301315855073426e-08,
				0.03827463090419769,
				9.313225746154785e-10
			]
		},
		{
			"children":[
				8
			],
			"name":"Bip001 L Finger31",
			"rotation":[
				-0.0047185891307890415,
				-0.009016207419335842,
				-0.12999926507472992,
				0.9914618730545044
			],
			"translation":[
				6.319407930277521e-08,
				0.031952984631061554,
				8.847564458847046e-09
			]
		},
		{
			"children":[
				9
			],
			"name":"Bip001 L Finger3",
			"rotation":[
				-0.0023763892240822315,
				-0.013384198769927025,
				-0.1748029887676239,
				0.9845095872879028
			],
			"scale":[
				0.9999998807907104,
				1,
				1
			],
			"translation":[
				0.0010000145994126797,
				0.10300004482269287,
				-0.013000003062188625
			]
		},
		{
			"name":"Bip001 L Finger42",
			"rotation":[
				-0.0005840787198394537,
				-0.0004534721956588328,
				-0.009368806146085262,
				0.9999558329582214
			],
			"translation":[
				-1.1956865719753296e-08,
				0.02808021754026413,
				-3.725290298461914e-09
			]
		},
		{
			"children":[
				11
			],
			"name":"Bip001 L Finger41",
			"rotation":[
				-0.012053760699927807,
				-0.01666337437927723,
				-0.2706924080848694,
				0.9624462127685547
			],
			"translation":[
				-5.7716924573014694e-08,
				0.031953029334545135,
				7.450580596923828e-09
			]
		},
		{
			"children":[
				12
			],
			"name":"Bip001 L Finger4",
			"rotation":[
				-0.002376355929300189,
				-0.01338424626737833,
				-0.17480313777923584,
				0.9845095872879028
			],
			"scale":[
				0.9999999403953552,
				1,
				1
			],
			"translation":[
				0.0009999864269047976,
				0.10300005227327347,
				-0.03500000387430191
			]
		},
		{
			"name":"Bip001 L Finger01",
			"rotation":[
				-0.5623898506164551,
				-0.03401411324739456,
				-0.1276218146085739,
				0.8162557482719421
			],
			"scale":[
				0.9999999403953552,
				0.9999999403953552,
				1
			],
			"translation":[
				1.0374923142819625e-08,
				0.05072478577494621,
				-5.960464477539063e-08
			]
		},
		{
			"children":[
				14
			],
			"name":"Bip001 L Finger0",
			"rotation":[
				0.3769427537918091,
				-0.07690002769231796,
				-0.15090282261371613,
				0.9106200933456421
			],
			"scale":[
				0.9999999403953552,
				0.9999998807907104,
				0.9999999403953552
			],
			"translation":[
				0.0070000081323087215,
				0.038999997079372406,
				0.04399999976158142
			]
		},
		{
			"children":[
				4,
				7,
				10,
				13,
				15
			],
			"name":"Bip001 L Hand",
			"rotation":[
				-0.013932574540376663,
				-0.007437354419380426,
				-0.07990530133247375,
				0.9966773390769958
			],
			"scale":[
				1,
				1,
				0.9999999403953552
			],
			"translation":[
				-3.2186504572706554e-09,
				0.2627013027667999,
				-8.381903171539307e-09
			]
		},
		{
			"children":[
				16
			],
			"name":"Bip001 L Forearm",
			"rotation":[
				0.029204081743955612,
				-0.0033543375320732594,
				-0.043166711926460266,
				0.9986353516578674
			],
			"scale":[
				0.9999998807907104,
				1,
				1
			],
			"translation":[
				-8.921325189703566e-08,
				0.2484593242406845,
				5.587935447692871e-09
			]
		},
		{
			"children":[
				17
			],
			"name":"Bip001 L UpperArm",
			"rotation":[
				0.0039511010982096195,
				-0.020370515063405037,
				-0.4642059803009033,
				0.8854841589927673
			],
			"scale":[
				1,
				1,
				0.9999999403953552
			],
			"translation":[
				1.4884398069625604e-07,
				0.2031378448009491,
				9.313225746154785e-10
			]
		},
		{
			"children":[
				18
			],
			"name":"Bip001 L Clavicle",
			"rotation":[
				0.02513873763382435,
				0.00022680791153106838,
				-0.7736482620239258,
				0.6331164240837097
			],
			"scale":[
				0.9999999403953552,
				1,
				0.9999999403953552
			],
			"translation":[
				0.07500000298023224,
				0.1571141928434372,
				0.0002797780616674572
			]
		},
		{
			"name":"Bip001 R Finger12",
			"rotation":[
				-0.0039033389184623957,
				0.00412477133795619,
				0.07213287055492401,
				0.9973788857460022
			],
			"scale":[
				0.9999999403953552,
				0.9999998211860657,
				0.9999999403953552
			],
			"translation":[
				7.2592154509720785e-09,
				0.03478170186281204,
				-1.210719347000122e-08
			]
		},
		{
			"children":[
				20
			],
			"name":"Bip001 R Finger11",
			"rotation":[
				-0.006395164877176285,
				0.011210489086806774,
				0.16578301787376404,
				0.9860777854919434
			],
			"scale":[
				1,
				1.000000238418579,
				1
			],
			"translation":[
				-1.1308425307277048e-08,
				0.03195296600461006,
				-1.30385160446167e-08
			]
		},
		{
			"children":[
				21
			],
			"name":"Bip001 R Finger1",
			"rotation":[
				-0.0023763426579535007,
				0.01338414940983057,
				0.17480316758155823,
				0.9845095872879028
			],
			"scale":[
				0.9999998807907104,
				1,
				1
			],
			"translation":[
				-0.0010000111069530249,
				0.10300008207559586,
				0.034000005573034286
			]
		},
		{
			"name":"Bip001 R Finger22",
			"rotation":[
				-0.004907796159386635,
				0.006380922626703978,
				0.10252230614423752,
				0.994698166847229
			],
			"scale":[
				0.9999998807907104,
				1,
				0.9999999403953552
			],
			"translation":[
				4.616242321731079e-08,
				0.0419343039393425,
				-5.587935447692871e-09
			]
		},
		{
			"children":[
				23
			],
			"name":"Bip001 R Finger21",
			"rotation":[
				-0.0034382862504571676,
				0.0070799789391458035,
				0.10018982738256454,
				0.9949371814727783
			],
			"scale":[
				1.0000001192092896,
				0.9999999403953552,
				1
			],
			"translation":[
				2.5677484583042087e-09,
				0.03195303678512573,
				-2.3283064365386963e-09
			]
		},
		{
			"children":[
				24
			],
			"name":"Bip001 R Finger2",
			"rotation":[
				-0.0023763426579535007,
				0.01338414940983057,
				0.17480316758155823,
				0.9845095872879028
			],
			"scale":[
				0.9999998807907104,
				1,
				1
			],
			"translation":[
				-0.0009999979520216584,
				0.10300007462501526,
				0.010999990627169609
			]
		},
		{
			"name":"Bip001 R Finger32",
			"rotation":[
				-0.004563587252050638,
				0.005385047290474176,
				0.08978782594203949,
				0.99593585729599
			],
			"scale":[
				1,
				1.0000001192092896,
				1
			],
			"translation":[
				-2.046373914765809e-08,
				0.03827457129955292,
				0
			]
		},
		{
			"children":[
				26
			],
			"name":"Bip001 R Finger31",
			"rotation":[
				-0.004718583542853594,
				0.009016207419335842,
				0.12999922037124634,
				0.9914618730545044
			],
			"scale":[
				0.9999999403953552,
				0.9999998807907104,
				0.9999999403953552
			],
			"translation":[
				-3.323568975588387e-08,
				0.031953029334545135,
				-6.05359673500061e-09
			]
		},
		{
			"children":[
				27
			],
			"name":"Bip001 R Finger3",
			"rotation":[
				-0.0023764062207192183,
				0.013384200632572174,
				0.1748030185699463,
				0.9845095872879028
			],
			"scale":[
				0.9999998807907104,
				1,
				1
			],
			"translation":[
				-0.0010000145994126797,
				0.10300004482269287,
				-0.013000008650124073
			]
		},
		{
			"name":"Bip001 R Finger42",
			"rotation":[
				-0.0005840772646479309,
				0.0004534683539532125,
				0.00936876144260168,
				0.9999558329582214
			],
			"scale":[
				1,
				1.0000001192092896,
				1.0000001192092896
			],
			"translation":[
				7.153737868748067e-08,
				0.02808021754026413,
				0
			]
		},
		{
			"children":[
				29
			],
			"name":"Bip001 R Finger41",
			"rotation":[
				-0.012053769081830978,
				0.016663381829857826,
				0.2706924080848694,
				0.9624462127685547
			],
			"scale":[
				1,
				1,
				1.0000001192092896
			],
			"translation":[
				2.791460218531938e-08,
				0.031953033059835434,
				4.656612873077393e-10
			]
		},
		{
			"children":[
				30
			],
			"name":"Bip001 R Finger4",
			"rotation":[
				-0.002376358490437269,
				0.013384249992668629,
				0.17480313777923584,
				0.9845095872879028
			],
			"scale":[
				0.9999999403953552,
				1,
				1
			],
			"translation":[
				-0.0009999864269047976,
				0.10300005227327347,
				-0.03500001132488251
			]
		},
		{
			"name":"Bip001 R Finger01",
			"rotation":[
				-0.5623898506164551,
				0.03401410952210426,
				0.1276218295097351,
				0.8162557482719421
			],
			"scale":[
				0.9999999403953552,
				0.9999999403953552,
				1
			],
			"translation":[
				5.431485483597953e-09,
				0.05072478577494621,
				5.960464477539063e-08
			]
		},
		{
			"children":[
				32
			],
			"name":"Bip001 R Finger0",
			"rotation":[
				0.3769427537918091,
				0.07690002024173737,
				0.15090282261371613,
				0.9106200933456421
			],
			"scale":[
				0.9999999403953552,
				0.9999999403953552,
				0.9999999403953552
			],
			"translation":[
				-0.0070000081323087215,
				0.038999997079372406,
				0.043999988585710526
			]
		},
		{
			"children":[
				22,
				25,
				28,
				31,
				33
			],
			"name":"Bip001 R Hand",
			"rotation":[
				-0.013932563364505768,
				0.007437354419380426,
				0.07990530133247375,
				0.9966773390769958
			],
			"scale":[
				1,
				1,
				0.9999999403953552
			],
			"translation":[
				3.2186500131814455e-09,
				0.2627013027667999,
				1.862645149230957e-09
			]
		},
		{
			"children":[
				34
			],
			"name":"Bip001 R Forearm",
			"rotation":[
				0.02920408360660076,
				0.0033543375320732594,
				0.043166711926460266,
				0.9986353516578674
			],
			"scale":[
				0.9999998807907104,
				1,
				1
			],
			"translation":[
				8.918345173469788e-08,
				0.2484593242406845,
				5.587935447692871e-09
			]
		},
		{
			"children":[
				35
			],
			"name":"Bip001 R UpperArm",
			"rotation":[
				0.0039511024951934814,
				0.020370518788695335,
				0.4642059803009033,
				0.8854841589927673
			],
			"scale":[
				1,
				1,
				0.9999999403953552
			],
			"translation":[
				-1.4884024324146594e-07,
				0.2031378448009491,
				9.313225746154785e-10
			]
		},
		{
			"children":[
				36
			],
			"name":"Bip001 R Clavicle",
			"rotation":[
				0.02513871341943741,
				-0.0002268283860757947,
				0.7736482620239258,
				0.6331164240837097
			],
			"scale":[
				0.9999999403953552,
				1,
				0.9999999403953552
			],
			"translation":[
				-0.07500000298023224,
				0.1571141928434372,
				0.0002797735796775669
			]
		},
		{
			"children":[
				1,
				19,
				37
			],
			"name":"Bip001 Spine2",
			"rotation":[
				-0.016655299812555313,
				-5.819959270070285e-08,
				-1.4658322333716e-09,
				0.9998612999916077
			],
			"translation":[
				-2.7755575615628914e-17,
				0.1500033736228943,
				-4.656612873077393e-10
			]
		},
		{
			"children":[
				38
			],
			"name":"Bip001 Spine1",
			"rotation":[
				-0.02255266346037388,
				-1.2346695221765458e-08,
				-3.5761189565164386e-09,
				0.9997456669807434
			],
			"scale":[
				1,
				1,
				0.9999999403953552
			],
			"translation":[
				5.551115123125783e-17,
				0.13009607791900635,
				-2.3283064365386963e-09
			]
		},
		{
			"children":[
				39
			],
			"name":"Bip001 Spine",
			"rotation":[
				0.019220110028982162,
				8.544287766198977e-08,
				1.642525004896811e-09,
				0.9998152852058411
			],
			"scale":[
				1,
				0.9999998807907104,
				1
			],
			"translation":[
				0,
				0.09399998188018799,
				0
			]
		},
		{
			"name":"Bip001 L Toe0",
			"rotation":[
				0.25647684931755066,
				-0.02384323626756668,
				-0.006328906398266554,
				0.9662355184555054
			],
			"translation":[
				7.916346689285092e-09,
				0.16352662444114685,
				-5.587935447692871e-09
			]
		},
		{
			"children":[
				41
			],
			"name":"Bip001 L Foot",
			"rotation":[
				0.5195085406303406,
				-0.0019730820786207914,
				-0.003564088139683008,
				0.8544555306434631
			],
			"translation":[
				5.187457574606924e-09,
				0.41803598403930664,
				1.6880221664905548e-09
			]
		},
		{
			"children":[
				42
			],
			"name":"Bip001 L Calf",
			"rotation":[
				-0.03970195725560188,
				3.5111719626002014e-05,
				-0.03743559867143631,
				0.9985100626945496
			],
			"scale":[
				0.9999999403953552,
				1,
				0.9999998807907104
			],
			"translation":[
				5.8206661712745245e-11,
				0.3866715133190155,
				-2.6775524020195007e-09
			]
		},
		{
			"children":[
				43
			],
			"name":"Bip001 L Thigh",
			"rotation":[
				0.001280803233385086,
				-0.019357645884156227,
				-0.9976224899291992,
				0.06612881273031235
			],
			"scale":[
				1.000016212463379,
				1.0000001192092896,
				1.000001311302185
			],
			"translation":[
				0.12200000137090683,
				0,
				0
			]
		},
		{
			"name":"Hound L HipGuard",
			"rotation":[
				3.350337607344045e-08,
				1.987232156608343e-09,
				-0.9982455372810364,
				0.05921020358800888
			],
			"scale":[
				1.0000041723251343,
				1,
				1
			],
			"translation":[
				0.1899999976158142,
				0.04400002956390381,
				0.009999999776482582
			]
		},
		{
			"name":"Bip001 R Toe0",
			"rotation":[
				0.25647684931755066,
				0.02384323626756668,
				0.006328906398266554,
				0.9662355184555054
			],
			"translation":[
				-7.916346689285092e-09,
				0.16352662444114685,
				-5.587935447692871e-09
			]
		},
		{
			"children":[
				46
			],
			"name":"Bip001 R Foot",
			"rotation":[
				0.5195085406303406,
				0.0019730820786207914,
				0.003564088139683008,
				0.8544555306434631
			],
			"translation":[
				-5.187457574606924e-09,
				0.41803598403930664,
				1.6880221664905548e-09
			]
		},
		{
			"children":[
				47
			],
			"name":"Bip001 R Calf",
			"rotation":[
				-0.03970195725560188,
				-3.5111719626002014e-05,
				0.03743559867143631,
				0.9985100626945496
			],
			"scale":[
				0.9999999403953552,
				1,
				0.9999998807907104
			],
			"translation":[
				-5.8206661712745245e-11,
				0.3866715133190155,
				-2.6775524020195007e-09
			]
		},
		{
			"children":[
				48
			],
			"name":"Bip001 R Thigh",
			"rotation":[
				0.001280803233385086,
				0.019357645884156227,
				0.9976224899291992,
				0.06612881273031235
			],
			"scale":[
				1.000016212463379,
				1.0000001192092896,
				1.000001311302185
			],
			"translation":[
				-0.12200000137090683,
				0,
				0
			]
		},
		{
			"name":"Hound R HipGuard",
			"rotation":[
				3.350337607344045e-08,
				-1.987232156608343e-09,
				0.9982455372810364,
				0.05921020358800888
			],
			"scale":[
				1.0000041723251343,
				1,
				1
			],
			"translation":[
				-0.1899999976158142,
				0.04400002956390381,
				0.009999999776482582
			]
		},
		{
			"children":[
				40,
				44,
				45,
				49,
				50
			],
			"name":"Bip001 Pelvis",
			"translation":[
				0,
				0.9459999799728394,
				-0.009999999776482582
			]
		},
		{
			"children":[
				51
			],
			"name":"Bip001"
		},
		{
			"mesh":0,
			"name":"H11_DeformMesh",
			"skin":0
		},
		{
			"children":[
				53,
				52
			],
			"extras":{
				"gloom_rig_compatibility":"43 legacy names retained; changed rest axes, lengths and parentage require retargeting, not direct clip copying",
				"gloom_controls":"FK pose bones; bone collections Body/Arms/Legs/Fingers/Armor; root motion intentionally zero in diagnostic clip"
			},
			"name":"Hound11_Rig"
		}
	],
	"animations":[
		{
			"channels":[
				{
					"sampler":0,
					"target":{
						"node":52,
						"path":"translation"
					}
				},
				{
					"sampler":1,
					"target":{
						"node":52,
						"path":"rotation"
					}
				},
				{
					"sampler":2,
					"target":{
						"node":52,
						"path":"scale"
					}
				},
				{
					"sampler":3,
					"target":{
						"node":51,
						"path":"translation"
					}
				},
				{
					"sampler":4,
					"target":{
						"node":51,
						"path":"rotation"
					}
				},
				{
					"sampler":5,
					"target":{
						"node":51,
						"path":"scale"
					}
				},
				{
					"sampler":6,
					"target":{
						"node":40,
						"path":"translation"
					}
				},
				{
					"sampler":7,
					"target":{
						"node":40,
						"path":"rotation"
					}
				},
				{
					"sampler":8,
					"target":{
						"node":40,
						"path":"scale"
					}
				},
				{
					"sampler":9,
					"target":{
						"node":39,
						"path":"translation"
					}
				},
				{
					"sampler":10,
					"target":{
						"node":39,
						"path":"rotation"
					}
				},
				{
					"sampler":11,
					"target":{
						"node":39,
						"path":"scale"
					}
				},
				{
					"sampler":12,
					"target":{
						"node":38,
						"path":"translation"
					}
				},
				{
					"sampler":13,
					"target":{
						"node":38,
						"path":"rotation"
					}
				},
				{
					"sampler":14,
					"target":{
						"node":38,
						"path":"scale"
					}
				},
				{
					"sampler":15,
					"target":{
						"node":1,
						"path":"translation"
					}
				},
				{
					"sampler":16,
					"target":{
						"node":1,
						"path":"rotation"
					}
				},
				{
					"sampler":17,
					"target":{
						"node":1,
						"path":"scale"
					}
				},
				{
					"sampler":18,
					"target":{
						"node":0,
						"path":"translation"
					}
				},
				{
					"sampler":19,
					"target":{
						"node":0,
						"path":"rotation"
					}
				},
				{
					"sampler":20,
					"target":{
						"node":0,
						"path":"scale"
					}
				},
				{
					"sampler":21,
					"target":{
						"node":19,
						"path":"translation"
					}
				},
				{
					"sampler":22,
					"target":{
						"node":19,
						"path":"rotation"
					}
				},
				{
					"sampler":23,
					"target":{
						"node":19,
						"path":"scale"
					}
				},
				{
					"sampler":24,
					"target":{
						"node":18,
						"path":"translation"
					}
				},
				{
					"sampler":25,
					"target":{
						"node":18,
						"path":"rotation"
					}
				},
				{
					"sampler":26,
					"target":{
						"node":18,
						"path":"scale"
					}
				},
				{
					"sampler":27,
					"target":{
						"node":17,
						"path":"translation"
					}
				},
				{
					"sampler":28,
					"target":{
						"node":17,
						"path":"rotation"
					}
				},
				{
					"sampler":29,
					"target":{
						"node":17,
						"path":"scale"
					}
				},
				{
					"sampler":30,
					"target":{
						"node":16,
						"path":"translation"
					}
				},
				{
					"sampler":31,
					"target":{
						"node":16,
						"path":"rotation"
					}
				},
				{
					"sampler":32,
					"target":{
						"node":16,
						"path":"scale"
					}
				},
				{
					"sampler":33,
					"target":{
						"node":4,
						"path":"translation"
					}
				},
				{
					"sampler":34,
					"target":{
						"node":4,
						"path":"rotation"
					}
				},
				{
					"sampler":35,
					"target":{
						"node":4,
						"path":"scale"
					}
				},
				{
					"sampler":36,
					"target":{
						"node":3,
						"path":"translation"
					}
				},
				{
					"sampler":37,
					"target":{
						"node":3,
						"path":"rotation"
					}
				},
				{
					"sampler":38,
					"target":{
						"node":3,
						"path":"scale"
					}
				},
				{
					"sampler":39,
					"target":{
						"node":2,
						"path":"translation"
					}
				},
				{
					"sampler":40,
					"target":{
						"node":2,
						"path":"rotation"
					}
				},
				{
					"sampler":41,
					"target":{
						"node":2,
						"path":"scale"
					}
				},
				{
					"sampler":42,
					"target":{
						"node":7,
						"path":"translation"
					}
				},
				{
					"sampler":43,
					"target":{
						"node":7,
						"path":"rotation"
					}
				},
				{
					"sampler":44,
					"target":{
						"node":7,
						"path":"scale"
					}
				},
				{
					"sampler":45,
					"target":{
						"node":6,
						"path":"translation"
					}
				},
				{
					"sampler":46,
					"target":{
						"node":6,
						"path":"rotation"
					}
				},
				{
					"sampler":47,
					"target":{
						"node":6,
						"path":"scale"
					}
				},
				{
					"sampler":48,
					"target":{
						"node":5,
						"path":"translation"
					}
				},
				{
					"sampler":49,
					"target":{
						"node":5,
						"path":"rotation"
					}
				},
				{
					"sampler":50,
					"target":{
						"node":5,
						"path":"scale"
					}
				},
				{
					"sampler":51,
					"target":{
						"node":10,
						"path":"translation"
					}
				},
				{
					"sampler":52,
					"target":{
						"node":10,
						"path":"rotation"
					}
				},
				{
					"sampler":53,
					"target":{
						"node":10,
						"path":"scale"
					}
				},
				{
					"sampler":54,
					"target":{
						"node":9,
						"path":"translation"
					}
				},
				{
					"sampler":55,
					"target":{
						"node":9,
						"path":"rotation"
					}
				},
				{
					"sampler":56,
					"target":{
						"node":9,
						"path":"scale"
					}
				},
				{
					"sampler":57,
					"target":{
						"node":8,
						"path":"translation"
					}
				},
				{
					"sampler":58,
					"target":{
						"node":8,
						"path":"rotation"
					}
				},
				{
					"sampler":59,
					"target":{
						"node":8,
						"path":"scale"
					}
				},
				{
					"sampler":60,
					"target":{
						"node":13,
						"path":"translation"
					}
				},
				{
					"sampler":61,
					"target":{
						"node":13,
						"path":"rotation"
					}
				},
				{
					"sampler":62,
					"target":{
						"node":13,
						"path":"scale"
					}
				},
				{
					"sampler":63,
					"target":{
						"node":12,
						"path":"translation"
					}
				},
				{
					"sampler":64,
					"target":{
						"node":12,
						"path":"rotation"
					}
				},
				{
					"sampler":65,
					"target":{
						"node":12,
						"path":"scale"
					}
				},
				{
					"sampler":66,
					"target":{
						"node":11,
						"path":"translation"
					}
				},
				{
					"sampler":67,
					"target":{
						"node":11,
						"path":"rotation"
					}
				},
				{
					"sampler":68,
					"target":{
						"node":11,
						"path":"scale"
					}
				},
				{
					"sampler":69,
					"target":{
						"node":15,
						"path":"translation"
					}
				},
				{
					"sampler":70,
					"target":{
						"node":15,
						"path":"rotation"
					}
				},
				{
					"sampler":71,
					"target":{
						"node":15,
						"path":"scale"
					}
				},
				{
					"sampler":72,
					"target":{
						"node":14,
						"path":"translation"
					}
				},
				{
					"sampler":73,
					"target":{
						"node":14,
						"path":"rotation"
					}
				},
				{
					"sampler":74,
					"target":{
						"node":14,
						"path":"scale"
					}
				},
				{
					"sampler":75,
					"target":{
						"node":37,
						"path":"translation"
					}
				},
				{
					"sampler":76,
					"target":{
						"node":37,
						"path":"rotation"
					}
				},
				{
					"sampler":77,
					"target":{
						"node":37,
						"path":"scale"
					}
				},
				{
					"sampler":78,
					"target":{
						"node":36,
						"path":"translation"
					}
				},
				{
					"sampler":79,
					"target":{
						"node":36,
						"path":"rotation"
					}
				},
				{
					"sampler":80,
					"target":{
						"node":36,
						"path":"scale"
					}
				},
				{
					"sampler":81,
					"target":{
						"node":35,
						"path":"translation"
					}
				},
				{
					"sampler":82,
					"target":{
						"node":35,
						"path":"rotation"
					}
				},
				{
					"sampler":83,
					"target":{
						"node":35,
						"path":"scale"
					}
				},
				{
					"sampler":84,
					"target":{
						"node":34,
						"path":"translation"
					}
				},
				{
					"sampler":85,
					"target":{
						"node":34,
						"path":"rotation"
					}
				},
				{
					"sampler":86,
					"target":{
						"node":34,
						"path":"scale"
					}
				},
				{
					"sampler":87,
					"target":{
						"node":22,
						"path":"translation"
					}
				},
				{
					"sampler":88,
					"target":{
						"node":22,
						"path":"rotation"
					}
				},
				{
					"sampler":89,
					"target":{
						"node":22,
						"path":"scale"
					}
				},
				{
					"sampler":90,
					"target":{
						"node":21,
						"path":"translation"
					}
				},
				{
					"sampler":91,
					"target":{
						"node":21,
						"path":"rotation"
					}
				},
				{
					"sampler":92,
					"target":{
						"node":21,
						"path":"scale"
					}
				},
				{
					"sampler":93,
					"target":{
						"node":20,
						"path":"translation"
					}
				},
				{
					"sampler":94,
					"target":{
						"node":20,
						"path":"rotation"
					}
				},
				{
					"sampler":95,
					"target":{
						"node":20,
						"path":"scale"
					}
				},
				{
					"sampler":96,
					"target":{
						"node":25,
						"path":"translation"
					}
				},
				{
					"sampler":97,
					"target":{
						"node":25,
						"path":"rotation"
					}
				},
				{
					"sampler":98,
					"target":{
						"node":25,
						"path":"scale"
					}
				},
				{
					"sampler":99,
					"target":{
						"node":24,
						"path":"translation"
					}
				},
				{
					"sampler":100,
					"target":{
						"node":24,
						"path":"rotation"
					}
				},
				{
					"sampler":101,
					"target":{
						"node":24,
						"path":"scale"
					}
				},
				{
					"sampler":102,
					"target":{
						"node":23,
						"path":"translation"
					}
				},
				{
					"sampler":103,
					"target":{
						"node":23,
						"path":"rotation"
					}
				},
				{
					"sampler":104,
					"target":{
						"node":23,
						"path":"scale"
					}
				},
				{
					"sampler":105,
					"target":{
						"node":28,
						"path":"translation"
					}
				},
				{
					"sampler":106,
					"target":{
						"node":28,
						"path":"rotation"
					}
				},
				{
					"sampler":107,
					"target":{
						"node":28,
						"path":"scale"
					}
				},
				{
					"sampler":108,
					"target":{
						"node":27,
						"path":"translation"
					}
				},
				{
					"sampler":109,
					"target":{
						"node":27,
						"path":"rotation"
					}
				},
				{
					"sampler":110,
					"target":{
						"node":27,
						"path":"scale"
					}
				},
				{
					"sampler":111,
					"target":{
						"node":26,
						"path":"translation"
					}
				},
				{
					"sampler":112,
					"target":{
						"node":26,
						"path":"rotation"
					}
				},
				{
					"sampler":113,
					"target":{
						"node":26,
						"path":"scale"
					}
				},
				{
					"sampler":114,
					"target":{
						"node":31,
						"path":"translation"
					}
				},
				{
					"sampler":115,
					"target":{
						"node":31,
						"path":"rotation"
					}
				},
				{
					"sampler":116,
					"target":{
						"node":31,
						"path":"scale"
					}
				},
				{
					"sampler":117,
					"target":{
						"node":30,
						"path":"translation"
					}
				},
				{
					"sampler":118,
					"target":{
						"node":30,
						"path":"rotation"
					}
				},
				{
					"sampler":119,
					"target":{
						"node":30,
						"path":"scale"
					}
				},
				{
					"sampler":120,
					"target":{
						"node":29,
						"path":"translation"
					}
				},
				{
					"sampler":121,
					"target":{
						"node":29,
						"path":"rotation"
					}
				},
				{
					"sampler":122,
					"target":{
						"node":29,
						"path":"scale"
					}
				},
				{
					"sampler":123,
					"target":{
						"node":33,
						"path":"translation"
					}
				},
				{
					"sampler":124,
					"target":{
						"node":33,
						"path":"rotation"
					}
				},
				{
					"sampler":125,
					"target":{
						"node":33,
						"path":"scale"
					}
				},
				{
					"sampler":126,
					"target":{
						"node":32,
						"path":"translation"
					}
				},
				{
					"sampler":127,
					"target":{
						"node":32,
						"path":"rotation"
					}
				},
				{
					"sampler":128,
					"target":{
						"node":32,
						"path":"scale"
					}
				},
				{
					"sampler":129,
					"target":{
						"node":44,
						"path":"translation"
					}
				},
				{
					"sampler":130,
					"target":{
						"node":44,
						"path":"rotation"
					}
				},
				{
					"sampler":131,
					"target":{
						"node":44,
						"path":"scale"
					}
				},
				{
					"sampler":132,
					"target":{
						"node":43,
						"path":"translation"
					}
				},
				{
					"sampler":133,
					"target":{
						"node":43,
						"path":"rotation"
					}
				},
				{
					"sampler":134,
					"target":{
						"node":43,
						"path":"scale"
					}
				},
				{
					"sampler":135,
					"target":{
						"node":42,
						"path":"translation"
					}
				},
				{
					"sampler":136,
					"target":{
						"node":42,
						"path":"rotation"
					}
				},
				{
					"sampler":137,
					"target":{
						"node":42,
						"path":"scale"
					}
				},
				{
					"sampler":138,
					"target":{
						"node":41,
						"path":"translation"
					}
				},
				{
					"sampler":139,
					"target":{
						"node":41,
						"path":"rotation"
					}
				},
				{
					"sampler":140,
					"target":{
						"node":41,
						"path":"scale"
					}
				},
				{
					"sampler":141,
					"target":{
						"node":45,
						"path":"translation"
					}
				},
				{
					"sampler":142,
					"target":{
						"node":45,
						"path":"rotation"
					}
				},
				{
					"sampler":143,
					"target":{
						"node":45,
						"path":"scale"
					}
				},
				{
					"sampler":144,
					"target":{
						"node":49,
						"path":"translation"
					}
				},
				{
					"sampler":145,
					"target":{
						"node":49,
						"path":"rotation"
					}
				},
				{
					"sampler":146,
					"target":{
						"node":49,
						"path":"scale"
					}
				},
				{
					"sampler":147,
					"target":{
						"node":48,
						"path":"translation"
					}
				},
				{
					"sampler":148,
					"target":{
						"node":48,
						"path":"rotation"
					}
				},
				{
					"sampler":149,
					"target":{
						"node":48,
						"path":"scale"
					}
				},
				{
					"sampler":150,
					"target":{
						"node":47,
						"path":"translation"
					}
				},
				{
					"sampler":151,
					"target":{
						"node":47,
						"path":"rotation"
					}
				},
				{
					"sampler":152,
					"target":{
						"node":47,
						"path":"scale"
					}
				},
				{
					"sampler":153,
					"target":{
						"node":46,
						"path":"translation"
					}
				},
				{
					"sampler":154,
					"target":{
						"node":46,
						"path":"rotation"
					}
				},
				{
					"sampler":155,
					"target":{
						"node":46,
						"path":"scale"
					}
				},
				{
					"sampler":156,
					"target":{
						"node":50,
						"path":"translation"
					}
				},
				{
					"sampler":157,
					"target":{
						"node":50,
						"path":"rotation"
					}
				},
				{
					"sampler":158,
					"target":{
						"node":50,
						"path":"scale"
					}
				}
			],
			"name":"Hound11_joint_check",
			"samplers":[
				{
					"input":36,
					"interpolation":"STEP",
					"output":37
				},
				{
					"input":36,
					"interpolation":"STEP",
					"output":38
				},
				{
					"input":36,
					"interpolation":"STEP",
					"output":39
				},
				{
					"input":36,
					"interpolation":"STEP",
					"output":40
				},
				{
					"input":36,
					"interpolation":"STEP",
					"output":38
				},
				{
					"input":36,
					"interpolation":"STEP",
					"output":39
				},
				{
					"input":36,
					"interpolation":"STEP",
					"output":41
				},
				{
					"input":36,
					"interpolation":"STEP",
					"output":42
				},
				{
					"input":36,
					"interpolation":"STEP",
					"output":43
				},
				{
					"input":36,
					"interpolation":"STEP",
					"output":44
				},
				{
					"input":45,
					"interpolation":"LINEAR",
					"output":46
				},
				{
					"input":36,
					"interpolation":"STEP",
					"output":47
				},
				{
					"input":36,
					"interpolation":"STEP",
					"output":48
				},
				{
					"input":45,
					"interpolation":"LINEAR",
					"output":49
				},
				{
					"input":36,
					"interpolation":"STEP",
					"output":50
				},
				{
					"input":36,
					"interpolation":"STEP",
					"output":51
				},
				{
					"input":36,
					"interpolation":"STEP",
					"output":52
				},
				{
					"input":36,
					"interpolation":"STEP",
					"output":53
				},
				{
					"input":36,
					"interpolation":"STEP",
					"output":54
				},
				{
					"input":45,
					"interpolation":"LINEAR",
					"output":55
				},
				{
					"input":36,
					"interpolation":"STEP",
					"output":53
				},
				{
					"input":36,
					"interpolation":"STEP",
					"output":56
				},
				{
					"input":36,
					"interpolation":"STEP",
					"output":57
				},
				{
					"input":36,
					"interpolation":"STEP",
					"output":58
				},
				{
					"input":36,
					"interpolation":"STEP",
					"output":59
				},
				{
					"input":45,
					"interpolation":"LINEAR",
					"output":60
				},
				{
					"input":36,
					"interpolation":"STEP",
					"output":61
				},
				{
					"input":36,
					"interpolation":"STEP",
					"output":62
				},
				{
					"input":45,
					"interpolation":"LINEAR",
					"output":63
				},
				{
					"input":36,
					"interpolation":"STEP",
					"output":39
				},
				{
					"input":36,
					"interpolation":"STEP",
					"output":64
				},
				{
					"input":36,
					"interpolation":"STEP",
					"output":65
				},
				{
					"input":36,
					"interpolation":"STEP",
					"output":66
				},
				{
					"input":36,
					"interpolation":"STEP",
					"output":67
				},
				{
					"input":45,
					"interpolation":"LINEAR",
					"output":68
				},
				{
					"input":36,
					"interpolation":"STEP",
					"output":69
				},
				{
					"input":36,
					"interpolation":"STEP",
					"output":70
				},
				{
					"input":45,
					"interpolation":"LINEAR",
					"output":71
				},
				{
					"input":36,
					"interpolation":"STEP",
					"output":72
				},
				{
					"input":36,
					"interpolation":"STEP",
					"output":73
				},
				{
					"input":45,
					"interpolation":"LINEAR",
					"output":74
				},
				{
					"input":36,
					"interpolation":"STEP",
					"output":75
				},
				{
					"input":36,
					"interpolation":"STEP",
					"output":76
				},
				{
					"input":45,
					"interpolation":"LINEAR",
					"output":77
				},
				{
					"input":36,
					"interpolation":"STEP",
					"output":69
				},
				{
					"input":36,
					"interpolation":"STEP",
					"output":78
				},
				{
					"input":45,
					"interpolation":"LINEAR",
					"output":79
				},
				{
					"input":36,
					"interpolation":"STEP",
					"output":80
				},
				{
					"input":36,
					"interpolation":"STEP",
					"output":81
				},
				{
					"input":45,
					"interpolation":"LINEAR",
					"output":82
				},
				{
					"input":36,
					"interpolation":"STEP",
					"output":83
				},
				{
					"input":36,
					"interpolation":"STEP",
					"output":84
				},
				{
					"input":45,
					"interpolation":"LINEAR",
					"output":85
				},
				{
					"input":36,
					"interpolation":"STEP",
					"output":69
				},
				{
					"input":36,
					"interpolation":"STEP",
					"output":86
				},
				{
					"input":45,
					"interpolation":"LINEAR",
					"output":87
				},
				{
					"input":36,
					"interpolation":"STEP",
					"output":39
				},
				{
					"input":36,
					"interpolation":"STEP",
					"output":88
				},
				{
					"input":45,
					"interpolation":"LINEAR",
					"output":89
				},
				{
					"input":36,
					"interpolation":"STEP",
					"output":90
				},
				{
					"input":36,
					"interpolation":"STEP",
					"output":91
				},
				{
					"input":45,
					"interpolation":"LINEAR",
					"output":92
				},
				{
					"input":36,
					"interpolation":"STEP",
					"output":93
				},
				{
					"input":36,
					"interpolation":"STEP",
					"output":94
				},
				{
					"input":45,
					"interpolation":"LINEAR",
					"output":95
				},
				{
					"input":36,
					"interpolation":"STEP",
					"output":96
				},
				{
					"input":36,
					"interpolation":"STEP",
					"output":97
				},
				{
					"input":45,
					"interpolation":"LINEAR",
					"output":98
				},
				{
					"input":36,
					"interpolation":"STEP",
					"output":39
				},
				{
					"input":36,
					"interpolation":"STEP",
					"output":99
				},
				{
					"input":36,
					"interpolation":"STEP",
					"output":100
				},
				{
					"input":36,
					"interpolation":"STEP",
					"output":96
				},
				{
					"input":36,
					"interpolation":"STEP",
					"output":101
				},
				{
					"input":36,
					"interpolation":"STEP",
					"output":102
				},
				{
					"input":36,
					"interpolation":"STEP",
					"output":103
				},
				{
					"input":36,
					"interpolation":"STEP",
					"output":104
				},
				{
					"input":36,
					"interpolation":"STEP",
					"output":105
				},
				{
					"input":36,
					"interpolation":"STEP",
					"output":106
				},
				{
					"input":36,
					"interpolation":"STEP",
					"output":107
				},
				{
					"input":45,
					"interpolation":"LINEAR",
					"output":108
				},
				{
					"input":36,
					"interpolation":"STEP",
					"output":61
				},
				{
					"input":36,
					"interpolation":"STEP",
					"output":109
				},
				{
					"input":45,
					"interpolation":"LINEAR",
					"output":110
				},
				{
					"input":36,
					"interpolation":"STEP",
					"output":39
				},
				{
					"input":36,
					"interpolation":"STEP",
					"output":111
				},
				{
					"input":36,
					"interpolation":"STEP",
					"output":112
				},
				{
					"input":36,
					"interpolation":"STEP",
					"output":66
				},
				{
					"input":36,
					"interpolation":"STEP",
					"output":113
				},
				{
					"input":45,
					"interpolation":"LINEAR",
					"output":114
				},
				{
					"input":36,
					"interpolation":"STEP",
					"output":69
				},
				{
					"input":36,
					"interpolation":"STEP",
					"output":115
				},
				{
					"input":45,
					"interpolation":"LINEAR",
					"output":116
				},
				{
					"input":36,
					"interpolation":"STEP",
					"output":117
				},
				{
					"input":36,
					"interpolation":"STEP",
					"output":118
				},
				{
					"input":45,
					"interpolation":"LINEAR",
					"output":119
				},
				{
					"input":36,
					"interpolation":"STEP",
					"output":120
				},
				{
					"input":36,
					"interpolation":"STEP",
					"output":121
				},
				{
					"input":45,
					"interpolation":"LINEAR",
					"output":114
				},
				{
					"input":36,
					"interpolation":"STEP",
					"output":69
				},
				{
					"input":36,
					"interpolation":"STEP",
					"output":122
				},
				{
					"input":45,
					"interpolation":"LINEAR",
					"output":123
				},
				{
					"input":36,
					"interpolation":"STEP",
					"output":75
				},
				{
					"input":36,
					"interpolation":"STEP",
					"output":124
				},
				{
					"input":45,
					"interpolation":"LINEAR",
					"output":125
				},
				{
					"input":36,
					"interpolation":"STEP",
					"output":83
				},
				{
					"input":36,
					"interpolation":"STEP",
					"output":126
				},
				{
					"input":45,
					"interpolation":"LINEAR",
					"output":127
				},
				{
					"input":36,
					"interpolation":"STEP",
					"output":128
				},
				{
					"input":36,
					"interpolation":"STEP",
					"output":129
				},
				{
					"input":45,
					"interpolation":"LINEAR",
					"output":130
				},
				{
					"input":36,
					"interpolation":"STEP",
					"output":120
				},
				{
					"input":36,
					"interpolation":"STEP",
					"output":131
				},
				{
					"input":45,
					"interpolation":"LINEAR",
					"output":132
				},
				{
					"input":36,
					"interpolation":"STEP",
					"output":133
				},
				{
					"input":36,
					"interpolation":"STEP",
					"output":134
				},
				{
					"input":45,
					"interpolation":"LINEAR",
					"output":135
				},
				{
					"input":36,
					"interpolation":"STEP",
					"output":136
				},
				{
					"input":36,
					"interpolation":"STEP",
					"output":137
				},
				{
					"input":45,
					"interpolation":"LINEAR",
					"output":138
				},
				{
					"input":36,
					"interpolation":"STEP",
					"output":139
				},
				{
					"input":36,
					"interpolation":"STEP",
					"output":140
				},
				{
					"input":45,
					"interpolation":"LINEAR",
					"output":141
				},
				{
					"input":36,
					"interpolation":"STEP",
					"output":50
				},
				{
					"input":36,
					"interpolation":"STEP",
					"output":142
				},
				{
					"input":36,
					"interpolation":"STEP",
					"output":143
				},
				{
					"input":36,
					"interpolation":"STEP",
					"output":136
				},
				{
					"input":36,
					"interpolation":"STEP",
					"output":144
				},
				{
					"input":36,
					"interpolation":"STEP",
					"output":145
				},
				{
					"input":36,
					"interpolation":"STEP",
					"output":103
				},
				{
					"input":36,
					"interpolation":"STEP",
					"output":146
				},
				{
					"input":45,
					"interpolation":"LINEAR",
					"output":147
				},
				{
					"input":36,
					"interpolation":"STEP",
					"output":148
				},
				{
					"input":36,
					"interpolation":"STEP",
					"output":149
				},
				{
					"input":45,
					"interpolation":"LINEAR",
					"output":150
				},
				{
					"input":36,
					"interpolation":"STEP",
					"output":151
				},
				{
					"input":36,
					"interpolation":"STEP",
					"output":152
				},
				{
					"input":45,
					"interpolation":"LINEAR",
					"output":153
				},
				{
					"input":36,
					"interpolation":"STEP",
					"output":66
				},
				{
					"input":36,
					"interpolation":"STEP",
					"output":154
				},
				{
					"input":36,
					"interpolation":"STEP",
					"output":155
				},
				{
					"input":36,
					"interpolation":"STEP",
					"output":47
				},
				{
					"input":36,
					"interpolation":"STEP",
					"output":156
				},
				{
					"input":45,
					"interpolation":"LINEAR",
					"output":157
				},
				{
					"input":36,
					"interpolation":"STEP",
					"output":158
				},
				{
					"input":36,
					"interpolation":"STEP",
					"output":159
				},
				{
					"input":36,
					"interpolation":"STEP",
					"output":160
				},
				{
					"input":36,
					"interpolation":"STEP",
					"output":148
				},
				{
					"input":36,
					"interpolation":"STEP",
					"output":161
				},
				{
					"input":36,
					"interpolation":"STEP",
					"output":162
				},
				{
					"input":36,
					"interpolation":"STEP",
					"output":151
				},
				{
					"input":36,
					"interpolation":"STEP",
					"output":163
				},
				{
					"input":36,
					"interpolation":"STEP",
					"output":164
				},
				{
					"input":36,
					"interpolation":"STEP",
					"output":66
				},
				{
					"input":36,
					"interpolation":"STEP",
					"output":165
				},
				{
					"input":36,
					"interpolation":"STEP",
					"output":166
				},
				{
					"input":36,
					"interpolation":"STEP",
					"output":47
				},
				{
					"input":36,
					"interpolation":"STEP",
					"output":167
				},
				{
					"input":36,
					"interpolation":"STEP",
					"output":168
				},
				{
					"input":36,
					"interpolation":"STEP",
					"output":158
				}
			]
		}
	],
	"materials":[
		{
			"name":"Hound11_Undersuit.002",
			"pbrMetallicRoughness":{
				"baseColorFactor":[
					0.054999999701976776,
					0.04699999839067459,
					0.04399999976158142,
					1
				],
				"metallicFactor":0,
				"roughnessFactor":0.699999988079071
			}
		},
		{
			"name":"Hound11_BurgundyCloth.002",
			"pbrMetallicRoughness":{
				"baseColorFactor":[
					0.14499999582767487,
					0.07199999690055847,
					0.052000001072883606,
					1
				],
				"metallicFactor":0,
				"roughnessFactor":0.8799999952316284
			}
		},
		{
			"name":"Hound11_AshSkin.002",
			"pbrMetallicRoughness":{
				"baseColorFactor":[
					0.46000000834465027,
					0.4050000011920929,
					0.3400000035762787,
					1
				],
				"metallicFactor":0,
				"roughnessFactor":0.7799999713897705
			}
		},
		{
			"name":"Hound11_Iron.002",
			"pbrMetallicRoughness":{
				"baseColorFactor":[
					0.11500000208616257,
					0.125,
					0.13500000536441803,
					1
				],
				"metallicFactor":0.6499999761581421,
				"roughnessFactor":0.4399999976158142
			}
		},
		{
			"name":"Hound11_EdgePlanes.002",
			"pbrMetallicRoughness":{
				"baseColorFactor":[
					0.2199999988079071,
					0.22499999403953552,
					0.22499999403953552,
					1
				],
				"metallicFactor":0.699999988079071,
				"roughnessFactor":0.4000000059604645
			}
		},
		{
			"name":"Hound11_Hood.002",
			"pbrMetallicRoughness":{
				"baseColorFactor":[
					0.03500000014901161,
					0.03200000151991844,
					0.032999999821186066,
					1
				],
				"metallicFactor":0,
				"roughnessFactor":0.699999988079071
			}
		},
		{
			"emissiveFactor":[
				1,
				0.1599999964237213,
				0.009999999776482582
			],
			"extensions":{
				"KHR_materials_emissive_strength":{
					"emissiveStrength":1.5
				}
			},
			"name":"Hound11_EyeAccent.002",
			"pbrMetallicRoughness":{
				"baseColorFactor":[
					1,
					0.2199999988079071,
					0.014999999664723873,
					1
				],
				"metallicFactor":0,
				"roughnessFactor":0.3499999940395355
			}
		}
	],
	"meshes":[
		{
			"name":"H11_DeformTopology",
			"primitives":[
				{
					"attributes":{
						"POSITION":0,
						"NORMAL":1,
						"JOINTS_0":2,
						"WEIGHTS_0":3
					},
					"indices":4,
					"material":0
				},
				{
					"attributes":{
						"POSITION":5,
						"NORMAL":6,
						"JOINTS_0":7,
						"WEIGHTS_0":8
					},
					"indices":9,
					"material":1
				},
				{
					"attributes":{
						"POSITION":10,
						"NORMAL":11,
						"JOINTS_0":12,
						"WEIGHTS_0":13
					},
					"indices":14,
					"material":2
				},
				{
					"attributes":{
						"POSITION":15,
						"NORMAL":16,
						"JOINTS_0":17,
						"WEIGHTS_0":18
					},
					"indices":19,
					"material":3
				},
				{
					"attributes":{
						"POSITION":20,
						"NORMAL":21,
						"JOINTS_0":22,
						"WEIGHTS_0":23
					},
					"indices":24,
					"material":4
				},
				{
					"attributes":{
						"POSITION":25,
						"NORMAL":26,
						"JOINTS_0":27,
						"WEIGHTS_0":28
					},
					"indices":29,
					"material":5
				},
				{
					"attributes":{
						"POSITION":30,
						"NORMAL":31,
						"JOINTS_0":32,
						"WEIGHTS_0":33
					},
					"indices":34,
					"material":6
				}
			]
		}
	],
	"skins":[
		{
			"inverseBindMatrices":35,
			"joints":[
				52,
				51,
				40,
				39,
				38,
				1,
				0,
				19,
				18,
				17,
				16,
				4,
				3,
				2,
				7,
				6,
				5,
				10,
				9,
				8,
				13,
				12,
				11,
				15,
				14,
				37,
				36,
				35,
				34,
				22,
				21,
				20,
				25,
				24,
				23,
				28,
				27,
				26,
				31,
				30,
				29,
				33,
				32,
				44,
				43,
				42,
				41,
				45,
				49,
				48,
				47,
				46,
				50
			],
			"name":"Hound11_Rig"
		}
	],
	"accessors":[
		{
			"bufferView":0,
			"componentType":5126,
			"count":6242,
			"max":[
				0.4885222315788269,
				1.5624699592590332,
				0.20800000429153442
			],
			"min":[
				-0.4885222315788269,
				0,
				-0.14000000059604645
			],
			"type":"VEC3"
		},
		{
			"bufferView":1,
			"componentType":5126,
			"count":6242,
			"type":"VEC3"
		},
		{
			"bufferView":2,
			"componentType":5121,
			"count":6242,
			"type":"VEC4"
		},
		{
			"bufferView":3,
			"componentType":5126,
			"count":6242,
			"type":"VEC4"
		},
		{
			"bufferView":4,
			"componentType":5123,
			"count":24024,
			"type":"SCALAR"
		},
		{
			"bufferView":5,
			"componentType":5126,
			"count":2413,
			"max":[
				0.2572391629219055,
				1.0720000267028809,
				0.1288009136915207
			],
			"min":[
				-0.2572391629219055,
				0.5569667816162109,
				-0.12708915770053864
			],
			"type":"VEC3"
		},
		{
			"bufferView":6,
			"componentType":5126,
			"count":2413,
			"type":"VEC3"
		},
		{
			"bufferView":7,
			"componentType":5121,
			"count":2413,
			"type":"VEC4"
		},
		{
			"bufferView":8,
			"componentType":5126,
			"count":2413,
			"type":"VEC4"
		},
		{
			"bufferView":9,
			"componentType":5123,
			"count":13590,
			"type":"SCALAR"
		},
		{
			"bufferView":10,
			"componentType":5126,
			"count":12222,
			"max":[
				0.49196553230285645,
				1.7400000095367432,
				0.13142900168895721
			],
			"min":[
				-0.49196553230285645,
				0.9739999771118164,
				-0.10135287046432495
			],
			"type":"VEC3"
		},
		{
			"bufferView":11,
			"componentType":5126,
			"count":12222,
			"type":"VEC3"
		},
		{
			"bufferView":12,
			"componentType":5121,
			"count":12222,
			"type":"VEC4"
		},
		{
			"bufferView":13,
			"componentType":5126,
			"count":12222,
			"type":"VEC4"
		},
		{
			"bufferView":14,
			"componentType":5123,
			"count":70800,
			"type":"SCALAR"
		},
		{
			"bufferView":15,
			"componentType":5126,
			"count":19780,
			"max":[
				0.5458729863166809,
				1.760503888130188,
				0.21551598608493805
			],
			"min":[
				-0.5458729863166809,
				0.028999999165534973,
				-0.1637200117111206
			],
			"type":"VEC3"
		},
		{
			"bufferView":16,
			"componentType":5126,
			"count":19780,
			"type":"VEC3"
		},
		{
			"bufferView":17,
			"componentType":5121,
			"count":19780,
			"type":"VEC4"
		},
		{
			"bufferView":18,
			"componentType":5126,
			"count":19780,
			"type":"VEC4"
		},
		{
			"bufferView":19,
			"componentType":5123,
			"count":81918,
			"type":"SCALAR"
		},
		{
			"bufferView":20,
			"componentType":5126,
			"count":4003,
			"max":[
				0.5177724957466125,
				1.564272403717041,
				0.2138412445783615
			],
			"min":[
				-0.5177724957466125,
				0.02957959845662117,
				-0.1535000056028366
			],
			"type":"VEC3"
		},
		{
			"bufferView":21,
			"componentType":5126,
			"count":4003,
			"type":"VEC3"
		},
		{
			"bufferView":22,
			"componentType":5121,
			"count":4003,
			"type":"VEC4"
		},
		{
			"bufferView":23,
			"componentType":5126,
			"count":4003,
			"type":"VEC4"
		},
		{
			"bufferView":24,
			"componentType":5123,
			"count":10740,
			"type":"SCALAR"
		},
		{
			"bufferView":25,
			"componentType":5126,
			"count":1106,
			"max":[
				0.14000000059604645,
				1.7999999523162842,
				0.1940000057220459
			],
			"min":[
				-0.14000000059604645,
				1.4270000457763672,
				-0.13600000739097595
			],
			"type":"VEC3"
		},
		{
			"bufferView":26,
			"componentType":5126,
			"count":1106,
			"type":"VEC3"
		},
		{
			"bufferView":27,
			"componentType":5121,
			"count":1106,
			"type":"VEC4"
		},
		{
			"bufferView":28,
			"componentType":5126,
			"count":1106,
			"type":"VEC4"
		},
		{
			"bufferView":29,
			"componentType":5123,
			"count":6624,
			"type":"SCALAR"
		},
		{
			"bufferView":30,
			"componentType":5126,
			"count":700,
			"max":[
				0.050999999046325684,
				1.655799150466919,
				0.08929368853569031
			],
			"min":[
				-0.050999999046325684,
				1.6474008560180664,
				0.07291136682033539
			],
			"type":"VEC3"
		},
		{
			"bufferView":31,
			"componentType":5126,
			"count":700,
			"type":"VEC3"
		},
		{
			"bufferView":32,
			"componentType":5121,
			"count":700,
			"type":"VEC4"
		},
		{
			"bufferView":33,
			"componentType":5126,
			"count":700,
			"type":"VEC4"
		},
		{
			"bufferView":34,
			"componentType":5123,
			"count":4176,
			"type":"SCALAR"
		},
		{
			"bufferView":35,
			"componentType":5126,
			"count":53,
			"type":"MAT4"
		},
		{
			"bufferView":36,
			"componentType":5126,
			"count":2,
			"max":[
				6
			],
			"min":[
				0
			],
			"type":"SCALAR"
		},
		{
			"bufferView":37,
			"componentType":5126,
			"count":2,
			"type":"VEC3"
		},
		{
			"bufferView":38,
			"componentType":5126,
			"count":2,
			"type":"VEC4"
		},
		{
			"bufferView":39,
			"componentType":5126,
			"count":2,
			"type":"VEC3"
		},
		{
			"bufferView":40,
			"componentType":5126,
			"count":2,
			"type":"VEC3"
		},
		{
			"bufferView":41,
			"componentType":5126,
			"count":2,
			"type":"VEC3"
		},
		{
			"bufferView":42,
			"componentType":5126,
			"count":2,
			"type":"VEC4"
		},
		{
			"bufferView":43,
			"componentType":5126,
			"count":2,
			"type":"VEC3"
		},
		{
			"bufferView":44,
			"componentType":5126,
			"count":2,
			"type":"VEC3"
		},
		{
			"bufferView":45,
			"componentType":5126,
			"count":181,
			"max":[
				6
			],
			"min":[
				0
			],
			"type":"SCALAR"
		},
		{
			"bufferView":46,
			"componentType":5126,
			"count":181,
			"type":"VEC4"
		},
		{
			"bufferView":47,
			"componentType":5126,
			"count":2,
			"type":"VEC3"
		},
		{
			"bufferView":48,
			"componentType":5126,
			"count":2,
			"type":"VEC3"
		},
		{
			"bufferView":49,
			"componentType":5126,
			"count":181,
			"type":"VEC4"
		},
		{
			"bufferView":50,
			"componentType":5126,
			"count":2,
			"type":"VEC3"
		},
		{
			"bufferView":51,
			"componentType":5126,
			"count":2,
			"type":"VEC3"
		},
		{
			"bufferView":52,
			"componentType":5126,
			"count":2,
			"type":"VEC4"
		},
		{
			"bufferView":53,
			"componentType":5126,
			"count":2,
			"type":"VEC3"
		},
		{
			"bufferView":54,
			"componentType":5126,
			"count":2,
			"type":"VEC3"
		},
		{
			"bufferView":55,
			"componentType":5126,
			"count":181,
			"type":"VEC4"
		},
		{
			"bufferView":56,
			"componentType":5126,
			"count":2,
			"type":"VEC3"
		},
		{
			"bufferView":57,
			"componentType":5126,
			"count":2,
			"type":"VEC4"
		},
		{
			"bufferView":58,
			"componentType":5126,
			"count":2,
			"type":"VEC3"
		},
		{
			"bufferView":59,
			"componentType":5126,
			"count":2,
			"type":"VEC3"
		},
		{
			"bufferView":60,
			"componentType":5126,
			"count":181,
			"type":"VEC4"
		},
		{
			"bufferView":61,
			"componentType":5126,
			"count":2,
			"type":"VEC3"
		},
		{
			"bufferView":62,
			"componentType":5126,
			"count":2,
			"type":"VEC3"
		},
		{
			"bufferView":63,
			"componentType":5126,
			"count":181,
			"type":"VEC4"
		},
		{
			"bufferView":64,
			"componentType":5126,
			"count":2,
			"type":"VEC3"
		},
		{
			"bufferView":65,
			"componentType":5126,
			"count":2,
			"type":"VEC4"
		},
		{
			"bufferView":66,
			"componentType":5126,
			"count":2,
			"type":"VEC3"
		},
		{
			"bufferView":67,
			"componentType":5126,
			"count":2,
			"type":"VEC3"
		},
		{
			"bufferView":68,
			"componentType":5126,
			"count":181,
			"type":"VEC4"
		},
		{
			"bufferView":69,
			"componentType":5126,
			"count":2,
			"type":"VEC3"
		},
		{
			"bufferView":70,
			"componentType":5126,
			"count":2,
			"type":"VEC3"
		},
		{
			"bufferView":71,
			"componentType":5126,
			"count":181,
			"type":"VEC4"
		},
		{
			"bufferView":72,
			"componentType":5126,
			"count":2,
			"type":"VEC3"
		},
		{
			"bufferView":73,
			"componentType":5126,
			"count":2,
			"type":"VEC3"
		},
		{
			"bufferView":74,
			"componentType":5126,
			"count":181,
			"type":"VEC4"
		},
		{
			"bufferView":75,
			"componentType":5126,
			"count":2,
			"type":"VEC3"
		},
		{
			"bufferView":76,
			"componentType":5126,
			"count":2,
			"type":"VEC3"
		},
		{
			"bufferView":77,
			"componentType":5126,
			"count":181,
			"type":"VEC4"
		},
		{
			"bufferView":78,
			"componentType":5126,
			"count":2,
			"type":"VEC3"
		},
		{
			"bufferView":79,
			"componentType":5126,
			"count":181,
			"type":"VEC4"
		},
		{
			"bufferView":80,
			"componentType":5126,
			"count":2,
			"type":"VEC3"
		},
		{
			"bufferView":81,
			"componentType":5126,
			"count":2,
			"type":"VEC3"
		},
		{
			"bufferView":82,
			"componentType":5126,
			"count":181,
			"type":"VEC4"
		},
		{
			"bufferView":83,
			"componentType":5126,
			"count":2,
			"type":"VEC3"
		},
		{
			"bufferView":84,
			"componentType":5126,
			"count":2,
			"type":"VEC3"
		},
		{
			"bufferView":85,
			"componentType":5126,
			"count":181,
			"type":"VEC4"
		},
		{
			"bufferView":86,
			"componentType":5126,
			"count":2,
			"type":"VEC3"
		},
		{
			"bufferView":87,
			"componentType":5126,
			"count":181,
			"type":"VEC4"
		},
		{
			"bufferView":88,
			"componentType":5126,
			"count":2,
			"type":"VEC3"
		},
		{
			"bufferView":89,
			"componentType":5126,
			"count":181,
			"type":"VEC4"
		},
		{
			"bufferView":90,
			"componentType":5126,
			"count":2,
			"type":"VEC3"
		},
		{
			"bufferView":91,
			"componentType":5126,
			"count":2,
			"type":"VEC3"
		},
		{
			"bufferView":92,
			"componentType":5126,
			"count":181,
			"type":"VEC4"
		},
		{
			"bufferView":93,
			"componentType":5126,
			"count":2,
			"type":"VEC3"
		},
		{
			"bufferView":94,
			"componentType":5126,
			"count":2,
			"type":"VEC3"
		},
		{
			"bufferView":95,
			"componentType":5126,
			"count":181,
			"type":"VEC4"
		},
		{
			"bufferView":96,
			"componentType":5126,
			"count":2,
			"type":"VEC3"
		},
		{
			"bufferView":97,
			"componentType":5126,
			"count":2,
			"type":"VEC3"
		},
		{
			"bufferView":98,
			"componentType":5126,
			"count":181,
			"type":"VEC4"
		},
		{
			"bufferView":99,
			"componentType":5126,
			"count":2,
			"type":"VEC3"
		},
		{
			"bufferView":100,
			"componentType":5126,
			"count":2,
			"type":"VEC4"
		},
		{
			"bufferView":101,
			"componentType":5126,
			"count":2,
			"type":"VEC3"
		},
		{
			"bufferView":102,
			"componentType":5126,
			"count":2,
			"type":"VEC4"
		},
		{
			"bufferView":103,
			"componentType":5126,
			"count":2,
			"type":"VEC3"
		},
		{
			"bufferView":104,
			"componentType":5126,
			"count":2,
			"type":"VEC3"
		},
		{
			"bufferView":105,
			"componentType":5126,
			"count":2,
			"type":"VEC4"
		},
		{
			"bufferView":106,
			"componentType":5126,
			"count":2,
			"type":"VEC3"
		},
		{
			"bufferView":107,
			"componentType":5126,
			"count":2,
			"type":"VEC3"
		},
		{
			"bufferView":108,
			"componentType":5126,
			"count":181,
			"type":"VEC4"
		},
		{
			"bufferView":109,
			"componentType":5126,
			"count":2,
			"type":"VEC3"
		},
		{
			"bufferView":110,
			"componentType":5126,
			"count":181,
			"type":"VEC4"
		},
		{
			"bufferView":111,
			"componentType":5126,
			"count":2,
			"type":"VEC3"
		},
		{
			"bufferView":112,
			"componentType":5126,
			"count":2,
			"type":"VEC4"
		},
		{
			"bufferView":113,
			"componentType":5126,
			"count":2,
			"type":"VEC3"
		},
		{
			"bufferView":114,
			"componentType":5126,
			"count":181,
			"type":"VEC4"
		},
		{
			"bufferView":115,
			"componentType":5126,
			"count":2,
			"type":"VEC3"
		},
		{
			"bufferView":116,
			"componentType":5126,
			"count":181,
			"type":"VEC4"
		},
		{
			"bufferView":117,
			"componentType":5126,
			"count":2,
			"type":"VEC3"
		},
		{
			"bufferView":118,
			"componentType":5126,
			"count":2,
			"type":"VEC3"
		},
		{
			"bufferView":119,
			"componentType":5126,
			"count":181,
			"type":"VEC4"
		},
		{
			"bufferView":120,
			"componentType":5126,
			"count":2,
			"type":"VEC3"
		},
		{
			"bufferView":121,
			"componentType":5126,
			"count":2,
			"type":"VEC3"
		},
		{
			"bufferView":122,
			"componentType":5126,
			"count":2,
			"type":"VEC3"
		},
		{
			"bufferView":123,
			"componentType":5126,
			"count":181,
			"type":"VEC4"
		},
		{
			"bufferView":124,
			"componentType":5126,
			"count":2,
			"type":"VEC3"
		},
		{
			"bufferView":125,
			"componentType":5126,
			"count":181,
			"type":"VEC4"
		},
		{
			"bufferView":126,
			"componentType":5126,
			"count":2,
			"type":"VEC3"
		},
		{
			"bufferView":127,
			"componentType":5126,
			"count":181,
			"type":"VEC4"
		},
		{
			"bufferView":128,
			"componentType":5126,
			"count":2,
			"type":"VEC3"
		},
		{
			"bufferView":129,
			"componentType":5126,
			"count":2,
			"type":"VEC3"
		},
		{
			"bufferView":130,
			"componentType":5126,
			"count":181,
			"type":"VEC4"
		},
		{
			"bufferView":131,
			"componentType":5126,
			"count":2,
			"type":"VEC3"
		},
		{
			"bufferView":132,
			"componentType":5126,
			"count":181,
			"type":"VEC4"
		},
		{
			"bufferView":133,
			"componentType":5126,
			"count":2,
			"type":"VEC3"
		},
		{
			"bufferView":134,
			"componentType":5126,
			"count":2,
			"type":"VEC3"
		},
		{
			"bufferView":135,
			"componentType":5126,
			"count":181,
			"type":"VEC4"
		},
		{
			"bufferView":136,
			"componentType":5126,
			"count":2,
			"type":"VEC3"
		},
		{
			"bufferView":137,
			"componentType":5126,
			"count":2,
			"type":"VEC3"
		},
		{
			"bufferView":138,
			"componentType":5126,
			"count":181,
			"type":"VEC4"
		},
		{
			"bufferView":139,
			"componentType":5126,
			"count":2,
			"type":"VEC3"
		},
		{
			"bufferView":140,
			"componentType":5126,
			"count":2,
			"type":"VEC3"
		},
		{
			"bufferView":141,
			"componentType":5126,
			"count":181,
			"type":"VEC4"
		},
		{
			"bufferView":142,
			"componentType":5126,
			"count":2,
			"type":"VEC3"
		},
		{
			"bufferView":143,
			"componentType":5126,
			"count":2,
			"type":"VEC4"
		},
		{
			"bufferView":144,
			"componentType":5126,
			"count":2,
			"type":"VEC3"
		},
		{
			"bufferView":145,
			"componentType":5126,
			"count":2,
			"type":"VEC4"
		},
		{
			"bufferView":146,
			"componentType":5126,
			"count":2,
			"type":"VEC3"
		},
		{
			"bufferView":147,
			"componentType":5126,
			"count":181,
			"type":"VEC4"
		},
		{
			"bufferView":148,
			"componentType":5126,
			"count":2,
			"type":"VEC3"
		},
		{
			"bufferView":149,
			"componentType":5126,
			"count":2,
			"type":"VEC3"
		},
		{
			"bufferView":150,
			"componentType":5126,
			"count":181,
			"type":"VEC4"
		},
		{
			"bufferView":151,
			"componentType":5126,
			"count":2,
			"type":"VEC3"
		},
		{
			"bufferView":152,
			"componentType":5126,
			"count":2,
			"type":"VEC3"
		},
		{
			"bufferView":153,
			"componentType":5126,
			"count":181,
			"type":"VEC4"
		},
		{
			"bufferView":154,
			"componentType":5126,
			"count":2,
			"type":"VEC3"
		},
		{
			"bufferView":155,
			"componentType":5126,
			"count":2,
			"type":"VEC4"
		},
		{
			"bufferView":156,
			"componentType":5126,
			"count":2,
			"type":"VEC3"
		},
		{
			"bufferView":157,
			"componentType":5126,
			"count":181,
			"type":"VEC4"
		},
		{
			"bufferView":158,
			"componentType":5126,
			"count":2,
			"type":"VEC3"
		},
		{
			"bufferView":159,
			"componentType":5126,
			"count":2,
			"type":"VEC3"
		},
		{
			"bufferView":160,
			"componentType":5126,
			"count":2,
			"type":"VEC4"
		},
		{
			"bufferView":161,
			"componentType":5126,
			"count":2,
			"type":"VEC3"
		},
		{
			"bufferView":162,
			"componentType":5126,
			"count":2,
			"type":"VEC4"
		},
		{
			"bufferView":163,
			"componentType":5126,
			"count":2,
			"type":"VEC3"
		},
		{
			"bufferView":164,
			"componentType":5126,
			"count":2,
			"type":"VEC4"
		},
		{
			"bufferView":165,
			"componentType":5126,
			"count":2,
			"type":"VEC3"
		},
		{
			"bufferView":166,
			"componentType":5126,
			"count":2,
			"type":"VEC4"
		},
		{
			"bufferView":167,
			"componentType":5126,
			"count":2,
			"type":"VEC3"
		},
		{
			"bufferView":168,
			"componentType":5126,
			"count":2,
			"type":"VEC4"
		}
	],
	"bufferViews":[
		{
			"buffer":0,
			"byteLength":74904,
			"byteOffset":0,
			"target":34962
		},
		{
			"buffer":0,
			"byteLength":74904,
			"byteOffset":74904,
			"target":34962
		},
		{
			"buffer":0,
			"byteLength":24968,
			"byteOffset":149808,
			"target":34962
		},
		{
			"buffer":0,
			"byteLength":99872,
			"byteOffset":174776,
			"target":34962
		},
		{
			"buffer":0,
			"byteLength":48048,
			"byteOffset":274648,
			"target":34963
		},
		{
			"buffer":0,
			"byteLength":28956,
			"byteOffset":322696,
			"target":34962
		},
		{
			"buffer":0,
			"byteLength":28956,
			"byteOffset":351652,
			"target":34962
		},
		{
			"buffer":0,
			"byteLength":9652,
			"byteOffset":380608,
			"target":34962
		},
		{
			"buffer":0,
			"byteLength":38608,
			"byteOffset":390260,
			"target":34962
		},
		{
			"buffer":0,
			"byteLength":27180,
			"byteOffset":428868,
			"target":34963
		},
		{
			"buffer":0,
			"byteLength":146664,
			"byteOffset":456048,
			"target":34962
		},
		{
			"buffer":0,
			"byteLength":146664,
			"byteOffset":602712,
			"target":34962
		},
		{
			"buffer":0,
			"byteLength":48888,
			"byteOffset":749376,
			"target":34962
		},
		{
			"buffer":0,
			"byteLength":195552,
			"byteOffset":798264,
			"target":34962
		},
		{
			"buffer":0,
			"byteLength":141600,
			"byteOffset":993816,
			"target":34963
		},
		{
			"buffer":0,
			"byteLength":237360,
			"byteOffset":1135416,
			"target":34962
		},
		{
			"buffer":0,
			"byteLength":237360,
			"byteOffset":1372776,
			"target":34962
		},
		{
			"buffer":0,
			"byteLength":79120,
			"byteOffset":1610136,
			"target":34962
		},
		{
			"buffer":0,
			"byteLength":316480,
			"byteOffset":1689256,
			"target":34962
		},
		{
			"buffer":0,
			"byteLength":163836,
			"byteOffset":2005736,
			"target":34963
		},
		{
			"buffer":0,
			"byteLength":48036,
			"byteOffset":2169572,
			"target":34962
		},
		{
			"buffer":0,
			"byteLength":48036,
			"byteOffset":2217608,
			"target":34962
		},
		{
			"buffer":0,
			"byteLength":16012,
			"byteOffset":2265644,
			"target":34962
		},
		{
			"buffer":0,
			"byteLength":64048,
			"byteOffset":2281656,
			"target":34962
		},
		{
			"buffer":0,
			"byteLength":21480,
			"byteOffset":2345704,
			"target":34963
		},
		{
			"buffer":0,
			"byteLength":13272,
			"byteOffset":2367184,
			"target":34962
		},
		{
			"buffer":0,
			"byteLength":13272,
			"byteOffset":2380456,
			"target":34962
		},
		{
			"buffer":0,
			"byteLength":4424,
			"byteOffset":2393728,
			"target":34962
		},
		{
			"buffer":0,
			"byteLength":17696,
			"byteOffset":2398152,
			"target":34962
		},
		{
			"buffer":0,
			"byteLength":13248,
			"byteOffset":2415848,
			"target":34963
		},
		{
			"buffer":0,
			"byteLength":8400,
			"byteOffset":2429096,
			"target":34962
		},
		{
			"buffer":0,
			"byteLength":8400,
			"byteOffset":2437496,
			"target":34962
		},
		{
			"buffer":0,
			"byteLength":2800,
			"byteOffset":2445896,
			"target":34962
		},
		{
			"buffer":0,
			"byteLength":11200,
			"byteOffset":2448696,
			"target":34962
		},
		{
			"buffer":0,
			"byteLength":8352,
			"byteOffset":2459896,
			"target":34963
		},
		{
			"buffer":0,
			"byteLength":3392,
			"byteOffset":2468248
		},
		{
			"buffer":0,
			"byteLength":8,
			"byteOffset":2471640
		},
		{
			"buffer":0,
			"byteLength":24,
			"byteOffset":2471648
		},
		{
			"buffer":0,
			"byteLength":32,
			"byteOffset":2471672
		},
		{
			"buffer":0,
			"byteLength":24,
			"byteOffset":2471704
		},
		{
			"buffer":0,
			"byteLength":24,
			"byteOffset":2471728
		},
		{
			"buffer":0,
			"byteLength":24,
			"byteOffset":2471752
		},
		{
			"buffer":0,
			"byteLength":32,
			"byteOffset":2471776
		},
		{
			"buffer":0,
			"byteLength":24,
			"byteOffset":2471808
		},
		{
			"buffer":0,
			"byteLength":24,
			"byteOffset":2471832
		},
		{
			"buffer":0,
			"byteLength":724,
			"byteOffset":2471856
		},
		{
			"buffer":0,
			"byteLength":2896,
			"byteOffset":2472580
		},
		{
			"buffer":0,
			"byteLength":24,
			"byteOffset":2475476
		},
		{
			"buffer":0,
			"byteLength":24,
			"byteOffset":2475500
		},
		{
			"buffer":0,
			"byteLength":2896,
			"byteOffset":2475524
		},
		{
			"buffer":0,
			"byteLength":24,
			"byteOffset":2478420
		},
		{
			"buffer":0,
			"byteLength":24,
			"byteOffset":2478444
		},
		{
			"buffer":0,
			"byteLength":32,
			"byteOffset":2478468
		},
		{
			"buffer":0,
			"byteLength":24,
			"byteOffset":2478500
		},
		{
			"buffer":0,
			"byteLength":24,
			"byteOffset":2478524
		},
		{
			"buffer":0,
			"byteLength":2896,
			"byteOffset":2478548
		},
		{
			"buffer":0,
			"byteLength":24,
			"byteOffset":2481444
		},
		{
			"buffer":0,
			"byteLength":32,
			"byteOffset":2481468
		},
		{
			"buffer":0,
			"byteLength":24,
			"byteOffset":2481500
		},
		{
			"buffer":0,
			"byteLength":24,
			"byteOffset":2481524
		},
		{
			"buffer":0,
			"byteLength":2896,
			"byteOffset":2481548
		},
		{
			"buffer":0,
			"byteLength":24,
			"byteOffset":2484444
		},
		{
			"buffer":0,
			"byteLength":24,
			"byteOffset":2484468
		},
		{
			"buffer":0,
			"byteLength":2896,
			"byteOffset":2484492
		},
		{
			"buffer":0,
			"byteLength":24,
			"byteOffset":2487388
		},
		{
			"buffer":0,
			"byteLength":32,
			"byteOffset":2487412
		},
		{
			"buffer":0,
			"byteLength":24,
			"byteOffset":2487444
		},
		{
			"buffer":0,
			"byteLength":24,
			"byteOffset":2487468
		},
		{
			"buffer":0,
			"byteLength":2896,
			"byteOffset":2487492
		},
		{
			"buffer":0,
			"byteLength":24,
			"byteOffset":2490388
		},
		{
			"buffer":0,
			"byteLength":24,
			"byteOffset":2490412
		},
		{
			"buffer":0,
			"byteLength":2896,
			"byteOffset":2490436
		},
		{
			"buffer":0,
			"byteLength":24,
			"byteOffset":2493332
		},
		{
			"buffer":0,
			"byteLength":24,
			"byteOffset":2493356
		},
		{
			"buffer":0,
			"byteLength":2896,
			"byteOffset":2493380
		},
		{
			"buffer":0,
			"byteLength":24,
			"byteOffset":2496276
		},
		{
			"buffer":0,
			"byteLength":24,
			"byteOffset":2496300
		},
		{
			"buffer":0,
			"byteLength":2896,
			"byteOffset":2496324
		},
		{
			"buffer":0,
			"byteLength":24,
			"byteOffset":2499220
		},
		{
			"buffer":0,
			"byteLength":2896,
			"byteOffset":2499244
		},
		{
			"buffer":0,
			"byteLength":24,
			"byteOffset":2502140
		},
		{
			"buffer":0,
			"byteLength":24,
			"byteOffset":2502164
		},
		{
			"buffer":0,
			"byteLength":2896,
			"byteOffset":2502188
		},
		{
			"buffer":0,
			"byteLength":24,
			"byteOffset":2505084
		},
		{
			"buffer":0,
			"byteLength":24,
			"byteOffset":2505108
		},
		{
			"buffer":0,
			"byteLength":2896,
			"byteOffset":2505132
		},
		{
			"buffer":0,
			"byteLength":24,
			"byteOffset":2508028
		},
		{
			"buffer":0,
			"byteLength":2896,
			"byteOffset":2508052
		},
		{
			"buffer":0,
			"byteLength":24,
			"byteOffset":2510948
		},
		{
			"buffer":0,
			"byteLength":2896,
			"byteOffset":2510972
		},
		{
			"buffer":0,
			"byteLength":24,
			"byteOffset":2513868
		},
		{
			"buffer":0,
			"byteLength":24,
			"byteOffset":2513892
		},
		{
			"buffer":0,
			"byteLength":2896,
			"byteOffset":2513916
		},
		{
			"buffer":0,
			"byteLength":24,
			"byteOffset":2516812
		},
		{
			"buffer":0,
			"byteLength":24,
			"byteOffset":2516836
		},
		{
			"buffer":0,
			"byteLength":2896,
			"byteOffset":2516860
		},
		{
			"buffer":0,
			"byteLength":24,
			"byteOffset":2519756
		},
		{
			"buffer":0,
			"byteLength":24,
			"byteOffset":2519780
		},
		{
			"buffer":0,
			"byteLength":2896,
			"byteOffset":2519804
		},
		{
			"buffer":0,
			"byteLength":24,
			"byteOffset":2522700
		},
		{
			"buffer":0,
			"byteLength":32,
			"byteOffset":2522724
		},
		{
			"buffer":0,
			"byteLength":24,
			"byteOffset":2522756
		},
		{
			"buffer":0,
			"byteLength":32,
			"byteOffset":2522780
		},
		{
			"buffer":0,
			"byteLength":24,
			"byteOffset":2522812
		},
		{
			"buffer":0,
			"byteLength":24,
			"byteOffset":2522836
		},
		{
			"buffer":0,
			"byteLength":32,
			"byteOffset":2522860
		},
		{
			"buffer":0,
			"byteLength":24,
			"byteOffset":2522892
		},
		{
			"buffer":0,
			"byteLength":24,
			"byteOffset":2522916
		},
		{
			"buffer":0,
			"byteLength":2896,
			"byteOffset":2522940
		},
		{
			"buffer":0,
			"byteLength":24,
			"byteOffset":2525836
		},
		{
			"buffer":0,
			"byteLength":2896,
			"byteOffset":2525860
		},
		{
			"buffer":0,
			"byteLength":24,
			"byteOffset":2528756
		},
		{
			"buffer":0,
			"byteLength":32,
			"byteOffset":2528780
		},
		{
			"buffer":0,
			"byteLength":24,
			"byteOffset":2528812
		},
		{
			"buffer":0,
			"byteLength":2896,
			"byteOffset":2528836
		},
		{
			"buffer":0,
			"byteLength":24,
			"byteOffset":2531732
		},
		{
			"buffer":0,
			"byteLength":2896,
			"byteOffset":2531756
		},
		{
			"buffer":0,
			"byteLength":24,
			"byteOffset":2534652
		},
		{
			"buffer":0,
			"byteLength":24,
			"byteOffset":2534676
		},
		{
			"buffer":0,
			"byteLength":2896,
			"byteOffset":2534700
		},
		{
			"buffer":0,
			"byteLength":24,
			"byteOffset":2537596
		},
		{
			"buffer":0,
			"byteLength":24,
			"byteOffset":2537620
		},
		{
			"buffer":0,
			"byteLength":24,
			"byteOffset":2537644
		},
		{
			"buffer":0,
			"byteLength":2896,
			"byteOffset":2537668
		},
		{
			"buffer":0,
			"byteLength":24,
			"byteOffset":2540564
		},
		{
			"buffer":0,
			"byteLength":2896,
			"byteOffset":2540588
		},
		{
			"buffer":0,
			"byteLength":24,
			"byteOffset":2543484
		},
		{
			"buffer":0,
			"byteLength":2896,
			"byteOffset":2543508
		},
		{
			"buffer":0,
			"byteLength":24,
			"byteOffset":2546404
		},
		{
			"buffer":0,
			"byteLength":24,
			"byteOffset":2546428
		},
		{
			"buffer":0,
			"byteLength":2896,
			"byteOffset":2546452
		},
		{
			"buffer":0,
			"byteLength":24,
			"byteOffset":2549348
		},
		{
			"buffer":0,
			"byteLength":2896,
			"byteOffset":2549372
		},
		{
			"buffer":0,
			"byteLength":24,
			"byteOffset":2552268
		},
		{
			"buffer":0,
			"byteLength":24,
			"byteOffset":2552292
		},
		{
			"buffer":0,
			"byteLength":2896,
			"byteOffset":2552316
		},
		{
			"buffer":0,
			"byteLength":24,
			"byteOffset":2555212
		},
		{
			"buffer":0,
			"byteLength":24,
			"byteOffset":2555236
		},
		{
			"buffer":0,
			"byteLength":2896,
			"byteOffset":2555260
		},
		{
			"buffer":0,
			"byteLength":24,
			"byteOffset":2558156
		},
		{
			"buffer":0,
			"byteLength":24,
			"byteOffset":2558180
		},
		{
			"buffer":0,
			"byteLength":2896,
			"byteOffset":2558204
		},
		{
			"buffer":0,
			"byteLength":24,
			"byteOffset":2561100
		},
		{
			"buffer":0,
			"byteLength":32,
			"byteOffset":2561124
		},
		{
			"buffer":0,
			"byteLength":24,
			"byteOffset":2561156
		},
		{
			"buffer":0,
			"byteLength":32,
			"byteOffset":2561180
		},
		{
			"buffer":0,
			"byteLength":24,
			"byteOffset":2561212
		},
		{
			"buffer":0,
			"byteLength":2896,
			"byteOffset":2561236
		},
		{
			"buffer":0,
			"byteLength":24,
			"byteOffset":2564132
		},
		{
			"buffer":0,
			"byteLength":24,
			"byteOffset":2564156
		},
		{
			"buffer":0,
			"byteLength":2896,
			"byteOffset":2564180
		},
		{
			"buffer":0,
			"byteLength":24,
			"byteOffset":2567076
		},
		{
			"buffer":0,
			"byteLength":24,
			"byteOffset":2567100
		},
		{
			"buffer":0,
			"byteLength":2896,
			"byteOffset":2567124
		},
		{
			"buffer":0,
			"byteLength":24,
			"byteOffset":2570020
		},
		{
			"buffer":0,
			"byteLength":32,
			"byteOffset":2570044
		},
		{
			"buffer":0,
			"byteLength":24,
			"byteOffset":2570076
		},
		{
			"buffer":0,
			"byteLength":2896,
			"byteOffset":2570100
		},
		{
			"buffer":0,
			"byteLength":24,
			"byteOffset":2572996
		},
		{
			"buffer":0,
			"byteLength":24,
			"byteOffset":2573020
		},
		{
			"buffer":0,
			"byteLength":32,
			"byteOffset":2573044
		},
		{
			"buffer":0,
			"byteLength":24,
			"byteOffset":2573076
		},
		{
			"buffer":0,
			"byteLength":32,
			"byteOffset":2573100
		},
		{
			"buffer":0,
			"byteLength":24,
			"byteOffset":2573132
		},
		{
			"buffer":0,
			"byteLength":32,
			"byteOffset":2573156
		},
		{
			"buffer":0,
			"byteLength":24,
			"byteOffset":2573188
		},
		{
			"buffer":0,
			"byteLength":32,
			"byteOffset":2573212
		},
		{
			"buffer":0,
			"byteLength":24,
			"byteOffset":2573244
		},
		{
			"buffer":0,
			"byteLength":32,
			"byteOffset":2573268
		}
	],
	"buffers":[
		{
			"byteLength":2573300,
			"uri":"hound-rig.bin"
		}
	]
}
