{
  "asset": {
    "version": "2.0",
    "generator": "Gloom original VFX translator 1"
  },
  "scene": 0,
  "scenes": [
    {
      "nodes": [
        0,
        1,
        2,
        3,
        4,
        5,
        6
      ]
    }
  ],
  "nodes": [
    {
      "name": "pump_flare_05.png",
      "mesh": 0
    },
    {
      "name": "pump_smoke_01.png",
      "mesh": 1
    },
    {
      "name": "pump_ring_04.png",
      "mesh": 2
    },
    {
      "name": "mp_hit_metal_sparkle.png",
      "mesh": 3
    },
    {
      "name": "mp_bloodsplat_01.png",
      "mesh": 4
    },
    {
      "name": "magma_NRM.tga",
      "mesh": 5
    },
    {
      "name": "mp_explosion_burst.png",
      "mesh": 6
    }
  ],
  "meshes": [
    {
      "primitives": [
        {
          "attributes": {
            "POSITION": 0,
            "NORMAL": 1,
            "TEXCOORD_0": 2
          },
          "indices": 3,
          "material": 0
        }
      ]
    },
    {
      "primitives": [
        {
          "attributes": {
            "POSITION": 0,
            "NORMAL": 1,
            "TEXCOORD_0": 2
          },
          "indices": 3,
          "material": 1
        }
      ]
    },
    {
      "primitives": [
        {
          "attributes": {
            "POSITION": 0,
            "NORMAL": 1,
            "TEXCOORD_0": 2
          },
          "indices": 3,
          "material": 2
        }
      ]
    },
    {
      "primitives": [
        {
          "attributes": {
            "POSITION": 0,
            "NORMAL": 1,
            "TEXCOORD_0": 2
          },
          "indices": 3,
          "material": 3
        }
      ]
    },
    {
      "primitives": [
        {
          "attributes": {
            "POSITION": 0,
            "NORMAL": 1,
            "TEXCOORD_0": 2
          },
          "indices": 3,
          "material": 4
        }
      ]
    },
    {
      "primitives": [
        {
          "attributes": {
            "POSITION": 0,
            "NORMAL": 1,
            "TEXCOORD_0": 2
          },
          "indices": 3,
          "material": 5
        }
      ]
    },
    {
      "primitives": [
        {
          "attributes": {
            "POSITION": 0,
            "NORMAL": 1,
            "TEXCOORD_0": 2
          },
          "indices": 3,
          "material": 6
        }
      ]
    }
  ],
  "materials": [
    {
      "name": "pump_flare_05.png",
      "pbrMetallicRoughness": {
        "baseColorTexture": {
          "index": 0
        },
        "metallicFactor": 0,
        "roughnessFactor": 1
      },
      "alphaMode": "BLEND",
      "doubleSided": true,
      "extras": {
        "gloom": {
          "additive": true
        }
      }
    },
    {
      "name": "pump_smoke_01.png",
      "pbrMetallicRoughness": {
        "baseColorTexture": {
          "index": 1
        },
        "metallicFactor": 0,
        "roughnessFactor": 1
      },
      "alphaMode": "BLEND",
      "doubleSided": true
    },
    {
      "name": "pump_ring_04.png",
      "pbrMetallicRoughness": {
        "baseColorTexture": {
          "index": 2
        },
        "metallicFactor": 0,
        "roughnessFactor": 1
      },
      "alphaMode": "BLEND",
      "doubleSided": true
    },
    {
      "name": "mp_hit_metal_sparkle.png",
      "pbrMetallicRoughness": {
        "baseColorTexture": {
          "index": 3
        },
        "metallicFactor": 0,
        "roughnessFactor": 1
      },
      "alphaMode": "BLEND",
      "doubleSided": true,
      "extras": {
        "gloom": {
          "additive": true
        }
      }
    },
    {
      "name": "mp_bloodsplat_01.png",
      "pbrMetallicRoughness": {
        "baseColorTexture": {
          "index": 4
        },
        "metallicFactor": 0,
        "roughnessFactor": 1
      },
      "alphaMode": "BLEND",
      "doubleSided": true
    },
    {
      "name": "magma_NRM.tga",
      "pbrMetallicRoughness": {
        "metallicFactor": 0,
        "roughnessFactor": 1
      },
      "alphaMode": "BLEND",
      "doubleSided": true,
      "normalTexture": {
        "index": 5
      }
    },
    {
      "name": "mp_explosion_burst.png",
      "pbrMetallicRoughness": {
        "baseColorTexture": {
          "index": 6
        },
        "metallicFactor": 0,
        "roughnessFactor": 1
      },
      "alphaMode": "BLEND",
      "doubleSided": true,
      "extras": {
        "gloom": {
          "additive": true
        }
      }
    }
  ],
  "images": [
    {
      "uri": "textures/pump_flare_05.png"
    },
    {
      "uri": "textures/pump_smoke_01.png"
    },
    {
      "uri": "textures/pump_ring_04.png"
    },
    {
      "uri": "textures/mp_hit_metal_sparkle.png"
    },
    {
      "uri": "textures/mp_bloodsplat_01.png"
    },
    {
      "uri": "textures/magma_NRM.png"
    },
    {
      "uri": "textures/mp_explosion_burst.png"
    }
  ],
  "textures": [
    {
      "source": 0
    },
    {
      "source": 1
    },
    {
      "source": 2
    },
    {
      "source": 3
    },
    {
      "source": 4
    },
    {
      "source": 5
    },
    {
      "source": 6
    }
  ],
  "buffers": [
    {
      "uri": "effects.bin",
      "byteLength": 152
    }
  ],
  "bufferViews": [
    {
      "buffer": 0,
      "byteOffset": 0,
      "byteLength": 48
    },
    {
      "buffer": 0,
      "byteOffset": 48,
      "byteLength": 48
    },
    {
      "buffer": 0,
      "byteOffset": 96,
      "byteLength": 32
    },
    {
      "buffer": 0,
      "byteOffset": 128,
      "byteLength": 24
    }
  ],
  "accessors": [
    {
      "bufferView": 0,
      "componentType": 5126,
      "count": 4,
      "type": "VEC3",
      "min": [
        -0.5,
        -0.5,
        0
      ],
      "max": [
        0.5,
        0.5,
        0
      ]
    },
    {
      "bufferView": 1,
      "componentType": 5126,
      "count": 4,
      "type": "VEC3",
      "min": [
        0,
        0,
        -1
      ],
      "max": [
        0,
        0,
        -1
      ]
    },
    {
      "bufferView": 2,
      "componentType": 5126,
      "count": 4,
      "type": "VEC2"
    },
    {
      "bufferView": 3,
      "componentType": 5125,
      "count": 6,
      "type": "SCALAR"
    }
  ]
}
