{
  "asset": {"version": "2.0", "generator": "Gloom authored Berserker presentation"},
  "buffers": [{"byteLength": 168, "uri": "data:application/octet-stream;base64,"}],
  "bufferViews": [
    {"buffer": 0, "byteOffset": 0, "byteLength": 96, "byteStride": 12, "target": 34962},
    {"buffer": 0, "byteOffset": 96, "byteLength": 72, "target": 34963}
  ],
  "accessors": [
    {"bufferView": 0, "componentType": 5126, "count": 8, "type": "VEC3", "min": [-1, -0.25, -1], "max": [1, 0.25, 1]},
    {"bufferView": 1, "componentType": 5123, "count": 36, "type": "SCALAR"}
  ],
  "materials": [{"name": "Berserker authored iron", "pbrMetallicRoughness": {"baseColorFactor": [0.18, 0.20, 0.24, 1], "metallicFactor": 0.72, "roughnessFactor": 0.38}}],
  "meshes": [{"name": "BerserkerPart", "primitives": [{"attributes": {"POSITION": 0}, "indices": 1, "material": 0}]}],
  "nodes": [
    {"name": "Berserker Torso", "mesh": 0}, {"name": "Berserker Head", "mesh": 0},
    {"name": "Berserker Shoulder L", "mesh": 0}, {"name": "Berserker Shoulder R", "mesh": 0},
    {"name": "Berserker Arm L", "mesh": 0}, {"name": "Berserker Arm R", "mesh": 0},
    {"name": "Berserker Leg L", "mesh": 0}, {"name": "Berserker Leg R", "mesh": 0},
    {"name": "Berserker Chest", "mesh": 0}
  ],
  "scenes": [{"nodes": [0, 1, 2, 3, 4, 5, 6, 7, 8]}], "scene": 0
}
