{
  "asset": {"version": "2.0", "generator": "Gloom authored Hound presentation"},
  "buffers": [{"byteLength": 168, "uri": "data:application/octet-stream;base64,"}],
  "bufferViews": [
    {"buffer": 0, "byteOffset": 0, "byteLength": 96, "byteStride": 12, "target": 34962},
    {"buffer": 0, "byteOffset": 96, "byteLength": 72, "target": 34963}
  ],
  "accessors": [
    {"bufferView": 0, "componentType": 5126, "count": 8, "type": "VEC3", "min": [-1, -0.25, -1], "max": [1, 0.25, 1]},
    {"bufferView": 1, "componentType": 5123, "count": 36, "type": "SCALAR"}
  ],
  "materials": [{"name": "Hound authored rust", "pbrMetallicRoughness": {"baseColorFactor": [0.34, 0.07, 0.035, 1], "metallicFactor": 0.08, "roughnessFactor": 0.82}}],
  "meshes": [{"name": "HoundPart", "primitives": [{"attributes": {"POSITION": 0}, "indices": 1, "material": 0}]}],
  "nodes": [
    {"name": "Hound Body", "mesh": 0}, {"name": "Hound Head", "mesh": 0},
    {"name": "Hound Muzzle", "mesh": 0}, {"name": "Hound Ear L", "mesh": 0},
    {"name": "Hound Ear R", "mesh": 0}, {"name": "Hound Foreleg L", "mesh": 0},
    {"name": "Hound Foreleg R", "mesh": 0}, {"name": "Hound Hindleg L", "mesh": 0},
    {"name": "Hound Hindleg R", "mesh": 0}
  ],
  "scenes": [{"nodes": [0, 1, 2, 3, 4, 5, 6, 7, 8]}], "scene": 0
}
