{
  "asset": {
    "version": "2.0",
    "generator": "Gloom legacy importer 1"
  },
  "scene": 0,
  "scenes": [
    {
      "nodes": [
        0
      ]
    }
  ],
  "nodes": [
    {
      "name": "armour_small",
      "mesh": 0,
      "translation": [
        0.0,
        0.0,
        0.0
      ],
      "scale": [
        0.15,
        0.15,
        0.15
      ],
      "rotation": [
        0,
        0.0,
        0,
        1.0
      ]
    }
  ],
  "meshes": [
    {
      "primitives": [
        {
          "attributes": {
            "POSITION": 0,
            "NORMAL": 1,
            "TEXCOORD_0": 2
          },
          "indices": 3,
          "material": 0
        }
      ]
    }
  ],
  "materials": [
    {
      "name": "ArmourSmall_material",
      "pbrMetallicRoughness": {
        "metallicFactor": 0,
        "roughnessFactor": 0.408248290463863,
        "baseColorTexture": {
          "index": 0
        }
      },
      "extras": {
        "gloom": {
          "sourceMaterial": "ArmourSmall_material"
        }
      },
      "extensions": {
        "KHR_materials_specular": {
          "specularFactor": 1,
          "specularColorTexture": {
            "index": 2
          }
        }
      },
      "normalTexture": {
        "index": 1
      }
    }
  ],
  "textures": [
    {
      "source": 0,
      "sampler": 0
    },
    {
      "source": 1,
      "sampler": 0
    },
    {
      "source": 2,
      "sampler": 0
    }
  ],
  "images": [
    {
      "uri": "textures/b7de708a2c8761d4.png"
    },
    {
      "uri": "textures/d70a2ab3751d32a3.png"
    },
    {
      "uri": "textures/cc5916ae6a5c5dac.png"
    }
  ],
  "samplers": [
    {
      "wrapS": 10497,
      "wrapT": 10497
    }
  ],
  "bufferViews": [
    {
      "buffer": 0,
      "byteOffset": 0,
      "byteLength": 95184
    },
    {
      "buffer": 0,
      "byteOffset": 95184,
      "byteLength": 95184
    },
    {
      "buffer": 0,
      "byteOffset": 190368,
      "byteLength": 63456
    },
    {
      "buffer": 0,
      "byteOffset": 253824,
      "byteLength": 31728
    }
  ],
  "accessors": [
    {
      "bufferView": 0,
      "componentType": 5126,
      "count": 7932,
      "type": "VEC3",
      "min": [
        -4.280666828155518,
        0.026308802887797356,
        -2.0160205364227295
      ],
      "max": [
        4.319482326507568,
        5.707891464233398,
        1.977205514907837
      ]
    },
    {
      "bufferView": 1,
      "componentType": 5126,
      "count": 7932,
      "type": "VEC3"
    },
    {
      "bufferView": 2,
      "componentType": 5126,
      "count": 7932,
      "type": "VEC2"
    },
    {
      "bufferView": 3,
      "componentType": 5125,
      "count": 7932,
      "type": "SCALAR"
    }
  ],
  "extensionsUsed": [
    "KHR_materials_specular",
    "KHR_materials_emissive_strength"
  ],
  "buffers": [
    {
      "uri": "armour_small.bin",
      "byteLength": 285552
    }
  ]
}