{
  "asset": {
    "version": "2.0",
    "generator": "Gloom legacy importer 1"
  },
  "scene": 0,
  "scenes": [
    {
      "nodes": [
        0,
        1,
        2,
        3,
        4,
        5,
        6,
        7,
        8,
        9,
        10,
        11,
        12,
        13,
        14,
        15,
        16,
        17,
        18,
        19,
        20,
        21,
        22,
        23,
        24,
        25,
        26,
        27,
        28,
        29,
        30,
        31,
        32,
        33,
        34,
        35,
        36,
        37,
        38,
        39,
        40,
        41,
        42,
        43,
        44,
        45,
        46,
        47,
        48,
        49,
        50,
        51,
        52,
        53,
        54,
        55,
        56,
        57,
        58,
        59,
        60,
        61,
        62,
        63,
        64,
        65,
        66,
        67,
        68,
        69,
        70,
        71,
        72,
        73
      ]
    }
  ],
  "nodes": [
    {
      "name": "World",
      "mesh": 0,
      "translation": [
        0.0,
        0.0,
        0.0
      ],
      "scale": [
        0.15,
        0.15,
        0.15
      ],
      "rotation": [
        0,
        0.0,
        0,
        1.0
      ]
    },
    {
      "name": "lavaFondo",
      "mesh": 1,
      "translation": [
        -32.699999999999996,
        -3.0,
        -10.155
      ],
      "scale": [
        0.15,
        0.15,
        0.15
      ],
      "rotation": [
        0,
        0.0,
        0,
        1.0
      ]
    },
    {
      "name": "Jumper1",
      "mesh": 2,
      "translation": [
        -41.309999999999995,
        0.075,
        4.215
      ],
      "scale": [
        0.15,
        0.15,
        0.15
      ],
      "rotation": [
        0,
        0.0,
        0,
        1.0
      ]
    },
    {
      "name": "Orb1",
      "mesh": 3,
      "translation": [
        -23.8479,
        11.839155,
        1.660155
      ],
      "scale": [
        0.15,
        0.15,
        0.15
      ],
      "rotation": [
        0,
        0.0,
        0,
        1.0
      ]
    },
    {
      "name": "Orb2",
      "mesh": 3,
      "translation": [
        -28.4313,
        0.0758841,
        5.768295
      ],
      "scale": [
        0.15,
        0.15,
        0.15
      ],
      "rotation": [
        0,
        0.0,
        0,
        1.0
      ]
    },
    {
      "name": "Orb3",
      "mesh": 3,
      "translation": [
        -59.48865,
        11.22876,
        -34.45215
      ],
      "scale": [
        0.15,
        0.15,
        0.15
      ],
      "rotation": [
        0,
        0.0,
        0,
        1.0
      ]
    },
    {
      "name": "Orb4",
      "mesh": 3,
      "translation": [
        -1.4248199999999998,
        0.0511695,
        1.2392145
      ],
      "scale": [
        0.15,
        0.15,
        0.15
      ],
      "rotation": [
        0,
        0.0,
        0,
        1.0
      ]
    },
    {
      "name": "Orb5",
      "mesh": 3,
      "translation": [
        10.761854999999999,
        0.07251705,
        -17.9619
      ],
      "scale": [
        0.15,
        0.15,
        0.15
      ],
      "rotation": [
        0,
        0.0,
        0,
        1.0
      ]
    },
    {
      "name": "SmallOrb1",
      "mesh": 4,
      "translation": [
        -17.433899999999998,
        9.492434999999999,
        -6.214575
      ],
      "scale": [
        0.15,
        0.15,
        0.15
      ],
      "rotation": [
        0,
        0.0,
        0,
        1.0
      ]
    },
    {
      "name": "SmallOrb2",
      "mesh": 4,
      "translation": [
        -15.3621,
        9.49233,
        -6.223245
      ],
      "scale": [
        0.15,
        0.15,
        0.15
      ],
      "rotation": [
        0,
        0.0,
        0,
        1.0
      ]
    },
    {
      "name": "SmallOrb3",
      "mesh": 4,
      "translation": [
        -13.484535,
        9.492105,
        -6.231105
      ],
      "scale": [
        0.15,
        0.15,
        0.15
      ],
      "rotation": [
        0,
        0.0,
        0,
        1.0
      ]
    },
    {
      "name": "SmallOrb4",
      "mesh": 4,
      "translation": [
        -11.008365,
        9.491594999999998,
        -6.24147
      ],
      "scale": [
        0.15,
        0.15,
        0.15
      ],
      "rotation": [
        0,
        0.0,
        0,
        1.0
      ]
    },
    {
      "name": "SmallOrb5",
      "mesh": 4,
      "translation": [
        -8.39898,
        9.490785,
        -6.25239
      ],
      "scale": [
        0.15,
        0.15,
        0.15
      ],
      "rotation": [
        0,
        0.0,
        0,
        1.0
      ]
    },
    {
      "name": "SmallOrb6",
      "mesh": 4,
      "translation": [
        -6.398805,
        9.489989999999999,
        -6.260759999999999
      ],
      "scale": [
        0.15,
        0.15,
        0.15
      ],
      "rotation": [
        0,
        0.0,
        0,
        1.0
      ]
    },
    {
      "name": "SmallOrb7",
      "mesh": 4,
      "translation": [
        -4.30179,
        9.488985,
        -6.269535
      ],
      "scale": [
        0.15,
        0.15,
        0.15
      ],
      "rotation": [
        0,
        0.0,
        0,
        1.0
      ]
    },
    {
      "name": "SmallOrb8",
      "mesh": 4,
      "translation": [
        -2.586645,
        9.48804,
        -6.27672
      ],
      "scale": [
        0.15,
        0.15,
        0.15
      ],
      "rotation": [
        0,
        0.0,
        0,
        1.0
      ]
    },
    {
      "name": "SmallOrb9",
      "mesh": 4,
      "translation": [
        -0.541515,
        9.486749999999999,
        -6.285284999999999
      ],
      "scale": [
        0.15,
        0.15,
        0.15
      ],
      "rotation": [
        0,
        0.0,
        0,
        1.0
      ]
    },
    {
      "name": "SmallOrb10",
      "mesh": 4,
      "translation": [
        5.843925,
        9.490395,
        -10.370685
      ],
      "scale": [
        0.15,
        0.15,
        0.15
      ],
      "rotation": [
        0,
        0.0,
        0,
        1.0
      ]
    },
    {
      "name": "SmallOrb11",
      "mesh": 4,
      "translation": [
        5.851019999999999,
        9.48966,
        -12.345315
      ],
      "scale": [
        0.15,
        0.15,
        0.15
      ],
      "rotation": [
        0,
        0.0,
        0,
        1.0
      ]
    },
    {
      "name": "SmallOrb12",
      "mesh": 4,
      "translation": [
        5.85639,
        9.48903,
        -13.84428
      ],
      "scale": [
        0.15,
        0.15,
        0.15
      ],
      "rotation": [
        0,
        0.0,
        0,
        1.0
      ]
    },
    {
      "name": "SmallOrb13",
      "mesh": 4,
      "translation": [
        5.863305,
        9.48813,
        -15.76845
      ],
      "scale": [
        0.15,
        0.15,
        0.15
      ],
      "rotation": [
        0,
        0.0,
        0,
        1.0
      ]
    },
    {
      "name": "SmallOrb14",
      "mesh": 4,
      "translation": [
        17.84025,
        0.07657605,
        4.82478
      ],
      "scale": [
        0.15,
        0.15,
        0.15
      ],
      "rotation": [
        0,
        0.0,
        0,
        1.0
      ]
    },
    {
      "name": "SmallOrb15",
      "mesh": 4,
      "translation": [
        19.872899999999998,
        0.07776435,
        4.857345
      ],
      "scale": [
        0.15,
        0.15,
        0.15
      ],
      "rotation": [
        0,
        0.0,
        0,
        1.0
      ]
    },
    {
      "name": "SmallOrb16",
      "mesh": 4,
      "translation": [
        22.072799999999997,
        0.07905045,
        4.892595
      ],
      "scale": [
        0.15,
        0.15,
        0.15
      ],
      "rotation": [
        0,
        0.0,
        0,
        1.0
      ]
    },
    {
      "name": "SmallOrb17",
      "mesh": 4,
      "translation": [
        -24.2517,
        0.06963659999999999,
        -11.385329999999998
      ],
      "scale": [
        0.15,
        0.15,
        0.15
      ],
      "rotation": [
        0,
        0.0,
        0,
        1.0
      ]
    },
    {
      "name": "SmallOrb18",
      "mesh": 4,
      "translation": [
        -26.50695,
        0.06763755,
        -11.317125
      ],
      "scale": [
        0.15,
        0.15,
        0.15
      ],
      "rotation": [
        0,
        0.0,
        0,
        1.0
      ]
    },
    {
      "name": "SmallOrb19",
      "mesh": 4,
      "translation": [
        -36.715799999999994,
        0.06848789999999999,
        -11.346135
      ],
      "scale": [
        0.15,
        0.15,
        0.15
      ],
      "rotation": [
        0,
        0.0,
        0,
        1.0
      ]
    },
    {
      "name": "SmallOrb20",
      "mesh": 4,
      "translation": [
        -38.87475,
        0.0681411,
        -11.334299999999999
      ],
      "scale": [
        0.15,
        0.15,
        0.15
      ],
      "rotation": [
        0,
        0.0,
        0,
        1.0
      ]
    },
    {
      "name": "SmallOrb21",
      "mesh": 4,
      "translation": [
        -41.13375,
        0.0677781,
        -11.321925
      ],
      "scale": [
        0.15,
        0.15,
        0.15
      ],
      "rotation": [
        0,
        0.0,
        0,
        1.0
      ]
    },
    {
      "name": "SmallOrb22",
      "mesh": 4,
      "translation": [
        -43.42185,
        0.0674106,
        -11.309384999999999
      ],
      "scale": [
        0.15,
        0.15,
        0.15
      ],
      "rotation": [
        0,
        0.0,
        0,
        1.0
      ]
    },
    {
      "name": "SmallOrb23",
      "mesh": 4,
      "translation": [
        -49.2054,
        0.09490515,
        4.263045
      ],
      "scale": [
        0.15,
        0.15,
        0.15
      ],
      "rotation": [
        0,
        0.0,
        0,
        1.0
      ]
    },
    {
      "name": "SmallOrb24",
      "mesh": 4,
      "translation": [
        -47.3334,
        0.0931917,
        4.25784
      ],
      "scale": [
        0.15,
        0.15,
        0.15
      ],
      "rotation": [
        0,
        0.0,
        0,
        1.0
      ]
    },
    {
      "name": "SmallOrb25",
      "mesh": 4,
      "translation": [
        -44.864250000000006,
        0.09093105,
        4.25097
      ],
      "scale": [
        0.15,
        0.15,
        0.15
      ],
      "rotation": [
        0,
        0.0,
        0,
        1.0
      ]
    },
    {
      "name": "SmallOrb26",
      "mesh": 4,
      "translation": [
        -46.23135,
        11.213579999999999,
        -11.304795
      ],
      "scale": [
        0.15,
        0.15,
        0.15
      ],
      "rotation": [
        0,
        0.0,
        0,
        1.0
      ]
    },
    {
      "name": "SmallOrb27",
      "mesh": 4,
      "translation": [
        -42.66585,
        11.208884999999999,
        -11.06379
      ],
      "scale": [
        0.15,
        0.15,
        0.15
      ],
      "rotation": [
        0,
        0.0,
        0,
        1.0
      ]
    },
    {
      "name": "SmallOrb28",
      "mesh": 4,
      "translation": [
        -39.0309,
        11.20581,
        -10.906574999999998
      ],
      "scale": [
        0.15,
        0.15,
        0.15
      ],
      "rotation": [
        0,
        0.0,
        0,
        1.0
      ]
    },
    {
      "name": "SmallOrb29",
      "mesh": 4,
      "translation": [
        -32.69865,
        11.32926,
        -5.98575
      ],
      "scale": [
        0.15,
        0.15,
        0.15
      ],
      "rotation": [
        0,
        0.0,
        0,
        1.0
      ]
    },
    {
      "name": "SmallOrb30",
      "mesh": 4,
      "translation": [
        -32.61255,
        11.43774,
        -2.980455
      ],
      "scale": [
        0.15,
        0.15,
        0.15
      ],
      "rotation": [
        0,
        0.0,
        0,
        1.0
      ]
    },
    {
      "name": "SmallOrb31",
      "mesh": 4,
      "translation": [
        -32.52255,
        11.551215,
        0.16329
      ],
      "scale": [
        0.15,
        0.15,
        0.15
      ],
      "rotation": [
        0,
        0.0,
        0,
        1.0
      ]
    },
    {
      "name": "SmallOrb32",
      "mesh": 4,
      "translation": [
        -30.014849999999996,
        8.494605,
        -34.3338
      ],
      "scale": [
        0.15,
        0.15,
        0.15
      ],
      "rotation": [
        0,
        0.0,
        0,
        1.0
      ]
    },
    {
      "name": "SmallOrb33",
      "mesh": 4,
      "translation": [
        -33.1962,
        9.059159999999999,
        -34.24905
      ],
      "scale": [
        0.15,
        0.15,
        0.15
      ],
      "rotation": [
        0,
        0.0,
        0,
        1.0
      ]
    },
    {
      "name": "SmallOrb34",
      "mesh": 4,
      "translation": [
        -36.702299999999994,
        9.68592,
        -34.5723
      ],
      "scale": [
        0.15,
        0.15,
        0.15
      ],
      "rotation": [
        0,
        0.0,
        0,
        1.0
      ]
    },
    {
      "name": "SmallOrb35",
      "mesh": 4,
      "translation": [
        -40.417049999999996,
        10.34514,
        -34.47345
      ],
      "scale": [
        0.15,
        0.15,
        0.15
      ],
      "rotation": [
        0,
        0.0,
        0,
        1.0
      ]
    },
    {
      "name": "SmallOrb36",
      "mesh": 4,
      "translation": [
        -34.295249999999996,
        0.08133209999999999,
        -34.35105
      ],
      "scale": [
        0.15,
        0.15,
        0.15
      ],
      "rotation": [
        0,
        0.0,
        0,
        1.0
      ]
    },
    {
      "name": "SmallOrb37",
      "mesh": 4,
      "translation": [
        -31.480199999999996,
        0.07875494999999999,
        -34.3212
      ],
      "scale": [
        0.15,
        0.15,
        0.15
      ],
      "rotation": [
        0,
        0.0,
        0,
        1.0
      ]
    },
    {
      "name": "SmallOrb38",
      "mesh": 4,
      "translation": [
        -28.50375,
        0.0760299,
        -34.2897
      ],
      "scale": [
        0.15,
        0.15,
        0.15
      ],
      "rotation": [
        0,
        0.0,
        0,
        1.0
      ]
    },
    {
      "name": "SmallOrb39",
      "mesh": 4,
      "translation": [
        -25.87935,
        0.07362735,
        -34.26195
      ],
      "scale": [
        0.15,
        0.15,
        0.15
      ],
      "rotation": [
        0,
        0.0,
        0,
        1.0
      ]
    },
    {
      "name": "SmallOrb40",
      "mesh": 4,
      "translation": [
        -49.88745,
        9.45855,
        7.924049999999999
      ],
      "scale": [
        0.15,
        0.15,
        0.15
      ],
      "rotation": [
        0,
        0.0,
        0,
        1.0
      ]
    },
    {
      "name": "SmallOrb41",
      "mesh": 4,
      "translation": [
        -47.1255,
        9.46083,
        7.9380299999999995
      ],
      "scale": [
        0.15,
        0.15,
        0.15
      ],
      "rotation": [
        0,
        0.0,
        0,
        1.0
      ]
    },
    {
      "name": "SmallOrb42",
      "mesh": 4,
      "translation": [
        -43.80975,
        9.463545,
        7.95483
      ],
      "scale": [
        0.15,
        0.15,
        0.15
      ],
      "rotation": [
        0,
        0.0,
        0,
        1.0
      ]
    },
    {
      "name": "SmallOrb43",
      "mesh": 4,
      "translation": [
        -40.93905,
        9.465914999999999,
        7.969365
      ],
      "scale": [
        0.15,
        0.15,
        0.15
      ],
      "rotation": [
        0,
        0.0,
        0,
        1.0
      ]
    },
    {
      "name": "Shotgun",
      "mesh": 5,
      "translation": [
        33.484049999999996,
        0.0856221,
        -9.800384999999999
      ],
      "scale": [
        0.15,
        0.15,
        0.15
      ],
      "rotation": [
        0,
        0.0,
        0,
        1.0
      ]
    },
    {
      "name": "Shotgun2",
      "mesh": 5,
      "translation": [
        10.07793,
        11.798835,
        4.129785
      ],
      "scale": [
        0.15,
        0.15,
        0.15
      ],
      "rotation": [
        0,
        0.0,
        0,
        1.0
      ]
    },
    {
      "name": "Sniper",
      "mesh": 6,
      "translation": [
        6.577514999999999,
        7.182045,
        -28.2018
      ],
      "scale": [
        0.15,
        0.15,
        0.15
      ],
      "rotation": [
        0,
        0.0,
        0,
        1.0
      ]
    },
    {
      "name": "IronHellGoat",
      "mesh": 7,
      "translation": [
        -59.67,
        0.09,
        -34.05
      ],
      "scale": [
        0.15,
        0.15,
        0.15
      ],
      "rotation": [
        0,
        0.0,
        0,
        1.0
      ]
    },
    {
      "name": "IronHellGoat2",
      "mesh": 7,
      "translation": [
        4.569764999999999,
        0.045675,
        4.538175
      ],
      "scale": [
        0.15,
        0.15,
        0.15
      ],
      "rotation": [
        0,
        0.0,
        0,
        1.0
      ]
    },
    {
      "name": "SuperShield",
      "mesh": 8,
      "translation": [
        -57.5274,
        11.269995,
        -11.13876
      ],
      "scale": [
        0.15,
        0.15,
        0.15
      ],
      "rotation": [
        0,
        0.0,
        0,
        1.0
      ]
    },
    {
      "name": "Shield",
      "mesh": 9,
      "translation": [
        -55.7487,
        0.0759411,
        -11.523615
      ],
      "scale": [
        0.15,
        0.15,
        0.15
      ],
      "rotation": [
        0,
        0.0,
        0,
        1.0
      ]
    },
    {
      "name": "ShotgunAmmo1",
      "mesh": 10,
      "translation": [
        17.84745,
        0.076587,
        -21.5421
      ],
      "scale": [
        0.15,
        0.15,
        0.15
      ],
      "rotation": [
        0,
        0.0,
        0,
        1.0
      ]
    },
    {
      "name": "ShotgunAmmo2",
      "mesh": 10,
      "translation": [
        33.75345,
        0.08577344999999999,
        -10.708499999999999
      ],
      "scale": [
        0.15,
        0.15,
        0.15
      ],
      "rotation": [
        0,
        0.0,
        0,
        1.0
      ]
    },
    {
      "name": "ShotgunAmmo3",
      "mesh": 10,
      "translation": [
        33.75345,
        0.08577344999999999,
        -10.708499999999999
      ],
      "scale": [
        0.15,
        0.15,
        0.15
      ],
      "rotation": [
        0,
        0.0,
        0,
        1.0
      ]
    },
    {
      "name": "ShotgunAmmo4",
      "mesh": 10,
      "translation": [
        -54.42855,
        0.09967530000000001,
        10.04088
      ],
      "scale": [
        0.15,
        0.15,
        0.15
      ],
      "rotation": [
        0,
        0.0,
        0,
        1.0
      ]
    },
    {
      "name": "ShotgunAmmo5",
      "mesh": 10,
      "translation": [
        9.652439999999999,
        11.797935,
        -1.3012335
      ],
      "scale": [
        0.15,
        0.15,
        0.15
      ],
      "rotation": [
        0,
        0.0,
        0,
        1.0
      ]
    },
    {
      "name": "IronHellGoatAmmo1",
      "mesh": 11,
      "translation": [
        11.023935,
        0.0723675,
        -2.5994999999999995
      ],
      "scale": [
        0.15,
        0.15,
        0.15
      ],
      "rotation": [
        0,
        0.0,
        0,
        1.0
      ]
    },
    {
      "name": "IronHellGoatAmmo2",
      "mesh": 11,
      "translation": [
        10.012424999999999,
        0.07205969999999999,
        -4.027095
      ],
      "scale": [
        0.15,
        0.15,
        0.15
      ],
      "rotation": [
        0,
        0.0,
        0,
        1.0
      ]
    },
    {
      "name": "IronHellGoatAmmo3",
      "mesh": 11,
      "translation": [
        -56.986349999999995,
        0.10210575,
        -34.63455
      ],
      "scale": [
        0.15,
        0.15,
        0.15
      ],
      "rotation": [
        0,
        0.0,
        0,
        1.0
      ]
    },
    {
      "name": "MinigunAmmo1",
      "mesh": 12,
      "translation": [
        7.282184999999999,
        0.0432525,
        -25.83645
      ],
      "scale": [
        0.15,
        0.15,
        0.15
      ],
      "rotation": [
        0,
        0.0,
        0,
        1.0
      ]
    },
    {
      "name": "MinigunAmmo2",
      "mesh": 12,
      "translation": [
        -22.8948,
        0.07089015,
        -31.7445
      ],
      "scale": [
        0.15,
        0.15,
        0.15
      ],
      "rotation": [
        0,
        0.0,
        0,
        1.0
      ]
    },
    {
      "name": "MinigunAmmo3",
      "mesh": 12,
      "translation": [
        -22.8519,
        0.0708441,
        -28.240199999999998
      ],
      "scale": [
        0.15,
        0.15,
        0.15
      ],
      "rotation": [
        0,
        0.0,
        0,
        1.0
      ]
    },
    {
      "name": "SniperAmmo1",
      "mesh": 13,
      "translation": [
        -60.09375,
        0.09473145,
        -17.8599
      ],
      "scale": [
        0.15,
        0.15,
        0.15
      ],
      "rotation": [
        0,
        0.0,
        0,
        1.0
      ]
    },
    {
      "name": "SniperAmmo2",
      "mesh": 13,
      "translation": [
        -60.08085,
        0.1048635,
        3.27183
      ],
      "scale": [
        0.15,
        0.15,
        0.15
      ],
      "rotation": [
        0,
        0.0,
        0,
        1.0
      ]
    },
    {
      "name": "SniperAmmo3",
      "mesh": 13,
      "translation": [
        7.053974999999999,
        7.181355,
        -31.731299999999997
      ],
      "scale": [
        0.15,
        0.15,
        0.15
      ],
      "rotation": [
        0,
        0.0,
        0,
        1.0
      ]
    },
    {
      "name": "SniperAmmo4",
      "mesh": 13,
      "translation": [
        -55.80165,
        11.286435,
        -1.330941
      ],
      "scale": [
        0.15,
        0.15,
        0.15
      ],
      "rotation": [
        0,
        0.0,
        0,
        1.0
      ]
    },
    {
      "name": "SniperAmmo5",
      "mesh": 13,
      "translation": [
        -55.802699999999994,
        11.28648,
        -20.814600000000002
      ],
      "scale": [
        0.15,
        0.15,
        0.15
      ],
      "rotation": [
        0,
        0.0,
        0,
        1.0
      ]
    }
  ],
  "meshes": [
    {
      "primitives": [
        {
          "attributes": {
            "POSITION": 0,
            "NORMAL": 1,
            "TEXCOORD_0": 2
          },
          "indices": 3,
          "material": 0
        },
        {
          "attributes": {
            "POSITION": 4,
            "NORMAL": 5,
            "TEXCOORD_0": 6
          },
          "indices": 7,
          "material": 1
        },
        {
          "attributes": {
            "POSITION": 8,
            "NORMAL": 9,
            "TEXCOORD_0": 10
          },
          "indices": 11,
          "material": 2
        },
        {
          "attributes": {
            "POSITION": 12,
            "NORMAL": 13,
            "TEXCOORD_0": 14
          },
          "indices": 15,
          "material": 3
        },
        {
          "attributes": {
            "POSITION": 16,
            "NORMAL": 17,
            "TEXCOORD_0": 18
          },
          "indices": 19,
          "material": 4
        },
        {
          "attributes": {
            "POSITION": 20,
            "NORMAL": 21,
            "TEXCOORD_0": 22
          },
          "indices": 23,
          "material": 5
        },
        {
          "attributes": {
            "POSITION": 24,
            "NORMAL": 25,
            "TEXCOORD_0": 26
          },
          "indices": 27,
          "material": 6
        },
        {
          "attributes": {
            "POSITION": 28,
            "NORMAL": 29,
            "TEXCOORD_0": 30
          },
          "indices": 31,
          "material": 7
        },
        {
          "attributes": {
            "POSITION": 32,
            "NORMAL": 33,
            "TEXCOORD_0": 34
          },
          "indices": 35,
          "material": 8
        },
        {
          "attributes": {
            "POSITION": 36,
            "NORMAL": 37,
            "TEXCOORD_0": 38
          },
          "indices": 39,
          "material": 9
        },
        {
          "attributes": {
            "POSITION": 40,
            "NORMAL": 41,
            "TEXCOORD_0": 42
          },
          "indices": 43,
          "material": 10
        },
        {
          "attributes": {
            "POSITION": 44,
            "NORMAL": 45,
            "TEXCOORD_0": 46
          },
          "indices": 47,
          "material": 11
        },
        {
          "attributes": {
            "POSITION": 48,
            "NORMAL": 49,
            "TEXCOORD_0": 50
          },
          "indices": 51,
          "material": 12
        },
        {
          "attributes": {
            "POSITION": 52,
            "NORMAL": 53,
            "TEXCOORD_0": 54
          },
          "indices": 55,
          "material": 13
        },
        {
          "attributes": {
            "POSITION": 56,
            "NORMAL": 57,
            "TEXCOORD_0": 58
          },
          "indices": 59,
          "material": 14
        },
        {
          "attributes": {
            "POSITION": 60,
            "NORMAL": 61,
            "TEXCOORD_0": 62
          },
          "indices": 63,
          "material": 15
        }
      ]
    },
    {
      "primitives": [
        {
          "attributes": {
            "POSITION": 64,
            "NORMAL": 65,
            "TEXCOORD_0": 66
          },
          "indices": 67,
          "material": 16
        }
      ]
    },
    {
      "primitives": [
        {
          "attributes": {
            "POSITION": 68,
            "NORMAL": 69,
            "TEXCOORD_0": 70
          },
          "indices": 71,
          "material": 17
        },
        {
          "attributes": {
            "POSITION": 72,
            "NORMAL": 73,
            "TEXCOORD_0": 74
          },
          "indices": 75,
          "material": 18
        },
        {
          "attributes": {
            "POSITION": 76,
            "NORMAL": 77,
            "TEXCOORD_0": 78
          },
          "indices": 79,
          "material": 19
        }
      ]
    },
    {
      "primitives": [
        {
          "attributes": {
            "POSITION": 80,
            "NORMAL": 81,
            "TEXCOORD_0": 82
          },
          "indices": 83,
          "material": 20
        }
      ]
    },
    {
      "primitives": [
        {
          "attributes": {
            "POSITION": 84,
            "NORMAL": 85,
            "TEXCOORD_0": 86
          },
          "indices": 87,
          "material": 21
        }
      ]
    },
    {
      "primitives": [
        {
          "attributes": {
            "POSITION": 88,
            "NORMAL": 89,
            "TEXCOORD_0": 90
          },
          "indices": 91,
          "material": 22
        }
      ]
    },
    {
      "primitives": [
        {
          "attributes": {
            "POSITION": 92,
            "NORMAL": 93,
            "TEXCOORD_0": 94
          },
          "indices": 95,
          "material": 23
        }
      ]
    },
    {
      "primitives": [
        {
          "attributes": {
            "POSITION": 96,
            "NORMAL": 97,
            "TEXCOORD_0": 98
          },
          "indices": 99,
          "material": 24
        }
      ]
    },
    {
      "primitives": [
        {
          "attributes": {
            "POSITION": 100,
            "NORMAL": 101,
            "TEXCOORD_0": 102
          },
          "indices": 103,
          "material": 25
        }
      ]
    },
    {
      "primitives": [
        {
          "attributes": {
            "POSITION": 104,
            "NORMAL": 105,
            "TEXCOORD_0": 106
          },
          "indices": 107,
          "material": 26
        }
      ]
    },
    {
      "primitives": [
        {
          "attributes": {
            "POSITION": 108,
            "NORMAL": 109,
            "TEXCOORD_0": 110
          },
          "indices": 111,
          "material": 27
        }
      ]
    },
    {
      "primitives": [
        {
          "attributes": {
            "POSITION": 112,
            "NORMAL": 113,
            "TEXCOORD_0": 114
          },
          "indices": 115,
          "material": 28
        }
      ]
    },
    {
      "primitives": [
        {
          "attributes": {
            "POSITION": 116,
            "NORMAL": 117,
            "TEXCOORD_0": 118
          },
          "indices": 119,
          "material": 29
        }
      ]
    },
    {
      "primitives": [
        {
          "attributes": {
            "POSITION": 120,
            "NORMAL": 121,
            "TEXCOORD_0": 122
          },
          "indices": 123,
          "material": 30
        }
      ]
    }
  ],
  "materials": [
    {
      "name": "mapaAlberto_piedra",
      "pbrMetallicRoughness": {
        "metallicFactor": 0,
        "roughnessFactor": 0.408248290463863,
        "baseColorTexture": {
          "index": 0
        }
      },
      "extras": {
        "gloom": {
          "sourceMaterial": "mapaAlberto_piedra"
        }
      },
      "extensions": {
        "KHR_materials_specular": {
          "specularFactor": 1,
          "specularColorTexture": {
            "index": 2
          }
        }
      },
      "normalTexture": {
        "index": 1
      }
    },
    {
      "name": "mapaAlberto_metalpuerta",
      "pbrMetallicRoughness": {
        "metallicFactor": 0,
        "roughnessFactor": 0.408248290463863,
        "baseColorTexture": {
          "index": 3
        }
      },
      "extras": {
        "gloom": {
          "sourceMaterial": "mapaAlberto_metalpuerta"
        }
      },
      "extensions": {
        "KHR_materials_specular": {
          "specularFactor": 1,
          "specularColorTexture": {
            "index": 5
          }
        }
      },
      "normalTexture": {
        "index": 4
      }
    },
    {
      "name": "mapaAlberto_bronzecopper",
      "pbrMetallicRoughness": {
        "metallicFactor": 0,
        "roughnessFactor": 0.408248290463863,
        "baseColorTexture": {
          "index": 6
        }
      },
      "extras": {
        "gloom": {
          "sourceMaterial": "mapaAlberto_bronzecopper"
        }
      },
      "extensions": {
        "KHR_materials_specular": {
          "specularFactor": 1,
          "specularColorTexture": {
            "index": 8
          }
        }
      },
      "normalTexture": {
        "index": 7
      }
    },
    {
      "name": "mapaAlberto_suelo",
      "pbrMetallicRoughness": {
        "metallicFactor": 0,
        "roughnessFactor": 0.408248290463863,
        "baseColorTexture": {
          "index": 9
        }
      },
      "extras": {
        "gloom": {
          "sourceMaterial": "mapaAlberto_suelo"
        }
      },
      "extensions": {
        "KHR_materials_specular": {
          "specularFactor": 1,
          "specularColorTexture": {
            "index": 11
          }
        }
      },
      "normalTexture": {
        "index": 10
      }
    },
    {
      "name": "mapaAlberto_comluman",
      "pbrMetallicRoughness": {
        "metallicFactor": 0,
        "roughnessFactor": 0.408248290463863,
        "baseColorTexture": {
          "index": 12
        }
      },
      "extras": {
        "gloom": {
          "sourceMaterial": "mapaAlberto_comluman"
        }
      },
      "extensions": {
        "KHR_materials_specular": {
          "specularFactor": 1,
          "specularColorTexture": {
            "index": 14
          }
        }
      },
      "normalTexture": {
        "index": 13
      }
    },
    {
      "name": "mapaAlberto_viga",
      "pbrMetallicRoughness": {
        "metallicFactor": 0,
        "roughnessFactor": 0.408248290463863,
        "baseColorTexture": {
          "index": 15
        }
      },
      "extras": {
        "gloom": {
          "sourceMaterial": "mapaAlberto_viga"
        }
      },
      "extensions": {
        "KHR_materials_specular": {
          "specularFactor": 1,
          "specularColorTexture": {
            "index": 17
          }
        }
      },
      "normalTexture": {
        "index": 16
      }
    },
    {
      "name": "mapaAlberto_metalContainer",
      "pbrMetallicRoughness": {
        "metallicFactor": 0,
        "roughnessFactor": 0.408248290463863,
        "baseColorTexture": {
          "index": 18
        }
      },
      "extras": {
        "gloom": {
          "sourceMaterial": "mapaAlberto_metalContainer"
        }
      },
      "extensions": {
        "KHR_materials_specular": {
          "specularFactor": 1,
          "specularColorTexture": {
            "index": 20
          }
        }
      },
      "normalTexture": {
        "index": 19
      }
    },
    {
      "name": "mapaAlberto_suelometal",
      "pbrMetallicRoughness": {
        "metallicFactor": 0,
        "roughnessFactor": 0.408248290463863,
        "baseColorTexture": {
          "index": 21
        }
      },
      "extras": {
        "gloom": {
          "sourceMaterial": "mapaAlberto_suelometal"
        }
      },
      "extensions": {
        "KHR_materials_specular": {
          "specularFactor": 1,
          "specularColorTexture": {
            "index": 23
          }
        }
      },
      "normalTexture": {
        "index": 22
      }
    },
    {
      "name": "mapaAlberto_ventana",
      "pbrMetallicRoughness": {
        "metallicFactor": 0,
        "roughnessFactor": 0.408248290463863,
        "baseColorTexture": {
          "index": 24
        }
      },
      "extras": {
        "gloom": {
          "sourceMaterial": "mapaAlberto_ventana"
        }
      },
      "extensions": {
        "KHR_materials_specular": {
          "specularFactor": 1,
          "specularColorTexture": {
            "index": 26
          }
        }
      },
      "normalTexture": {
        "index": 25
      }
    },
    {
      "name": "mapaAlberto_techometal",
      "pbrMetallicRoughness": {
        "metallicFactor": 0,
        "roughnessFactor": 0.408248290463863,
        "baseColorTexture": {
          "index": 21
        }
      },
      "extras": {
        "gloom": {
          "sourceMaterial": "mapaAlberto_techometal"
        }
      },
      "extensions": {
        "KHR_materials_specular": {
          "specularFactor": 1,
          "specularColorTexture": {
            "index": 23
          }
        }
      },
      "normalTexture": {
        "index": 22
      }
    },
    {
      "name": "mapaAlberto_blanco",
      "pbrMetallicRoughness": {
        "metallicFactor": 0,
        "roughnessFactor": 0.6389431042462724,
        "baseColorTexture": {
          "index": 27
        }
      },
      "extras": {
        "gloom": {
          "sourceMaterial": "mapaAlberto_blanco"
        }
      },
      "extensions": {}
    },
    {
      "name": "mapaAlberto_mix",
      "pbrMetallicRoughness": {
        "metallicFactor": 0,
        "roughnessFactor": 0.6389431042462724
      },
      "extras": {
        "gloom": {
          "sourceMaterial": "mapaAlberto_mix"
        }
      },
      "extensions": {}
    },
    {
      "name": "mapaAlberto_luces",
      "pbrMetallicRoughness": {
        "metallicFactor": 0,
        "roughnessFactor": 0.6389431042462724,
        "baseColorTexture": {
          "index": 28
        }
      },
      "extras": {
        "gloom": {
          "sourceMaterial": "mapaAlberto_luces"
        }
      },
      "extensions": {
        "KHR_materials_emissive_strength": {
          "emissiveStrength": 1.0
        }
      },
      "emissiveTexture": {
        "index": 28
      },
      "emissiveFactor": [
        1,
        1,
        1
      ]
    },
    {
      "name": "mapaAlberto_metalContainers",
      "pbrMetallicRoughness": {
        "metallicFactor": 0,
        "roughnessFactor": 0.408248290463863,
        "baseColorTexture": {
          "index": 18
        }
      },
      "extras": {
        "gloom": {
          "sourceMaterial": "mapaAlberto_metalContainers"
        }
      },
      "extensions": {
        "KHR_materials_specular": {
          "specularFactor": 1,
          "specularColorTexture": {
            "index": 20
          }
        }
      },
      "normalTexture": {
        "index": 19
      }
    },
    {
      "name": "metalContainer_metalContainer0036",
      "pbrMetallicRoughness": {
        "metallicFactor": 0,
        "roughnessFactor": 0.408248290463863,
        "baseColorTexture": {
          "index": 29
        }
      },
      "extras": {
        "gloom": {
          "sourceMaterial": "metalContainer_metalContainer0036"
        }
      },
      "extensions": {
        "KHR_materials_specular": {
          "specularFactor": 1,
          "specularColorTexture": {
            "index": 31
          }
        }
      },
      "normalTexture": {
        "index": 30
      }
    },
    {
      "name": "mapaAlberto_metalContainer0149",
      "pbrMetallicRoughness": {
        "metallicFactor": 0,
        "roughnessFactor": 0.408248290463863,
        "baseColorTexture": {
          "index": 32
        }
      },
      "extras": {
        "gloom": {
          "sourceMaterial": "mapaAlberto_metalContainer0149"
        }
      },
      "extensions": {
        "KHR_materials_specular": {
          "specularFactor": 1,
          "specularColorTexture": {
            "index": 34
          }
        }
      },
      "normalTexture": {
        "index": 33
      }
    },
    {
      "name": "lavaFondo",
      "pbrMetallicRoughness": {
        "metallicFactor": 0,
        "roughnessFactor": 0.408248290463863,
        "baseColorTexture": {
          "index": 35
        }
      },
      "extras": {
        "gloom": {
          "sourceMaterial": "lavaFondo",
          "uvScroll": [
            0.025,
            0.015
          ],
          "lavaWave": 0.025
        }
      },
      "extensions": {
        "KHR_materials_specular": {
          "specularFactor": 1,
          "specularColorTexture": {
            "index": 37
          }
        },
        "KHR_materials_emissive_strength": {
          "emissiveStrength": 2.0
        }
      },
      "normalTexture": {
        "index": 36
      },
      "emissiveTexture": {
        "index": 39
      },
      "emissiveFactor": [
        1,
        1,
        1
      ]
    },
    {
      "name": "Jump",
      "pbrMetallicRoughness": {
        "metallicFactor": 0,
        "roughnessFactor": 0.408248290463863,
        "baseColorTexture": {
          "index": 40
        }
      },
      "extras": {
        "gloom": {
          "sourceMaterial": "Jump"
        }
      },
      "extensions": {
        "KHR_materials_specular": {
          "specularFactor": 1,
          "specularColorTexture": {
            "index": 42
          }
        },
        "KHR_materials_emissive_strength": {
          "emissiveStrength": 1.0
        }
      },
      "normalTexture": {
        "index": 41
      },
      "emissiveTexture": {
        "index": 44
      },
      "emissiveFactor": [
        1,
        1,
        1
      ]
    },
    {
      "name": "Jump_Halo",
      "pbrMetallicRoughness": {
        "metallicFactor": 0,
        "roughnessFactor": 0.6389431042462724,
        "baseColorTexture": {
          "index": 45
        }
      },
      "extras": {
        "gloom": {
          "sourceMaterial": "Jump_Halo"
        }
      },
      "extensions": {}
    },
    {
      "name": "jumperRing",
      "pbrMetallicRoughness": {
        "metallicFactor": 0,
        "roughnessFactor": 0.6389431042462724,
        "baseColorTexture": {
          "index": 46
        }
      },
      "extras": {
        "gloom": {
          "sourceMaterial": "jumperRing"
        }
      },
      "extensions": {}
    },
    {
      "name": "healthpack",
      "pbrMetallicRoughness": {
        "metallicFactor": 0,
        "roughnessFactor": 0.6389431042462724,
        "baseColorTexture": {
          "index": 47
        }
      },
      "extras": {
        "gloom": {
          "sourceMaterial": "healthpack"
        }
      },
      "extensions": {}
    },
    {
      "name": "healthvial",
      "pbrMetallicRoughness": {
        "metallicFactor": 0,
        "roughnessFactor": 0.6389431042462724,
        "baseColorTexture": {
          "index": 48
        }
      },
      "extras": {
        "gloom": {
          "sourceMaterial": "healthvial"
        }
      },
      "extensions": {}
    },
    {
      "name": "shotGun",
      "pbrMetallicRoughness": {
        "metallicFactor": 0,
        "roughnessFactor": 0.408248290463863,
        "baseColorTexture": {
          "index": 49
        }
      },
      "extras": {
        "gloom": {
          "sourceMaterial": "shotGun"
        }
      },
      "extensions": {
        "KHR_materials_specular": {
          "specularFactor": 1,
          "specularColorTexture": {
            "index": 51
          }
        }
      },
      "normalTexture": {
        "index": 50
      }
    },
    {
      "name": "sniper",
      "pbrMetallicRoughness": {
        "metallicFactor": 0,
        "roughnessFactor": 0.408248290463863,
        "baseColorTexture": {
          "index": 52
        }
      },
      "extras": {
        "gloom": {
          "sourceMaterial": "sniper"
        }
      },
      "extensions": {
        "KHR_materials_specular": {
          "specularFactor": 1,
          "specularColorTexture": {
            "index": 54
          }
        }
      },
      "normalTexture": {
        "index": 53
      }
    },
    {
      "name": "IronHellGoat",
      "pbrMetallicRoughness": {
        "metallicFactor": 0,
        "roughnessFactor": 0.6389431042462724,
        "baseColorTexture": {
          "index": 55
        }
      },
      "extras": {
        "gloom": {
          "sourceMaterial": "IronHellGoat"
        }
      },
      "extensions": {}
    },
    {
      "name": "Armour_material",
      "pbrMetallicRoughness": {
        "metallicFactor": 0,
        "roughnessFactor": 0.408248290463863,
        "baseColorTexture": {
          "index": 56
        }
      },
      "extras": {
        "gloom": {
          "sourceMaterial": "Armour_material"
        }
      },
      "extensions": {
        "KHR_materials_specular": {
          "specularFactor": 1,
          "specularColorTexture": {
            "index": 58
          }
        }
      },
      "normalTexture": {
        "index": 57
      }
    },
    {
      "name": "ArmourSmall_material",
      "pbrMetallicRoughness": {
        "metallicFactor": 0,
        "roughnessFactor": 0.408248290463863,
        "baseColorTexture": {
          "index": 59
        }
      },
      "extras": {
        "gloom": {
          "sourceMaterial": "ArmourSmall_material"
        }
      },
      "extensions": {
        "KHR_materials_specular": {
          "specularFactor": 1,
          "specularColorTexture": {
            "index": 58
          }
        }
      },
      "normalTexture": {
        "index": 57
      }
    },
    {
      "name": "shotGunAmmo",
      "pbrMetallicRoughness": {
        "metallicFactor": 0,
        "roughnessFactor": 0.6389431042462724,
        "baseColorTexture": {
          "index": 60
        }
      },
      "extras": {
        "gloom": {
          "sourceMaterial": "shotGunAmmo"
        }
      },
      "extensions": {
        "KHR_materials_emissive_strength": {
          "emissiveStrength": 1.0
        }
      },
      "emissiveTexture": {
        "index": 61
      },
      "emissiveFactor": [
        1,
        1,
        1
      ]
    },
    {
      "name": "IronHellGoatAmmo",
      "pbrMetallicRoughness": {
        "metallicFactor": 0,
        "roughnessFactor": 0.408248290463863,
        "baseColorTexture": {
          "index": 62
        }
      },
      "extras": {
        "gloom": {
          "sourceMaterial": "IronHellGoatAmmo"
        }
      },
      "extensions": {},
      "normalTexture": {
        "index": 63
      }
    },
    {
      "name": "01-Default",
      "pbrMetallicRoughness": {
        "metallicFactor": 0,
        "roughnessFactor": 0.6389431042462724
      },
      "extras": {
        "gloom": {
          "sourceMaterial": "01-Default"
        }
      },
      "extensions": {}
    },
    {
      "name": "sniperAmmo",
      "pbrMetallicRoughness": {
        "metallicFactor": 0,
        "roughnessFactor": 0.6389431042462724,
        "baseColorTexture": {
          "index": 64
        }
      },
      "extras": {
        "gloom": {
          "sourceMaterial": "sniperAmmo"
        }
      },
      "extensions": {
        "KHR_materials_emissive_strength": {
          "emissiveStrength": 1.0
        }
      },
      "emissiveTexture": {
        "index": 65
      },
      "emissiveFactor": [
        1,
        1,
        1
      ]
    }
  ],
  "textures": [
    {
      "source": 0,
      "sampler": 0
    },
    {
      "source": 1,
      "sampler": 0
    },
    {
      "source": 2,
      "sampler": 0
    },
    {
      "source": 3,
      "sampler": 0
    },
    {
      "source": 4,
      "sampler": 0
    },
    {
      "source": 5,
      "sampler": 0
    },
    {
      "source": 6,
      "sampler": 0
    },
    {
      "source": 7,
      "sampler": 0
    },
    {
      "source": 8,
      "sampler": 0
    },
    {
      "source": 9,
      "sampler": 0
    },
    {
      "source": 10,
      "sampler": 0
    },
    {
      "source": 11,
      "sampler": 0
    },
    {
      "source": 12,
      "sampler": 0
    },
    {
      "source": 13,
      "sampler": 0
    },
    {
      "source": 14,
      "sampler": 0
    },
    {
      "source": 15,
      "sampler": 0
    },
    {
      "source": 16,
      "sampler": 0
    },
    {
      "source": 17,
      "sampler": 0
    },
    {
      "source": 18,
      "sampler": 0
    },
    {
      "source": 19,
      "sampler": 0
    },
    {
      "source": 20,
      "sampler": 0
    },
    {
      "source": 21,
      "sampler": 0
    },
    {
      "source": 22,
      "sampler": 0
    },
    {
      "source": 23,
      "sampler": 0
    },
    {
      "source": 24,
      "sampler": 0
    },
    {
      "source": 25,
      "sampler": 0
    },
    {
      "source": 26,
      "sampler": 0
    },
    {
      "source": 27,
      "sampler": 0
    },
    {
      "source": 28,
      "sampler": 0
    },
    {
      "source": 29,
      "sampler": 0
    },
    {
      "source": 30,
      "sampler": 0
    },
    {
      "source": 31,
      "sampler": 0
    },
    {
      "source": 32,
      "sampler": 0
    },
    {
      "source": 33,
      "sampler": 0
    },
    {
      "source": 34,
      "sampler": 0
    },
    {
      "source": 35,
      "sampler": 0
    },
    {
      "source": 36,
      "sampler": 0
    },
    {
      "source": 37,
      "sampler": 0
    },
    {
      "source": 38,
      "sampler": 0
    },
    {
      "source": 39,
      "sampler": 0
    },
    {
      "source": 40,
      "sampler": 0
    },
    {
      "source": 41,
      "sampler": 0
    },
    {
      "source": 42,
      "sampler": 0
    },
    {
      "source": 43,
      "sampler": 0
    },
    {
      "source": 44,
      "sampler": 0
    },
    {
      "source": 45,
      "sampler": 0
    },
    {
      "source": 46,
      "sampler": 0
    },
    {
      "source": 47,
      "sampler": 0
    },
    {
      "source": 48,
      "sampler": 0
    },
    {
      "source": 49,
      "sampler": 0
    },
    {
      "source": 50,
      "sampler": 0
    },
    {
      "source": 51,
      "sampler": 0
    },
    {
      "source": 52,
      "sampler": 0
    },
    {
      "source": 53,
      "sampler": 0
    },
    {
      "source": 54,
      "sampler": 0
    },
    {
      "source": 55,
      "sampler": 0
    },
    {
      "source": 56,
      "sampler": 0
    },
    {
      "source": 57,
      "sampler": 0
    },
    {
      "source": 58,
      "sampler": 0
    },
    {
      "source": 59,
      "sampler": 0
    },
    {
      "source": 60,
      "sampler": 0
    },
    {
      "source": 61,
      "sampler": 0
    },
    {
      "source": 62,
      "sampler": 0
    },
    {
      "source": 63,
      "sampler": 0
    },
    {
      "source": 64,
      "sampler": 0
    },
    {
      "source": 65,
      "sampler": 0
    }
  ],
  "images": [
    {
      "uri": "textures/cb32d054cd825e27.png"
    },
    {
      "uri": "textures/ad897b1568b7442e.png"
    },
    {
      "uri": "textures/164e6b477123d937.png"
    },
    {
      "uri": "textures/a70149a792ad5780.png"
    },
    {
      "uri": "textures/c9fd9e9b33e3917e.png"
    },
    {
      "uri": "textures/1fd3110a231064d4.png"
    },
    {
      "uri": "textures/7e79331e9edfd32a.png"
    },
    {
      "uri": "textures/8831c300efbbbc88.png"
    },
    {
      "uri": "textures/4914e2a819dd817a.png"
    },
    {
      "uri": "textures/f7766f6dadb47018.png"
    },
    {
      "uri": "textures/ef53ef8e6aa20b1d.png"
    },
    {
      "uri": "textures/c1ec38263692ca89.png"
    },
    {
      "uri": "textures/7fc3c33921838356.png"
    },
    {
      "uri": "textures/08174a68fc01212d.png"
    },
    {
      "uri": "textures/f9d1424609d34a2c.png"
    },
    {
      "uri": "textures/19545bca2c04f32e.png"
    },
    {
      "uri": "textures/b4407d5ac719b3ad.png"
    },
    {
      "uri": "textures/76431ca90b41bf23.png"
    },
    {
      "uri": "textures/2e5d176bb674585d.png"
    },
    {
      "uri": "textures/fa1c365a3d9498db.png"
    },
    {
      "uri": "textures/d136bee0c1fe0912.png"
    },
    {
      "uri": "textures/a7673a3d96ad0cf1.png"
    },
    {
      "uri": "textures/7ce6f83e48a4cec8.png"
    },
    {
      "uri": "textures/5d6dab01dc7db499.png"
    },
    {
      "uri": "textures/5b09bf7dfe698d4c.png"
    },
    {
      "uri": "textures/185b810d3772973a.png"
    },
    {
      "uri": "textures/83e55e0d3a30398d.png"
    },
    {
      "uri": "textures/4735fd0ca334b554.png"
    },
    {
      "uri": "textures/97929cb5d65f148c.png"
    },
    {
      "uri": "textures/2b64effe89adbf5a.png"
    },
    {
      "uri": "textures/f8458ac8cc4df3e4.png"
    },
    {
      "uri": "textures/9bb9b639445478a3.png"
    },
    {
      "uri": "textures/cb72c7f747f75bd2.png"
    },
    {
      "uri": "textures/d75c7605fd9c8748.png"
    },
    {
      "uri": "textures/5fdfb2b776c75d8c.png"
    },
    {
      "uri": "textures/516df9d32541906b.png"
    },
    {
      "uri": "textures/1e940ac4c51518d6.png"
    },
    {
      "uri": "textures/e092a2a3f7341153.png"
    },
    {
      "uri": "textures/b88d25c1045a1583.png"
    },
    {
      "uri": "textures/9d325193e4f36091.png"
    },
    {
      "uri": "textures/24d50bebb46cf48c.png"
    },
    {
      "uri": "textures/3b47c78dd9b78cc3.png"
    },
    {
      "uri": "textures/a94c5983a158bd3f.png"
    },
    {
      "uri": "textures/c8b121d4fda96c03.png"
    },
    {
      "uri": "textures/0bccae9d19cb7e09.png"
    },
    {
      "uri": "textures/b925402f40dc29d3.png"
    },
    {
      "uri": "textures/76e743155c976c55.png"
    },
    {
      "uri": "textures/b048a2ef7e3ba025.png"
    },
    {
      "uri": "textures/53642c8db49a19a3.png"
    },
    {
      "uri": "textures/aa83963930c89003.png"
    },
    {
      "uri": "textures/3dc0f7c0a7103fba.png"
    },
    {
      "uri": "textures/e3bd48b7f3fb95d0.png"
    },
    {
      "uri": "textures/9dafa9b2c8411902.png"
    },
    {
      "uri": "textures/0d0fe18de6260af9.png"
    },
    {
      "uri": "textures/a4aa206f9bd33ac2.png"
    },
    {
      "uri": "textures/7ebe5acc11ff68f9.png"
    },
    {
      "uri": "textures/cdb9bb75763d3aef.png"
    },
    {
      "uri": "textures/d70a2ab3751d32a3.png"
    },
    {
      "uri": "textures/cc5916ae6a5c5dac.png"
    },
    {
      "uri": "textures/b7de708a2c8761d4.png"
    },
    {
      "uri": "textures/19614f03b832a8a6.png"
    },
    {
      "uri": "textures/18a707541ce82d7f.png"
    },
    {
      "uri": "textures/bd258d1df363d8fe.png"
    },
    {
      "uri": "textures/677a04ae5a48da9d.png"
    },
    {
      "uri": "textures/137b6445337c807b.png"
    },
    {
      "uri": "textures/433549928b77f94c.png"
    }
  ],
  "samplers": [
    {
      "wrapS": 10497,
      "wrapT": 10497
    }
  ],
  "bufferViews": [
    {
      "buffer": 0,
      "byteOffset": 0,
      "byteLength": 125100
    },
    {
      "buffer": 0,
      "byteOffset": 125100,
      "byteLength": 125100
    },
    {
      "buffer": 0,
      "byteOffset": 250200,
      "byteLength": 83400
    },
    {
      "buffer": 0,
      "byteOffset": 333600,
      "byteLength": 41700
    },
    {
      "buffer": 0,
      "byteOffset": 375300,
      "byteLength": 21816
    },
    {
      "buffer": 0,
      "byteOffset": 397116,
      "byteLength": 21816
    },
    {
      "buffer": 0,
      "byteOffset": 418932,
      "byteLength": 14544
    },
    {
      "buffer": 0,
      "byteOffset": 433476,
      "byteLength": 7272
    },
    {
      "buffer": 0,
      "byteOffset": 440748,
      "byteLength": 147600
    },
    {
      "buffer": 0,
      "byteOffset": 588348,
      "byteLength": 147600
    },
    {
      "buffer": 0,
      "byteOffset": 735948,
      "byteLength": 98400
    },
    {
      "buffer": 0,
      "byteOffset": 834348,
      "byteLength": 49200
    },
    {
      "buffer": 0,
      "byteOffset": 883548,
      "byteLength": 10980
    },
    {
      "buffer": 0,
      "byteOffset": 894528,
      "byteLength": 10980
    },
    {
      "buffer": 0,
      "byteOffset": 905508,
      "byteLength": 7320
    },
    {
      "buffer": 0,
      "byteOffset": 912828,
      "byteLength": 3660
    },
    {
      "buffer": 0,
      "byteOffset": 916488,
      "byteLength": 227592
    },
    {
      "buffer": 0,
      "byteOffset": 1144080,
      "byteLength": 227592
    },
    {
      "buffer": 0,
      "byteOffset": 1371672,
      "byteLength": 151728
    },
    {
      "buffer": 0,
      "byteOffset": 1523400,
      "byteLength": 75864
    },
    {
      "buffer": 0,
      "byteOffset": 1599264,
      "byteLength": 7992
    },
    {
      "buffer": 0,
      "byteOffset": 1607256,
      "byteLength": 7992
    },
    {
      "buffer": 0,
      "byteOffset": 1615248,
      "byteLength": 5328
    },
    {
      "buffer": 0,
      "byteOffset": 1620576,
      "byteLength": 2664
    },
    {
      "buffer": 0,
      "byteOffset": 1623240,
      "byteLength": 4464
    },
    {
      "buffer": 0,
      "byteOffset": 1627704,
      "byteLength": 4464
    },
    {
      "buffer": 0,
      "byteOffset": 1632168,
      "byteLength": 2976
    },
    {
      "buffer": 0,
      "byteOffset": 1635144,
      "byteLength": 1488
    },
    {
      "buffer": 0,
      "byteOffset": 1636632,
      "byteLength": 864
    },
    {
      "buffer": 0,
      "byteOffset": 1637496,
      "byteLength": 864
    },
    {
      "buffer": 0,
      "byteOffset": 1638360,
      "byteLength": 576
    },
    {
      "buffer": 0,
      "byteOffset": 1638936,
      "byteLength": 288
    },
    {
      "buffer": 0,
      "byteOffset": 1639224,
      "byteLength": 432
    },
    {
      "buffer": 0,
      "byteOffset": 1639656,
      "byteLength": 432
    },
    {
      "buffer": 0,
      "byteOffset": 1640088,
      "byteLength": 288
    },
    {
      "buffer": 0,
      "byteOffset": 1640376,
      "byteLength": 144
    },
    {
      "buffer": 0,
      "byteOffset": 1640520,
      "byteLength": 1440
    },
    {
      "buffer": 0,
      "byteOffset": 1641960,
      "byteLength": 1440
    },
    {
      "buffer": 0,
      "byteOffset": 1643400,
      "byteLength": 960
    },
    {
      "buffer": 0,
      "byteOffset": 1644360,
      "byteLength": 480
    },
    {
      "buffer": 0,
      "byteOffset": 1644840,
      "byteLength": 29484
    },
    {
      "buffer": 0,
      "byteOffset": 1674324,
      "byteLength": 29484
    },
    {
      "buffer": 0,
      "byteOffset": 1703808,
      "byteLength": 19656
    },
    {
      "buffer": 0,
      "byteOffset": 1723464,
      "byteLength": 9828
    },
    {
      "buffer": 0,
      "byteOffset": 1733292,
      "byteLength": 3744
    },
    {
      "buffer": 0,
      "byteOffset": 1737036,
      "byteLength": 3744
    },
    {
      "buffer": 0,
      "byteOffset": 1740780,
      "byteLength": 2496
    },
    {
      "buffer": 0,
      "byteOffset": 1743276,
      "byteLength": 1248
    },
    {
      "buffer": 0,
      "byteOffset": 1744524,
      "byteLength": 504
    },
    {
      "buffer": 0,
      "byteOffset": 1745028,
      "byteLength": 504
    },
    {
      "buffer": 0,
      "byteOffset": 1745532,
      "byteLength": 336
    },
    {
      "buffer": 0,
      "byteOffset": 1745868,
      "byteLength": 168
    },
    {
      "buffer": 0,
      "byteOffset": 1746036,
      "byteLength": 1440
    },
    {
      "buffer": 0,
      "byteOffset": 1747476,
      "byteLength": 1440
    },
    {
      "buffer": 0,
      "byteOffset": 1748916,
      "byteLength": 960
    },
    {
      "buffer": 0,
      "byteOffset": 1749876,
      "byteLength": 480
    },
    {
      "buffer": 0,
      "byteOffset": 1750356,
      "byteLength": 3888
    },
    {
      "buffer": 0,
      "byteOffset": 1754244,
      "byteLength": 3888
    },
    {
      "buffer": 0,
      "byteOffset": 1758132,
      "byteLength": 2592
    },
    {
      "buffer": 0,
      "byteOffset": 1760724,
      "byteLength": 1296
    },
    {
      "buffer": 0,
      "byteOffset": 1762020,
      "byteLength": 1296
    },
    {
      "buffer": 0,
      "byteOffset": 1763316,
      "byteLength": 1296
    },
    {
      "buffer": 0,
      "byteOffset": 1764612,
      "byteLength": 864
    },
    {
      "buffer": 0,
      "byteOffset": 1765476,
      "byteLength": 432
    },
    {
      "buffer": 0,
      "byteOffset": 1765908,
      "byteLength": 48
    },
    {
      "buffer": 0,
      "byteOffset": 1765956,
      "byteLength": 48
    },
    {
      "buffer": 0,
      "byteOffset": 1766004,
      "byteLength": 32
    },
    {
      "buffer": 0,
      "byteOffset": 1766036,
      "byteLength": 24
    },
    {
      "buffer": 0,
      "byteOffset": 1766060,
      "byteLength": 10260
    },
    {
      "buffer": 0,
      "byteOffset": 1776320,
      "byteLength": 10260
    },
    {
      "buffer": 0,
      "byteOffset": 1786580,
      "byteLength": 6840
    },
    {
      "buffer": 0,
      "byteOffset": 1793420,
      "byteLength": 3420
    },
    {
      "buffer": 0,
      "byteOffset": 1796840,
      "byteLength": 2160
    },
    {
      "buffer": 0,
      "byteOffset": 1799000,
      "byteLength": 2160
    },
    {
      "buffer": 0,
      "byteOffset": 1801160,
      "byteLength": 1440
    },
    {
      "buffer": 0,
      "byteOffset": 1802600,
      "byteLength": 720
    },
    {
      "buffer": 0,
      "byteOffset": 1803320,
      "byteLength": 6552
    },
    {
      "buffer": 0,
      "byteOffset": 1809872,
      "byteLength": 6552
    },
    {
      "buffer": 0,
      "byteOffset": 1816424,
      "byteLength": 4368
    },
    {
      "buffer": 0,
      "byteOffset": 1820792,
      "byteLength": 2184
    },
    {
      "buffer": 0,
      "byteOffset": 1822976,
      "byteLength": 1584
    },
    {
      "buffer": 0,
      "byteOffset": 1824560,
      "byteLength": 1584
    },
    {
      "buffer": 0,
      "byteOffset": 1826144,
      "byteLength": 1056
    },
    {
      "buffer": 0,
      "byteOffset": 1827200,
      "byteLength": 528
    },
    {
      "buffer": 0,
      "byteOffset": 1827728,
      "byteLength": 8424
    },
    {
      "buffer": 0,
      "byteOffset": 1836152,
      "byteLength": 8424
    },
    {
      "buffer": 0,
      "byteOffset": 1844576,
      "byteLength": 5616
    },
    {
      "buffer": 0,
      "byteOffset": 1850192,
      "byteLength": 2808
    },
    {
      "buffer": 0,
      "byteOffset": 1853000,
      "byteLength": 48636
    },
    {
      "buffer": 0,
      "byteOffset": 1901636,
      "byteLength": 48636
    },
    {
      "buffer": 0,
      "byteOffset": 1950272,
      "byteLength": 32424
    },
    {
      "buffer": 0,
      "byteOffset": 1982696,
      "byteLength": 16212
    },
    {
      "buffer": 0,
      "byteOffset": 1998908,
      "byteLength": 68184
    },
    {
      "buffer": 0,
      "byteOffset": 2067092,
      "byteLength": 68184
    },
    {
      "buffer": 0,
      "byteOffset": 2135276,
      "byteLength": 45456
    },
    {
      "buffer": 0,
      "byteOffset": 2180732,
      "byteLength": 22728
    },
    {
      "buffer": 0,
      "byteOffset": 2203460,
      "byteLength": 72288
    },
    {
      "buffer": 0,
      "byteOffset": 2275748,
      "byteLength": 72288
    },
    {
      "buffer": 0,
      "byteOffset": 2348036,
      "byteLength": 48192
    },
    {
      "buffer": 0,
      "byteOffset": 2396228,
      "byteLength": 24096
    },
    {
      "buffer": 0,
      "byteOffset": 2420324,
      "byteLength": 95184
    },
    {
      "buffer": 0,
      "byteOffset": 2515508,
      "byteLength": 95184
    },
    {
      "buffer": 0,
      "byteOffset": 2610692,
      "byteLength": 63456
    },
    {
      "buffer": 0,
      "byteOffset": 2674148,
      "byteLength": 31728
    },
    {
      "buffer": 0,
      "byteOffset": 2705876,
      "byteLength": 95184
    },
    {
      "buffer": 0,
      "byteOffset": 2801060,
      "byteLength": 95184
    },
    {
      "buffer": 0,
      "byteOffset": 2896244,
      "byteLength": 63456
    },
    {
      "buffer": 0,
      "byteOffset": 2959700,
      "byteLength": 31728
    },
    {
      "buffer": 0,
      "byteOffset": 2991428,
      "byteLength": 8064
    },
    {
      "buffer": 0,
      "byteOffset": 2999492,
      "byteLength": 8064
    },
    {
      "buffer": 0,
      "byteOffset": 3007556,
      "byteLength": 5376
    },
    {
      "buffer": 0,
      "byteOffset": 3012932,
      "byteLength": 2688
    },
    {
      "buffer": 0,
      "byteOffset": 3015620,
      "byteLength": 13752
    },
    {
      "buffer": 0,
      "byteOffset": 3029372,
      "byteLength": 13752
    },
    {
      "buffer": 0,
      "byteOffset": 3043124,
      "byteLength": 9168
    },
    {
      "buffer": 0,
      "byteOffset": 3052292,
      "byteLength": 4584
    },
    {
      "buffer": 0,
      "byteOffset": 3056876,
      "byteLength": 1944
    },
    {
      "buffer": 0,
      "byteOffset": 3058820,
      "byteLength": 1944
    },
    {
      "buffer": 0,
      "byteOffset": 3060764,
      "byteLength": 1296
    },
    {
      "buffer": 0,
      "byteOffset": 3062060,
      "byteLength": 648
    },
    {
      "buffer": 0,
      "byteOffset": 3062708,
      "byteLength": 12312
    },
    {
      "buffer": 0,
      "byteOffset": 3075020,
      "byteLength": 12312
    },
    {
      "buffer": 0,
      "byteOffset": 3087332,
      "byteLength": 8208
    },
    {
      "buffer": 0,
      "byteOffset": 3095540,
      "byteLength": 4104
    }
  ],
  "accessors": [
    {
      "bufferView": 0,
      "componentType": 5126,
      "count": 10425,
      "type": "VEC3",
      "min": [
        -411.7691345214844,
        -30.894624710083008,
        -260.76910400390625
      ],
      "max": [
        308.50457763671875,
        143.33929443359375,
        83.73966979980469
      ]
    },
    {
      "bufferView": 1,
      "componentType": 5126,
      "count": 10425,
      "type": "VEC3"
    },
    {
      "bufferView": 2,
      "componentType": 5126,
      "count": 10425,
      "type": "VEC2"
    },
    {
      "bufferView": 3,
      "componentType": 5125,
      "count": 10425,
      "type": "SCALAR"
    },
    {
      "bufferView": 4,
      "componentType": 5126,
      "count": 1818,
      "type": "VEC3",
      "min": [
        -403.7676696777344,
        -0.33285096287727356,
        -248.56703186035156
      ],
      "max": [
        255.40139770507812,
        120.66179656982422,
        34.69664001464844
      ]
    },
    {
      "bufferView": 5,
      "componentType": 5126,
      "count": 1818,
      "type": "VEC3"
    },
    {
      "bufferView": 6,
      "componentType": 5126,
      "count": 1818,
      "type": "VEC2"
    },
    {
      "bufferView": 7,
      "componentType": 5125,
      "count": 1818,
      "type": "SCALAR"
    },
    {
      "bufferView": 8,
      "componentType": 5126,
      "count": 12300,
      "type": "VEC3",
      "min": [
        -413.9272766113281,
        -12.612903594970703,
        -191.48175048828125
      ],
      "max": [
        295.9201965332031,
        127.03863525390625,
        63.22815704345703
      ]
    },
    {
      "bufferView": 9,
      "componentType": 5126,
      "count": 12300,
      "type": "VEC3"
    },
    {
      "bufferView": 10,
      "componentType": 5126,
      "count": 12300,
      "type": "VEC2"
    },
    {
      "bufferView": 11,
      "componentType": 5125,
      "count": 12300,
      "type": "SCALAR"
    },
    {
      "bufferView": 12,
      "componentType": 5126,
      "count": 915,
      "type": "VEC3",
      "min": [
        -408.27557373046875,
        -1.2644284963607788,
        -249.60287475585938
      ],
      "max": [
        298.57305908203125,
        78.28919219970703,
        73.72035217285156
      ]
    },
    {
      "bufferView": 13,
      "componentType": 5126,
      "count": 915,
      "type": "VEC3"
    },
    {
      "bufferView": 14,
      "componentType": 5126,
      "count": 915,
      "type": "VEC2"
    },
    {
      "bufferView": 15,
      "componentType": 5125,
      "count": 915,
      "type": "SCALAR"
    },
    {
      "bufferView": 16,
      "componentType": 5126,
      "count": 18966,
      "type": "VEC3",
      "min": [
        -413.2315368652344,
        -13.26742935180664,
        -252.26084899902344
      ],
      "max": [
        301.5942687988281,
        127.67974090576172,
        65.40570068359375
      ]
    },
    {
      "bufferView": 17,
      "componentType": 5126,
      "count": 18966,
      "type": "VEC3"
    },
    {
      "bufferView": 18,
      "componentType": 5126,
      "count": 18966,
      "type": "VEC2"
    },
    {
      "bufferView": 19,
      "componentType": 5125,
      "count": 18966,
      "type": "SCALAR"
    },
    {
      "bufferView": 20,
      "componentType": 5126,
      "count": 666,
      "type": "VEC3",
      "min": [
        -386.2453308105469,
        -16.163558959960938,
        -238.0298309326172
      ],
      "max": [
        -123.658447265625,
        80.18911743164062,
        43.37360763549805
      ]
    },
    {
      "bufferView": 21,
      "componentType": 5126,
      "count": 666,
      "type": "VEC3"
    },
    {
      "bufferView": 22,
      "componentType": 5126,
      "count": 666,
      "type": "VEC2"
    },
    {
      "bufferView": 23,
      "componentType": 5125,
      "count": 666,
      "type": "SCALAR"
    },
    {
      "bufferView": 24,
      "componentType": 5126,
      "count": 372,
      "type": "VEC3",
      "min": [
        -408.4862060546875,
        -0.6210852265357971,
        -238.97415161132812
      ],
      "max": [
        294.62738037109375,
        22.392417907714844,
        69.84054565429688
      ]
    },
    {
      "bufferView": 25,
      "componentType": 5126,
      "count": 372,
      "type": "VEC3"
    },
    {
      "bufferView": 26,
      "componentType": 5126,
      "count": 372,
      "type": "VEC2"
    },
    {
      "bufferView": 27,
      "componentType": 5125,
      "count": 372,
      "type": "SCALAR"
    },
    {
      "bufferView": 28,
      "componentType": 5126,
      "count": 72,
      "type": "VEC3",
      "min": [
        -408.5717468261719,
        45.42871856689453,
        -250.41741943359375
      ],
      "max": [
        -153.1846923828125,
        77.6061019897461,
        42.72977828979492
      ]
    },
    {
      "bufferView": 29,
      "componentType": 5126,
      "count": 72,
      "type": "VEC3"
    },
    {
      "bufferView": 30,
      "componentType": 5126,
      "count": 72,
      "type": "VEC2"
    },
    {
      "bufferView": 31,
      "componentType": 5125,
      "count": 72,
      "type": "SCALAR"
    },
    {
      "bufferView": 32,
      "componentType": 5126,
      "count": 36,
      "type": "VEC3",
      "min": [
        -344.4019470214844,
        15.561577796936035,
        -237.65570068359375
      ],
      "max": [
        -270.46826171875,
        98.93921661376953,
        70.66458129882812
      ]
    },
    {
      "bufferView": 33,
      "componentType": 5126,
      "count": 36,
      "type": "VEC3"
    },
    {
      "bufferView": 34,
      "componentType": 5126,
      "count": 36,
      "type": "VEC2"
    },
    {
      "bufferView": 35,
      "componentType": 5125,
      "count": 36,
      "type": "SCALAR"
    },
    {
      "bufferView": 36,
      "componentType": 5126,
      "count": 120,
      "type": "VEC3",
      "min": [
        -408.0163879394531,
        17.317432403564453,
        -247.9767608642578
      ],
      "max": [
        53.44580078125,
        92.5379638671875,
        44.10007095336914
      ]
    },
    {
      "bufferView": 37,
      "componentType": 5126,
      "count": 120,
      "type": "VEC3"
    },
    {
      "bufferView": 38,
      "componentType": 5126,
      "count": 120,
      "type": "VEC2"
    },
    {
      "bufferView": 39,
      "componentType": 5125,
      "count": 120,
      "type": "SCALAR"
    },
    {
      "bufferView": 40,
      "componentType": 5126,
      "count": 2457,
      "type": "VEC3",
      "min": [
        -389.3352966308594,
        15.43643569946289,
        -212.5885009765625
      ],
      "max": [
        249.36697387695312,
        119.98209381103516,
        28.006973266601562
      ]
    },
    {
      "bufferView": 41,
      "componentType": 5126,
      "count": 2457,
      "type": "VEC3"
    },
    {
      "bufferView": 42,
      "componentType": 5126,
      "count": 2457,
      "type": "VEC2"
    },
    {
      "bufferView": 43,
      "componentType": 5125,
      "count": 2457,
      "type": "SCALAR"
    },
    {
      "bufferView": 44,
      "componentType": 5126,
      "count": 312,
      "type": "VEC3",
      "min": [
        -389.0928039550781,
        16.417625427246094,
        -212.25021362304688
      ],
      "max": [
        248.83367919921875,
        127.70633697509766,
        27.315689086914062
      ]
    },
    {
      "bufferView": 45,
      "componentType": 5126,
      "count": 312,
      "type": "VEC3"
    },
    {
      "bufferView": 46,
      "componentType": 5126,
      "count": 312,
      "type": "VEC2"
    },
    {
      "bufferView": 47,
      "componentType": 5125,
      "count": 312,
      "type": "SCALAR"
    },
    {
      "bufferView": 48,
      "componentType": 5126,
      "count": 42,
      "type": "VEC3",
      "min": [
        -220.1253204345703,
        17.982311248779297,
        -249.77099609375
      ],
      "max": [
        308.50457763671875,
        97.03633880615234,
        74.51011657714844
      ]
    },
    {
      "bufferView": 49,
      "componentType": 5126,
      "count": 42,
      "type": "VEC3"
    },
    {
      "bufferView": 50,
      "componentType": 5126,
      "count": 42,
      "type": "VEC2"
    },
    {
      "bufferView": 51,
      "componentType": 5125,
      "count": 42,
      "type": "SCALAR"
    },
    {
      "bufferView": 52,
      "componentType": 5126,
      "count": 120,
      "type": "VEC3",
      "min": [
        -408.4862060546875,
        -0.6210852265357971,
        -238.97415161132812
      ],
      "max": [
        294.62738037109375,
        22.392417907714844,
        69.84054565429688
      ]
    },
    {
      "bufferView": 53,
      "componentType": 5126,
      "count": 120,
      "type": "VEC3"
    },
    {
      "bufferView": 54,
      "componentType": 5126,
      "count": 120,
      "type": "VEC2"
    },
    {
      "bufferView": 55,
      "componentType": 5125,
      "count": 120,
      "type": "SCALAR"
    },
    {
      "bufferView": 56,
      "componentType": 5126,
      "count": 324,
      "type": "VEC3",
      "min": [
        -407.6102600097656,
        -0.5352067351341248,
        -238.510009765625
      ],
      "max": [
        294.7328796386719,
        23.15810775756836,
        69.09616088867188
      ]
    },
    {
      "bufferView": 57,
      "componentType": 5126,
      "count": 324,
      "type": "VEC3"
    },
    {
      "bufferView": 58,
      "componentType": 5126,
      "count": 324,
      "type": "VEC2"
    },
    {
      "bufferView": 59,
      "componentType": 5125,
      "count": 324,
      "type": "SCALAR"
    },
    {
      "bufferView": 60,
      "componentType": 5126,
      "count": 108,
      "type": "VEC3",
      "min": [
        -407.6102600097656,
        -0.5352067351341248,
        -238.510009765625
      ],
      "max": [
        294.7328796386719,
        23.15810775756836,
        69.09616088867188
      ]
    },
    {
      "bufferView": 61,
      "componentType": 5126,
      "count": 108,
      "type": "VEC3"
    },
    {
      "bufferView": 62,
      "componentType": 5126,
      "count": 108,
      "type": "VEC2"
    },
    {
      "bufferView": 63,
      "componentType": 5125,
      "count": 108,
      "type": "SCALAR"
    },
    {
      "bufferView": 64,
      "componentType": 5126,
      "count": 4,
      "type": "VEC3",
      "min": [
        -750.0,
        0,
        -750.0
      ],
      "max": [
        750.0,
        0,
        750.0
      ]
    },
    {
      "bufferView": 65,
      "componentType": 5126,
      "count": 4,
      "type": "VEC3"
    },
    {
      "bufferView": 66,
      "componentType": 5126,
      "count": 4,
      "type": "VEC2"
    },
    {
      "bufferView": 67,
      "componentType": 5125,
      "count": 6,
      "type": "SCALAR"
    },
    {
      "bufferView": 68,
      "componentType": 5126,
      "count": 855,
      "type": "VEC3",
      "min": [
        -3.9076550006866455,
        0.042382121086120605,
        -3.9291787147521973
      ],
      "max": [
        3.9076550006866455,
        1.5781248807907104,
        3.9291791915893555
      ]
    },
    {
      "bufferView": 69,
      "componentType": 5126,
      "count": 855,
      "type": "VEC3"
    },
    {
      "bufferView": 70,
      "componentType": 5126,
      "count": 855,
      "type": "VEC2"
    },
    {
      "bufferView": 71,
      "componentType": 5125,
      "count": 855,
      "type": "SCALAR"
    },
    {
      "bufferView": 72,
      "componentType": 5126,
      "count": 180,
      "type": "VEC3",
      "min": [
        -3.9076552391052246,
        0.2257978916168213,
        -3.9291791915893555
      ],
      "max": [
        3.9076552391052246,
        2.171382427215576,
        3.9291794300079346
      ]
    },
    {
      "bufferView": 73,
      "componentType": 5126,
      "count": 180,
      "type": "VEC3"
    },
    {
      "bufferView": 74,
      "componentType": 5126,
      "count": 180,
      "type": "VEC2"
    },
    {
      "bufferView": 75,
      "componentType": 5125,
      "count": 180,
      "type": "SCALAR"
    },
    {
      "bufferView": 76,
      "componentType": 5126,
      "count": 546,
      "type": "VEC3",
      "min": [
        -3.9857265949249268,
        2.9048635959625244,
        -3.898332118988037
      ],
      "max": [
        3.9857265949249268,
        4.098489284515381,
        4.015000820159912
      ]
    },
    {
      "bufferView": 77,
      "componentType": 5126,
      "count": 546,
      "type": "VEC3"
    },
    {
      "bufferView": 78,
      "componentType": 5126,
      "count": 546,
      "type": "VEC2"
    },
    {
      "bufferView": 79,
      "componentType": 5125,
      "count": 546,
      "type": "SCALAR"
    },
    {
      "bufferView": 80,
      "componentType": 5126,
      "count": 132,
      "type": "VEC3",
      "min": [
        -2.0999996662139893,
        0.0,
        -2.625
      ],
      "max": [
        2.0999996662139893,
        2.0999996662139893,
        2.625
      ]
    },
    {
      "bufferView": 81,
      "componentType": 5126,
      "count": 132,
      "type": "VEC3"
    },
    {
      "bufferView": 82,
      "componentType": 5126,
      "count": 132,
      "type": "VEC2"
    },
    {
      "bufferView": 83,
      "componentType": 5125,
      "count": 132,
      "type": "SCALAR"
    },
    {
      "bufferView": 84,
      "componentType": 5126,
      "count": 702,
      "type": "VEC3",
      "min": [
        -0.6868499517440796,
        0.0001199999896925874,
        -0.6072599291801453
      ],
      "max": [
        0.5090699791908264,
        3.0870299339294434,
        0.7147799730300903
      ]
    },
    {
      "bufferView": 85,
      "componentType": 5126,
      "count": 702,
      "type": "VEC3"
    },
    {
      "bufferView": 86,
      "componentType": 5126,
      "count": 702,
      "type": "VEC2"
    },
    {
      "bufferView": 87,
      "componentType": 5125,
      "count": 702,
      "type": "SCALAR"
    },
    {
      "bufferView": 88,
      "componentType": 5126,
      "count": 4053,
      "type": "VEC3",
      "min": [
        -0.6665788292884827,
        0.11326546967029572,
        -2.5476675033569336
      ],
      "max": [
        0.6665785908699036,
        2.70326566696167,
        2.5476672649383545
      ]
    },
    {
      "bufferView": 89,
      "componentType": 5126,
      "count": 4053,
      "type": "VEC3"
    },
    {
      "bufferView": 90,
      "componentType": 5126,
      "count": 4053,
      "type": "VEC2"
    },
    {
      "bufferView": 91,
      "componentType": 5125,
      "count": 4053,
      "type": "SCALAR"
    },
    {
      "bufferView": 92,
      "componentType": 5126,
      "count": 5682,
      "type": "VEC3",
      "min": [
        -0.2781127691268921,
        -0.9072027802467346,
        -3.4900853633880615
      ],
      "max": [
        0.27811259031295776,
        1.3677020072937012,
        3.4900851249694824
      ]
    },
    {
      "bufferView": 93,
      "componentType": 5126,
      "count": 5682,
      "type": "VEC3"
    },
    {
      "bufferView": 94,
      "componentType": 5126,
      "count": 5682,
      "type": "VEC2"
    },
    {
      "bufferView": 95,
      "componentType": 5125,
      "count": 5682,
      "type": "SCALAR"
    },
    {
      "bufferView": 96,
      "componentType": 5126,
      "count": 6024,
      "type": "VEC3",
      "min": [
        -1.5567673444747925,
        -2.3350841999053955,
        -7.508195877075195
      ],
      "max": [
        1.6767550706863403,
        4.209122180938721,
        3.27767014503479
      ]
    },
    {
      "bufferView": 97,
      "componentType": 5126,
      "count": 6024,
      "type": "VEC3"
    },
    {
      "bufferView": 98,
      "componentType": 5126,
      "count": 6024,
      "type": "VEC2"
    },
    {
      "bufferView": 99,
      "componentType": 5125,
      "count": 6024,
      "type": "SCALAR"
    },
    {
      "bufferView": 100,
      "componentType": 5126,
      "count": 7932,
      "type": "VEC3",
      "min": [
        -4.133336544036865,
        0.02540331333875656,
        -1.9466339349746704
      ],
      "max": [
        4.170815944671631,
        5.511439323425293,
        1.9091546535491943
      ]
    },
    {
      "bufferView": 101,
      "componentType": 5126,
      "count": 7932,
      "type": "VEC3"
    },
    {
      "bufferView": 102,
      "componentType": 5126,
      "count": 7932,
      "type": "VEC2"
    },
    {
      "bufferView": 103,
      "componentType": 5125,
      "count": 7932,
      "type": "SCALAR"
    },
    {
      "bufferView": 104,
      "componentType": 5126,
      "count": 7932,
      "type": "VEC3",
      "min": [
        -4.280666828155518,
        0.026308802887797356,
        -2.0160205364227295
      ],
      "max": [
        4.319482326507568,
        5.707891464233398,
        1.977205514907837
      ]
    },
    {
      "bufferView": 105,
      "componentType": 5126,
      "count": 7932,
      "type": "VEC3"
    },
    {
      "bufferView": 106,
      "componentType": 5126,
      "count": 7932,
      "type": "VEC2"
    },
    {
      "bufferView": 107,
      "componentType": 5125,
      "count": 7932,
      "type": "SCALAR"
    },
    {
      "bufferView": 108,
      "componentType": 5126,
      "count": 672,
      "type": "VEC3",
      "min": [
        -0.5218382477760315,
        0.0,
        -0.5218382477760315
      ],
      "max": [
        0.5218382477760315,
        2.0934622287750244,
        0.5218383073806763
      ]
    },
    {
      "bufferView": 109,
      "componentType": 5126,
      "count": 672,
      "type": "VEC3"
    },
    {
      "bufferView": 110,
      "componentType": 5126,
      "count": 672,
      "type": "VEC2"
    },
    {
      "bufferView": 111,
      "componentType": 5125,
      "count": 672,
      "type": "SCALAR"
    },
    {
      "bufferView": 112,
      "componentType": 5126,
      "count": 1146,
      "type": "VEC3",
      "min": [
        -0.42913979291915894,
        0.008267524652183056,
        -12.552013397216797
      ],
      "max": [
        0.44676411151885986,
        2.1060824394226074,
        -11.57590389251709
      ]
    },
    {
      "bufferView": 113,
      "componentType": 5126,
      "count": 1146,
      "type": "VEC3"
    },
    {
      "bufferView": 114,
      "componentType": 5126,
      "count": 1146,
      "type": "VEC2"
    },
    {
      "bufferView": 115,
      "componentType": 5125,
      "count": 1146,
      "type": "SCALAR"
    },
    {
      "bufferView": 116,
      "componentType": 5126,
      "count": 162,
      "type": "VEC3",
      "min": [
        -0.09590332955121994,
        -0.09888507425785065,
        -0.0973827913403511
      ],
      "max": [
        0.09590333700180054,
        0.09888507425785065,
        0.09150989353656769
      ]
    },
    {
      "bufferView": 117,
      "componentType": 5126,
      "count": 162,
      "type": "VEC3"
    },
    {
      "bufferView": 118,
      "componentType": 5126,
      "count": 162,
      "type": "VEC2"
    },
    {
      "bufferView": 119,
      "componentType": 5125,
      "count": 162,
      "type": "SCALAR"
    },
    {
      "bufferView": 120,
      "componentType": 5126,
      "count": 1026,
      "type": "VEC3",
      "min": [
        -0.25626900792121887,
        0.0,
        -0.7883237600326538
      ],
      "max": [
        0.25625079870224,
        1.5639817714691162,
        0.788323700428009
      ]
    },
    {
      "bufferView": 121,
      "componentType": 5126,
      "count": 1026,
      "type": "VEC3"
    },
    {
      "bufferView": 122,
      "componentType": 5126,
      "count": 1026,
      "type": "VEC2"
    },
    {
      "bufferView": 123,
      "componentType": 5125,
      "count": 1026,
      "type": "SCALAR"
    }
  ],
  "extensionsUsed": [
    "KHR_materials_specular",
    "KHR_materials_emissive_strength"
  ],
  "buffers": [
    {
      "uri": "factory.bin",
      "byteLength": 3099644
    }
  ]
}