{
  "asset": {
    "version": "2.0",
    "generator": "Gloom legacy importer 1"
  },
  "scene": 0,
  "scenes": [
    {
      "nodes": [
        0
      ]
    }
  ],
  "nodes": [
    {
      "name": "iron_hell_goat",
      "mesh": 0,
      "translation": [
        0.0,
        0.0,
        0.0
      ],
      "scale": [
        0.15,
        0.15,
        0.15
      ],
      "rotation": [
        0,
        0.0,
        0,
        1.0
      ]
    }
  ],
  "meshes": [
    {
      "primitives": [
        {
          "attributes": {
            "POSITION": 0,
            "NORMAL": 1,
            "TEXCOORD_0": 2
          },
          "indices": 3,
          "material": 0
        }
      ]
    }
  ],
  "materials": [
    {
      "name": "IronHellGoat",
      "pbrMetallicRoughness": {
        "metallicFactor": 0,
        "roughnessFactor": 0.6389431042462724,
        "baseColorTexture": {
          "index": 0
        }
      },
      "extras": {
        "gloom": {
          "sourceMaterial": "IronHellGoat"
        }
      },
      "extensions": {}
    }
  ],
  "textures": [
    {
      "source": 0,
      "sampler": 0
    }
  ],
  "images": [
    {
      "uri": "textures/7ebe5acc11ff68f9.png"
    }
  ],
  "samplers": [
    {
      "wrapS": 10497,
      "wrapT": 10497
    }
  ],
  "bufferViews": [
    {
      "buffer": 0,
      "byteOffset": 0,
      "byteLength": 72288
    },
    {
      "buffer": 0,
      "byteOffset": 72288,
      "byteLength": 72288
    },
    {
      "buffer": 0,
      "byteOffset": 144576,
      "byteLength": 48192
    },
    {
      "buffer": 0,
      "byteOffset": 192768,
      "byteLength": 24096
    }
  ],
  "accessors": [
    {
      "bufferView": 0,
      "componentType": 5126,
      "count": 6024,
      "type": "VEC3",
      "min": [
        -1.5567673444747925,
        -2.3350841999053955,
        -7.508195877075195
      ],
      "max": [
        1.6767550706863403,
        4.209122180938721,
        3.27767014503479
      ]
    },
    {
      "bufferView": 1,
      "componentType": 5126,
      "count": 6024,
      "type": "VEC3"
    },
    {
      "bufferView": 2,
      "componentType": 5126,
      "count": 6024,
      "type": "VEC2"
    },
    {
      "bufferView": 3,
      "componentType": 5125,
      "count": 6024,
      "type": "SCALAR"
    }
  ],
  "extensionsUsed": [
    "KHR_materials_specular",
    "KHR_materials_emissive_strength"
  ],
  "buffers": [
    {
      "uri": "iron_hell_goat.bin",
      "byteLength": 216864
    }
  ]
}