{
  "asset": {
    "version": "2.0",
    "generator": "Gloom legacy importer 1"
  },
  "scene": 0,
  "scenes": [
    {
      "nodes": [
        0
      ]
    }
  ],
  "nodes": [
    {
      "name": "shotgun",
      "mesh": 0,
      "translation": [
        0.0,
        0.0,
        0.0
      ],
      "scale": [
        0.15,
        0.15,
        0.15
      ],
      "rotation": [
        0,
        0.0,
        0,
        1.0
      ]
    }
  ],
  "meshes": [
    {
      "primitives": [
        {
          "attributes": {
            "POSITION": 0,
            "NORMAL": 1,
            "TEXCOORD_0": 2
          },
          "indices": 3,
          "material": 0
        }
      ]
    }
  ],
  "materials": [
    {
      "name": "shotGun",
      "pbrMetallicRoughness": {
        "metallicFactor": 0,
        "roughnessFactor": 0.408248290463863,
        "baseColorTexture": {
          "index": 0
        }
      },
      "extras": {
        "gloom": {
          "sourceMaterial": "shotGun"
        }
      },
      "extensions": {
        "KHR_materials_specular": {
          "specularFactor": 1,
          "specularColorTexture": {
            "index": 2
          }
        }
      },
      "normalTexture": {
        "index": 1
      }
    }
  ],
  "textures": [
    {
      "source": 0,
      "sampler": 0
    },
    {
      "source": 1,
      "sampler": 0
    },
    {
      "source": 2,
      "sampler": 0
    }
  ],
  "images": [
    {
      "uri": "textures/aa83963930c89003.png"
    },
    {
      "uri": "textures/3dc0f7c0a7103fba.png"
    },
    {
      "uri": "textures/e3bd48b7f3fb95d0.png"
    }
  ],
  "samplers": [
    {
      "wrapS": 10497,
      "wrapT": 10497
    }
  ],
  "bufferViews": [
    {
      "buffer": 0,
      "byteOffset": 0,
      "byteLength": 48636
    },
    {
      "buffer": 0,
      "byteOffset": 48636,
      "byteLength": 48636
    },
    {
      "buffer": 0,
      "byteOffset": 97272,
      "byteLength": 32424
    },
    {
      "buffer": 0,
      "byteOffset": 129696,
      "byteLength": 16212
    }
  ],
  "accessors": [
    {
      "bufferView": 0,
      "componentType": 5126,
      "count": 4053,
      "type": "VEC3",
      "min": [
        -0.6665788292884827,
        0.11326546967029572,
        -2.5476675033569336
      ],
      "max": [
        0.6665785908699036,
        2.70326566696167,
        2.5476672649383545
      ]
    },
    {
      "bufferView": 1,
      "componentType": 5126,
      "count": 4053,
      "type": "VEC3"
    },
    {
      "bufferView": 2,
      "componentType": 5126,
      "count": 4053,
      "type": "VEC2"
    },
    {
      "bufferView": 3,
      "componentType": 5125,
      "count": 4053,
      "type": "SCALAR"
    }
  ],
  "extensionsUsed": [
    "KHR_materials_specular",
    "KHR_materials_emissive_strength"
  ],
  "buffers": [
    {
      "uri": "shotgun.bin",
      "byteLength": 145908
    }
  ]
}