{
  "asset": {"version": "2.0", "generator": "Gloom authored Soul Reaper"},
  "buffers": [{"byteLength": 168, "uri": "data:application/octet-stream;base64,"}],
  "bufferViews": [{"buffer": 0, "byteOffset": 0, "byteLength": 96, "byteStride": 12, "target": 34962}, {"buffer": 0, "byteOffset": 96, "byteLength": 72, "target": 34963}],
  "accessors": [{"bufferView": 0, "componentType": 5126, "count": 8, "type": "VEC3", "min": [-1, -0.25, -1], "max": [1, 0.25, 1]}, {"bufferView": 1, "componentType": 5123, "count": 36, "type": "SCALAR"}],
  "materials": [{"name": "Soul Reaper gunmetal", "pbrMetallicRoughness": {"baseColorFactor": [0.12, 0.14, 0.18, 1], "metallicFactor": 0.86, "roughnessFactor": 0.24}}, {"name": "Soul Reaper bronze", "pbrMetallicRoughness": {"baseColorFactor": [0.46, 0.18, 0.055, 1], "metallicFactor": 0.72, "roughnessFactor": 0.30}}],
  "meshes": [{"name": "SoulReaperBody", "primitives": [{"attributes": {"POSITION": 0}, "indices": 1, "material": 0}]}, {"name": "SoulReaperBarrel", "primitives": [{"attributes": {"POSITION": 0}, "indices": 1, "material": 1}]}],
  "nodes": [{"name": "Soul Reaper Body", "mesh": 0}, {"name": "Soul Reaper Barrel", "mesh": 1}],
  "scenes": [{"nodes": [0, 1]}], "scene": 0
}
